<?xml version="1.0" encoding="utf-8"?>
<!-- Generator: Adobe Illustrator 26.4.1, SVG Export Plug-In . SVG Version: 6.00 Build 0)  -->
<svg version="1.1" id="Layer_1" xmlns="http://www.w3.org/2000/svg" xmlns:xlink="http://www.w3.org/1999/xlink" x="0px" y="0px"
	 width="500px" height="500px" viewBox="0 0 500 500" enable-background="new 0 0 500 500" xml:space="preserve">
<g id="g29">
	<g>
		<path fill="#A66425" d="M96,209.3c2.8,18.8,2.8,48.1,2.8,48.1l58.7,3.4l-57.8,3.3c0,0-0.2,13.3,1.8,28.6
			c2.1,15.3-10.7,41.6-2.1,52c8.7,10.4,141.8,2.5,147.6,3.2c5.9,0.6-8.9,25.8,3.1,34.4c12,8.6,135.1-85.7,152.8-124.4
			c2.3-3,2.8-9.8-0.9-13.2c-51-46.8-151.5-115.1-151.5-115.1l-2.4,38.8c0,0-142.4-11.6-149.5,5.1h0C98.7,173.5,93.2,190.5,96,209.3z
			"/>
	</g>
	<g>
		<path fill="#E6B075" d="M250.2,369.8c12,8.6,135.1-85.7,152.8-124.4c-61.4-86.1-152.4-128.3-152.4-128.3l-2.4,38.8
			c0,0-142.4-11.6-149.5,5.1h0c0,0-5.5,17-2.7,35.8c2.8,18.8,2.8,48.1,2.8,48.1l58.7,3.4l-57.8,3.3c0,0-0.2,13.3,1.8,28.6
			c2.1,15.3-10.7,41.6-2.1,52c8.7,10.4,141.8,2.5,147.6,3.2C253,336,238.3,361.2,250.2,369.8z"/>
	</g>
	<g>
		<path fill="#E0A465" d="M250.2,369.8c12,8.6,135.1-85.7,152.8-124.4c-11.4-16-23.8-30.5-36.5-43.5c-32.3,25.1-90,66.2-147.2,87.3
			c-55.7,20.6-97.1,15.9-119.4,10c-2.5,12.8-5.9,26.2-0.3,32.9c8.7,10.4,141.8,2.5,147.6,3.2C253,336,238.3,361.2,250.2,369.8z"/>
	</g>
	<g>
		<path fill="#C68342" d="M114.9,154.3c-8.9,1.4-14.9,3.5-16.3,6.7c0,0,0,0,0,0c26.7,1,57.2,2.7,71,5.6
			C162.4,161.4,139.6,157.3,114.9,154.3z"/>
	</g>
	<g>
		<path fill="#C68342" d="M346,304.8c0.9,0.1,1.9,0.2,2.8,0.3c4.4-3.8,8.7-7.7,12.8-11.5c-8-0.7-16.5-1.2-25.3-1.3v0
			c-15-0.1-30.7,0.9-46.2,3.8c-34.3,6.5-50.7,24.7-58.6,39.7c3.8-0.1,7.2-0.2,9.6-0.3c1.2-1.8,2.9-3.6,5.1-5.4
			C265.4,313.8,307.6,301.3,346,304.8z"/>
	</g>
	<g>
		<path fill="#C68342" d="M95.3,182c27.1,1.1,98.5,5,128.2,9.6c32.5,5.1,91.2,29.3,119.1,32.2c13.6,1.4,30.8,2.7,46.8,3.8
			c-2.5-3-4.9-6-7.4-8.8c-6.1-0.1-12.7-0.3-19.7-0.9c-37.6-2.9-88.4-20.2-108.1-27.4c54.5,3.3,66.3-5.1,88.5-11.1
			c-2.1-1.8-4.2-3.6-6.2-5.3c-50.9,13.8-132.3,9.2-175,5.5c-22.5-2-46-3.4-65.6-4.5C95.6,177.3,95.4,179.5,95.3,182z"/>
	</g>
	<g>
		<path fill="#C68342" d="M320.3,161.2c-5.3-4-10.4-7.9-15.4-11.4c-18.4,2.8-38,4.3-56.7,4.4l-0.1,1.7c0,0-32.2-2.6-66.7-3.6
			c13.7,3.1,27.7,6.2,42.5,8.4C255.6,165.5,296,168.9,320.3,161.2z"/>
	</g>
	<g>
		<path fill="#C68342" d="M295.8,346.8c1.9-2.8,5.3-5.6,11.1-8c5.5-4,11-8.2,16.6-12.7c-19.5,4.5-37,12.3-46.9,21.4
			c6.2-0.1,12.3-0.1,18.5-0.2C295.3,347.1,295.5,347,295.8,346.8z"/>
	</g>
	<g>
		<path fill="#C68342" d="M386.9,268c3.1-3.5,5.9-6.9,8.3-10.1c-23.7,2.2-52.9,2.6-78.7-4c-54-13.9-129.9-34.5-163.7-33.7
			c-15.8,0.4-36.1,0.1-54.6-0.3c0.2,3.3,0.3,6.3,0.4,9.3c28-0.7,61.7-0.8,79.1,1.6c33,4.5,108,24.1,108,24.1s-35.8-4.7-71.1,2.1
			c-35.3,6.7-43.9,23-73.3,26.8c-10,1.3-24.5,2-39.4,2.4c-0.2,2.8-0.6,5.8-1.1,8.9c30.5,0.1,46.5,5.4,75-9.5
			c30.9-16.2,66.4-21.2,81.9-23.6c15.6-2.4,47-2,68.3,2.6C337.4,267,363.3,268.1,386.9,268z"/>
	</g>
	<g>
		<path fill="#C68342" d="M147.1,337.6c9,0.1,18.5,0,28.1-0.2c-3.6-0.4-7.5-0.6-11.8-0.6c-2.5,0-5.1,0.1-7.8,0.2
			C152.7,337.2,149.9,337.4,147.1,337.6z"/>
	</g>
	<g>
		<path fill="#C68342" d="M235.4,288.8c0,0-14.9,3.7-31,12.6c-16,8.9-53.8,15-93.7,19.4c-5.2,0.6-9.9,0.8-14.2,0.9
			c0,1.5,0.2,2.9,0.4,4.3c32.9-2.5,80-6.3,92.5-9.2C208.7,312.3,235.4,288.8,235.4,288.8z"/>
	</g>
	<g>
		<path fill="#C68342" d="M100.5,269.6c0.2,2.8,0.5,5.7,0.9,8.8c12.7-1.1,27.4-2.7,36.6-4.7c18.8-4.2,31.1-20.2,56.5-31.4
			c-1.8-0.2-3.5-0.2-5.2-0.2c-25.3,0.6-41.1,22.5-65.9,26.4C114.9,269.8,107.1,270,100.5,269.6z"/>
	</g>
	<g>
		<path fill="#C68342" d="M403,245.4c-1.2-1.7-2.4-3.3-3.6-4.9c-9,1.9-21.5,3.5-36.8,2.7c-32.9-1.8-93.4-26.8-157.4-39.7
			c-36-7.2-70.1-8.6-93.1-8.5c-6.5,0-11.8,0.2-16.3,0.4c0.1,0.4,0.1,0.9,0.2,1.3c0.5,3.2,0.9,6.8,1.2,10.5c24.3-2,65.2-4.3,88.8,0.2
			c35,6.7,103.9,28.1,141.6,37.8c26.8,6.9,57.3,5.9,72.9,4.8C401.4,248.4,402.3,246.9,403,245.4z"/>
	</g>
	<g>
		<path fill="#C68342" d="M281.8,278.3c-27,3.4-34.5,9-34.5,9s84.4-5.7,123.4-2.4c2.7-2.6,5.4-5.3,7.8-7.8
			c-10.8-0.3-24.9-0.5-41.3-0.6C315.7,276.5,293.6,276.8,281.8,278.3z"/>
	</g>
	<g>
		<path fill="#A66425" d="M209.1,263.7c8.6-2.6,18-4.3,28.6-5.3c7.2-0.6,14.3-0.9,20.9-1c29.3-0.3,50.5,3.3,50.7,2.3
			c0.2-1-21-6.4-50.7-6.6c-6.7-0.1-13.9,0.1-21.3,0.8c-10.8,1-20.5,2.9-29.4,5.9c-10.9,3.7-22.5,10.2-27.9,13.2
			c-6.6,3.6-10.4,5.8-10.2,6.2c0.2,0.4,4.4-0.9,11.3-3.9C186.2,273,199.2,266.7,209.1,263.7z"/>
	</g>
	<g>
		<polygon fill="#A66425" points="176.7,204.7 176.7,204.7 176.7,204.7 		"/>
	</g>
	<g>
		<path fill="#A66425" d="M230.4,216.1L230.4,216.1c16.5,5.2,25.9,8.4,37.8,11c9.9,2.2,16.1,2.6,16.2,2c0.1-0.6-5.9-2.1-15.4-5.1
			c-12.4-3.9-24.8-8.4-37.2-12.2l0,0c-15.5-4.9-27.8-7.4-38.8-8.1c-10.1-0.7-16.4,0.4-16.4,1c0,0.6,6.2,0.7,16,2.2
			C203.7,208.5,214.6,211.2,230.4,216.1z"/>
	</g>
</g>
</svg>
