<?xml version="1.0" encoding="utf-8"?>
<!-- Generator: Adobe Illustrator 26.4.1, SVG Export Plug-In . SVG Version: 6.00 Build 0)  -->
<svg version="1.1" id="Layer_1" xmlns="http://www.w3.org/2000/svg" xmlns:xlink="http://www.w3.org/1999/xlink" x="0px" y="0px"
	 width="500px" height="500px" viewBox="0 0 500 500" enable-background="new 0 0 500 500" xml:space="preserve">
<g id="g56">
	<g>
		<path fill="#A66425" d="M33,228.2c-3.9,6.3-4.3,8.1-1.8,24.7c4.2,28.2,87.3,130.9,109.2,136.5c21.9,5.6,304.5,10.2,318.5,0.6
			c14.1-9.6,19.3-251.3-5.6-258.5c-25-7.2-284.7-14-316.9,2.3h0C114.7,144.7,55.2,192.8,33,228.2z"/>
	</g>
	<g>
		<path fill="#E6B075" d="M137.1,370.2c21.9,5.6,304.5,10.2,318.5,0.6c14.1-9.6,19.3-251.3-5.6-258.5c-25-7.2-284.7-14-316.9,2.3
			c-25.5,12.9-91.4,88.7-103.5,119.2C23.4,249.2,115.2,364.6,137.1,370.2z"/>
	</g>
	<g>
		<path fill="#E0A465" d="M455.6,370.7c8.1-5.5,13.2-87.3,11.4-157.5c-32.2,35.9-85.1,78.2-162.4,91.9
			c-102.8,18.2-202.9-8.5-251-24.9c27.3,38.5,69.5,86.4,83.4,90C159,375.7,441.5,380.3,455.6,370.7z"/>
	</g>
	<g>
		<path fill="#D49759" d="M218.2,162.2c-11.4-0.5-22.9-0.8-34.3-0.8c-37.2,0-75.2,4-112,11.3c-3.9,4.6-7.7,9.2-11.3,13.8
			c5.5-1.3,11.1-2.5,16.7-3.7c54-11.7,109.4-14.6,164.5-13.6c45.2,0.8,90.4,6.2,135.5,7.4c29,0.8,58.8-2.3,87.8-5.6
			c-0.2-3.1-0.5-6.1-0.8-9c-20.4,1.9-40.7,3.9-61.2,4.4c-65.2,1.8-131.2-9.9-195.4-20.5c-30.8-5.1-61.7-13.4-93.2-13
			c-1.8,0-3.6,0.1-5.3,0.2c-3.1,2.9-6.4,6.1-9.7,9.4c17.8-0.2,36,2.1,52.7,4.2c26.8,3.3,53.6,15.7,81,15.7h-1.9
			C226.9,162.6,222.5,162.4,218.2,162.2z"/>
	</g>
	<g>
		<path fill="#D49759" d="M40.5,260.5c14.7-0.5,30-0.4,34.3-0.4c99.8-0.7,196.8,17.9,295.2,32.3c12.5,1.8,63.8,10.1,95.2,19.4
			c0.3-4,0.5-8.2,0.7-12.5c-24.6-7.1-57.6-12.7-70.9-15.5c-98.7-20.7-202.9-33-303.9-33.5c-18.4-0.1-37.1,0.2-55.7,1.5
			C37,254.6,38.7,257.5,40.5,260.5z"/>
	</g>
	<g>
		<path fill="#D49759" d="M38.4,217.3c12.8-0.1,24.8,0,29.6-0.1c94.1-3.3,189.8,1.3,283.3,11.9c32.4,3.7,64.9,6,97.3,10
			c6.3,0.8,12.6,1.7,18.9,2.6c0-3.5-0.1-7-0.1-10.6c-21.1-3.6-42.1-6.4-44.7-6.8c-97-15.9-197-25.9-295.7-25.5
			c-6.6,0-13.1,0.1-19.7,0.2c-18.9,0.3-38,0.4-57.1,0.9C45.8,206.1,41.8,211.9,38.4,217.3z"/>
	</g>
	<g>
		<path fill="#D49759" d="M390.2,132.6c22.4-1,44.7-5.6,67.1-9.7c-2.1-6-4.5-9.9-7.3-10.7c-0.7-0.2-1.6-0.4-2.5-0.6
			c-45.3,6.9-89.9,9.7-135.4,2.6c-19.7-3.1-39.4-5.6-58.8-9.6c-33.5,0.3-64.8,1.4-87.4,3.6c15.5,0.4,31,1.9,46.1,4.8
			C270.1,123.9,330.7,135.2,390.2,132.6z"/>
	</g>
	<g>
		<path fill="#D49759" d="M370.9,355.5c-4.2,0.2-23.8,1.1-20.8,9.7c1.6,4.7,4.3,8.2,7.6,11c51.4-0.4,92.8-2,98-5.5
			c1.6-1.1,3.1-5.2,4.4-11.6c-22.8-1.6-49.2-1.4-60-2.1c-7.3-0.5-14.5-1.4-21.8-1.6C375.8,355.4,373.3,355.4,370.9,355.5z"/>
	</g>
	<g>
		<path fill="#D49759" d="M463.7,331.9c-30.5-4.5-61-8.2-91.8-11.4c-11.8-1.2-29.4-4.4-46.3-4.5c-17,0-33.3,3.1-42.6,14.6
			c-10.8,13.3-1.1,31.4,11.2,45.5c5.5,0.1,10.9,0.1,16.4,0.1c-5.8-5.8-10-13.6-10.4-21.9c-0.6-12.8,10.1-16.5,21-18.5
			c19.6-3.6,41.5,2.2,61,4c26.6,2.5,53.6,2.3,80.3,4.1C462.9,340.3,463.3,336.1,463.7,331.9z"/>
	</g>
	<g>
		<path fill="#D49759" d="M100.1,327.8c-2.9,0-5.8,0.2-8.6,0.4c4.6,5.3,9.1,10.3,13.5,14.9c18.9,1.4,38.2,12.3,48.2,28.7
			c0,0,0,0,0,0.1c6.5,0.5,14.5,0.9,23.9,1.3c-5.9-16.7-17.1-29-37.1-38C128.3,329.9,114.3,327.7,100.1,327.8z"/>
	</g>
	<g>
		<path fill="#D49759" d="M232.8,375c10.6,0.3,21.3,0.4,32.6,0.6c-3.6-9.4-9.7-17.8-16.8-26.1c-39.7-45.8-105.5-63.3-164.9-62.3
			c-4,0.1-7.9,0.2-11.8,0.4c-4,0.2-7.9,0.7-11.9,1.2c4.2,5.7,8.6,11.5,13.2,17.3c42.8-1.4,89.4,5.1,124.8,29.6
			C211.6,345.2,225.9,359.3,232.8,375z"/>
	</g>
	<g>
		<path fill="#A66425" d="M153.6,346.4c16.9,1.4,258.2,2.7,277.7-4.9c19.5-7.6,9.7-192.8,2.1-200.3c-5.2-5.2-77.2-11.1-160.9-10.6
			c-38,0.2-78.5,1.8-116.2,5.3c-47.4,33-97.9,93.4-94.3,103.6C65.5,249.8,136.7,345,153.6,346.4z M82.3,255.4c-3.7-5.1-6.7-9.6-9-13
			c-1.8-2.7-2.4-4.1-2.7-4.6c0-0.3,0-0.5,0.2-1.1c0.8-1.9,2.5-4.9,4.8-8.5c4.6-7.1,11.9-16.4,20.8-26.4
			c17.3-19.6,41.6-45.6,63.9-61.5c29.2-2.7,59.2-0.4,89.3-1c11.6-0.2,23-0.3,34.2-0.3c33.6,0,64.8,1.1,89.8,2.6
			c16.7,1,30.6,2.3,40.5,3.6c5,0.7,8.9,1.4,11.5,2c0.5,0.1,0.7,0.2,1.1,0.3c0.3,1.3,0.7,3.1,1.1,5.5c0.9,5.5,1.8,13.2,2.7,22.3
			c1.7,18.3,3,42.2,3.5,66.1c0.5,23.9,0.1,47.8-1.6,65.8c-0.8,9-2,16.5-3.4,21.5c-0.7,2.4-1.3,4.1-1.8,5c-0.5,0-5.8,1.1-13.5,1.8
			c-8.3,0.7-19.3,1.2-32,1.7c-25.5,0.9-56.4,4.5-88.8,4.7c-32.4,0.2-66.3-2.9-91.5-3.1c-25.3-0.2-44.5-0.7-47.2-0.9
			c1.5,0.1-1.1-0.5-4.2-2.8c-3.1-2.4-7.1-6-11.4-10.5c-8.8-8.9-19.3-21.2-29.3-33.7C99.3,278.5,89.6,265.7,82.3,255.4z"/>
	</g>
	<g>
		<polygon fill="#A66425" points="138.9,206.8 138.9,206.8 138.9,206.8 		"/>
	</g>
	<g>
		<path fill="#A66425" d="M244,208.6c0.2,0,0.4,0,0.6,0c8.3,0.2,16.6,2.2,24.9,2.7c13.2,0.6,25.1-0.3,35.4,1.1
			c13.2,1.8,24.3,5.2,32.1,6.1c7.8,0.9,12.3,0.1,12.3-0.3c0-0.4-4.4-0.3-12-1.8c-7.6-1.5-18.2-5.4-31.9-7.7
			c-10.7-1.8-23-1.1-35.7-1.8c-7.8-0.4-16-2.5-25-2.8c-0.2,0-0.4,0-0.6,0c-26.2-0.6-58.3,0.6-74.4,1.2c-19,0.6-30.7,1-30.8,1.6
			c0,0.6,11.8,1.4,30.8,1.6C188.7,208.6,215,207.9,244,208.6z"/>
	</g>
	<g>
		<path fill="#A66425" d="M306.9,271.4c8,1,15.5,2.1,22.8,3.4c16.1,2.9,30,7.3,40.1,9.2c10.1,1.9,16.3,2,16.3,1.4
			c0.1-0.5-5.9-1.5-15.7-4.1c-9.8-2.6-23.4-7.5-39.9-10.8c-7.3-1.4-14.9-2.6-23-3.6c-18.9-2.4-45.6-4.2-56.9-5.1
			c-14.5-1.1-23.5-2-23.6-1.3c-0.1,0.6,8.8,2.6,23.3,4.5C264.8,267,285,268.6,306.9,271.4z"/>
	</g>
	<g>
		<path fill="#A66425" d="M354.3,129.7c0,0,0.2,0,0.2,0c21,0.1,37.6-1.5,51.4-4.3c13-2.6,20.6-5.6,20.4-6.2c-0.2-0.6-8.1,1.3-21,3
			c-14.1,1.9-29.7,3-50.9,2.9c0,0-0.2,0-0.2,0c-21.4-0.1-36.7-1.3-51-3.7c-12.9-2.1-20.6-4.5-20.8-3.9c-0.2,0.6,7.3,4.1,20.2,7.1
			C316.6,127.8,333,129.6,354.3,129.7z"/>
	</g>
	<g>
		<path fill="#A66425" d="M276.4,168.2c24,3.1,43.6,2.6,43.7,1.4c0.1-1.2-19.5-2.8-43.1-5.9c-12.6-1.6-21.6-3.3-29.9-5.1
			c-7.6-1.6-12.3-2.8-12.5-2.2v0c-0.2,0.6,4.2,2.9,11.7,5.3C254.1,164.2,264.1,166.5,276.4,168.2z"/>
	</g>
	<g>
		<path fill="#A66425" d="M158.2,308.3c2.9,1,5.7,2.1,8.4,3.2c8.5,3.6,16.1,8.2,22.7,13c7.8,5.7,14.6,11.2,20.8,15.3
			c12.6,8.4,20.6,12.2,21,11.8c0.4-0.5-7.5-5.6-19.2-14.3c-5.8-4.3-12.4-10.1-20.2-16c-6.7-5.1-14.5-10-23.4-13.8
			c-2.9-1.2-5.8-2.3-8.8-3.4c-21.7-7.4-45.6-8.6-60.2-9.1c-15.7-0.5-25.3-0.5-25.3,0.1l0,0c0,0.6,9.6,1.8,25.1,3.1
			C113.6,299.5,137.6,301.3,158.2,308.3z"/>
	</g>
	<g>
		<path fill="#A66425" d="M139.7,347L139.7,347c6.8,4,10.9,6.7,15.1,9.8c3.7,2.8,5.9,4.7,6.4,4.3c0.5-0.4-0.9-3.1-4.2-6.6
			c-3.5-3.7-8.4-7.6-14.9-11.4l0,0c-5.8-3.4-12.7-6.6-16.5-8.4c-4.3-1.9-7-3-7.3-2.5l0,0C117.5,333.3,127.4,339.8,139.7,347z"/>
	</g>
</g>
</svg>
