<?xml version="1.0" encoding="utf-8"?>
<!-- Generator: Adobe Illustrator 26.4.1, SVG Export Plug-In . SVG Version: 6.00 Build 0)  -->
<svg version="1.1" id="Layer_1" xmlns="http://www.w3.org/2000/svg" xmlns:xlink="http://www.w3.org/1999/xlink" x="0px" y="0px"
	 width="500px" height="500px" viewBox="0 0 500 500" enable-background="new 0 0 500 500" xml:space="preserve">
<g id="g118">
	<g>
		<path fill="#A66425" d="M441.6,214.5c1.4-20.5-6.6-48.2-31.6-48.1c-25,0.1-93,28.1-111.9,20.2c-18.9-7.9-28.7-21.9-44.3-29.3
			c-15.5-7.5-41.8-8.5-68.2,3.3c-26.4,11.8-39.5,41.7-114,38.9c0,0-11.2,26.9-10.5,51.5c0.2,6.3,3.6,15.7,5.2,20.6
			c14.6,4.5,31.5,6.5,31.5,6.5l-30.7,36.6l5,20.1c0,0,46.5-7.9,54.3,7.8c7.8,15.7,13.3,20.6,48.1,24.5c34.8,3.9,83.4-2.5,93.3-15.6
			c9.9-13.1,9.9-20.9,26.5-29.1c16.5-8.2,13.3-19.4,17-31.7c3.7-12.3,11.2-5.5,16.5-21.6c5.4-16.1,0.5-29.4,0.5-29.4
			s4.9-5.1,32.6-6.3C388.6,232.1,440.2,235.1,441.6,214.5z"/>
	</g>
	<g>
		<path fill="#E6B075" d="M436.1,194.7c1.4-20.5-9.2-31.1-34.2-31c-25,0.1-90.4,10.9-109.3,3c-18.9-7.9-28.7-21.9-44.3-29.3
			c-15.5-7.5-41.8-8.5-68.2,3.3c-26.4,11.8-39.5,41.7-114,38.9c0,0-13.5,47.9-5.3,72.1c14.6,4.5,31.5,6.5,31.5,6.5l-31.5,9.1
			l5.7,47.6c0,0,46.5-7.9,54.3,7.8c7.8,15.7,13.3,20.6,48.1,24.5c34.8,3.9,83.4-2.5,93.3-15.6c9.9-13.1,9.9-20.9,26.5-29.1
			c16.5-8.2,13.3-19.4,17-31.7c3.7-12.3,11.2-5.5,16.5-21.6c5.4-16.1,0.5-29.4,0.5-29.4s4.9-5.1,32.6-6.3
			C383.1,212.3,434.7,215.2,436.1,194.7z"/>
	</g>
	<g>
		<path fill="#E0A465" d="M436.1,194.7c0.5-8-0.8-14.5-4-19.4c-15.4,4.5-40.2,7.9-82.2,15.3c-91.1,15.9-61.3,68.9-149.6,105.3
			c-55.4,22.8-105.9,11.5-135.9-0.2l2.3,19.3c0,0,46.5-7.9,54.3,7.8c7.8,15.7,13.3,20.6,48.1,24.5c34.8,3.9,83.4-2.5,93.3-15.6
			c9.9-13.1,9.9-20.9,26.5-29.1c16.5-8.2,13.3-19.4,17-31.7c3.7-12.3,11.2-5.5,16.5-21.6c5.4-16.1,0.5-29.4,0.5-29.4
			s4.9-5.1,32.6-6.3C383.1,212.3,434.7,215.2,436.1,194.7z"/>
	</g>
	<g>
		<path fill="#C68342" d="M58.3,231.3c10.9-3.1,22.5-4.6,31.5-5.3c25.5-1.9,51.4-8.9,76.9-12.2c13.7-1.8,27.4-0.9,40.9-4.1
			c50.9-12.3,100.7-29.8,152.5-37.9c17.5-2.7,35.4-5,53.1-7.1c-3.4-0.6-7.1-0.9-11.3-0.9c-13.8,0-39.8,3.3-63.7,4.9
			c-22.4,4.8-44.4,10.6-67.2,16.2c-44.2,10.7-88.9,18.3-133.8,25c-23.4,3.5-46.7,7.7-69.9,12.9c-3,0.7-5.9,1.4-8.9,2.2
			C58.3,227.1,58.3,229.2,58.3,231.3z"/>
	</g>
	<g>
		<path fill="#C68342" d="M240.3,134.4c-4.6-1.3-9.8-2.2-15.3-2.5c-15,6.9-32.2,10.8-48,14.7c-3.5,0.9-7.1,1.6-10.7,2.3
			c-9.8,6.8-19.8,15-34.8,21.3c22.4-5,44.2-9.1,66.1-16.3C212.1,149,226.5,141.9,240.3,134.4z"/>
	</g>
	<g>
		<path fill="#C68342" d="M87.7,179.4c0.8,0,1.5,0,2.3,0c3.5-0.1,7-0.5,10.6-1.2C96.6,178.8,92.3,179.2,87.7,179.4z"/>
	</g>
	<g>
		<path fill="#C68342" d="M60.3,207.8c5.3-0.1,10.2,0,13-0.3c42.9-5.1,87.8-8.6,129.2-21.7c25-7.9,48.9-20,73.7-28.6
			c-1.6-1.2-3.2-2.4-4.8-3.6c-10,3-20,6.1-29.9,9.5c-20.6,7.1-41.3,12-62.5,16.7c-38.9,8.6-77.6,16.9-117.2,19.3
			C61.3,201.9,60.8,204.7,60.3,207.8z"/>
	</g>
	<g>
		<path fill="#C68342" d="M296.1,297.7c2.3-2.1,3.8-4.4,4.9-6.8c-9.7-2.4-19.5-4.1-29.5-4.4c-3.6-0.1-7.1-0.1-10.6,0
			c-49.4,1-94.5,17.7-138.3,39.5c3.3,6.2,6.7,10.6,12.8,13.7c41.6-30.8,87.3-40.5,139.3-42.3C282,297.2,289.1,297.1,296.1,297.7z"/>
	</g>
	<g>
		<path fill="#C68342" d="M305.7,270.9c0.1-0.3,0.2-0.5,0.3-0.8c-9.9-1.8-20-2.9-30-3.5c-32.3-2-64.7-0.6-97-0.9
			c-15.1-0.1-30-0.6-44.9-0.4c-14.9,0.2-29.8,1-44.8,3.4c-9.2,1.4-18.4,3.4-27.5,5.4l1.5,12.3c14.7-5.5,28.4-10,35.1-11.3
			c16.2-3.1,33.3-2.9,49.7-4.9c5.7-0.7,11.4-1.2,17.1-1.4c2.4-0.1,9.4-1.1,7.2-0.1c-12.1,5.4-27.2,6.5-39.8,12
			c-19.3,8.5-36.5,21.1-56.4,28.3c-1,0.4-6.4,1.9-9.8,2.9l0.4,3c0,0,16.7-2.8,31.8-1.7c13.9-7.8,28-15.2,42.8-21.1
			c51.4-20.6,109-24.8,163.5-17C305,273.7,305.3,272.3,305.7,270.9z"/>
	</g>
	<g>
		<path fill="#C68342" d="M416,195c6.8-0.4,13.5-1.1,20.2-1.6c0.1-2.2,0-4.4-0.2-6.4c-8.3,0.7-16,1.5-19.8,1.7
			c-30.2,1.6-61.7,3-91.2,9.9c-39.7,9.3-77.7,25.4-117.5,33.7c-34.3,7.2-69.1,10.6-104,13.2c-14.5,1.1-29.5-1-44.1,0
			c0.4,2.2,0.9,4.3,1.5,6.3c2.6,0.8,5.2,1.5,7.8,2.1c0.5,0,1.1-0.1,1.6-0.2c13.1-0.9,26.2-3,39.3-3.1c36.2-0.3,74.9,2.6,110.3-6.4
			c35.5-9.1,68.4-26.6,104-36C354.3,200.1,384.6,196.6,416,195z"/>
	</g>
	<g>
		<path fill="#C68342" d="M169,347.2c10,1.1,21.1,1.4,32.1,0.9c5.6-4,12.4-8.1,21.1-12.4c12.1-5.9,28.3-9.9,44.4-10.3
			c2-3.1,3.7-6,5.4-8.6c-1.7,0-3.4-0.1-5.1-0.1C233,317.4,192.4,328,162,346.3C164.3,346.6,166.4,346.9,169,347.2z"/>
	</g>
	<g>
		<path fill="#A66425" d="M232.3,233.7c-22,7.3-53.8,10.5-53.8,10.5c38.9,9.6,114.7-33.3,114.7-33.3S254.3,226.4,232.3,233.7z"/>
	</g>
	<g>
		<path fill="#A66425" d="M115.8,200.1c11.2-0.5,24.6-2.2,41-5.9c15-3.3,30.9-7.9,40.2-10.7c10.2-3.1,16.4-5.1,16.3-5.7
			c-0.1-0.6-6.7,0.4-17.1,2.6c-10.4,2.3-24.7,5.9-40.4,9.4c-16.8,3.8-28.8,5.8-40.3,7.1c-10.4,1.2-16.9,1.6-16.9,2.2
			C98.6,199.7,105.1,200.5,115.8,200.1z"/>
	</g>
	<g>
		<path fill="#A66425" d="M187.6,305.4c3.7-0.9,7.5-1.8,11.6-2.6c11.4-2.3,22.3-3.9,31.2-5.5c14.4-2.7,23.5-4.8,23.4-5.5
			c-0.1-0.8-9.8,0-24,1.8c-8.1,1.1-20.6,2.6-31.4,4.8c-4.1,0.8-8,1.7-11.8,2.7c-12.6,3.4-22.2,7.9-29.1,12.4
			c-6.6,4.3-9.9,7.8-9.6,8.2c0.3,0.4,4.2-2.3,11-5.8C166,312.3,175.1,308.5,187.6,305.4z"/>
	</g>
	<g>
		<path fill="#A66425" d="M216.1,330.2c9.2-3.5,16.8-4.7,16.8-6c0-1.5-8.6-2-18.4,1.7c-9.7,3.7-16.4,8.8-15.8,9.9
			C199.2,337,207,333.8,216.1,330.2z"/>
	</g>
	<g>
		<path fill="#A66425" d="M153.8,283.3c12.2-4.5,21.5-7,30-8.5c7.8-1.4,12.9-1.8,12.9-2.5c0-0.6-5.1-1.4-13.3-0.7
			c-8.6,0.7-18.9,2.9-31.2,7.4c-11.5,4.2-22.5,9.7-29.5,13.3c-7.3,3.8-11.7,6.5-11.4,7c0.3,0.6,5.1-1,12.8-4.1
			C131.7,292.2,142.2,287.6,153.8,283.3z"/>
	</g>
</g>
</svg>
