<?xml version="1.0" encoding="utf-8"?>
<!-- Generator: Adobe Illustrator 26.4.1, SVG Export Plug-In . SVG Version: 6.00 Build 0)  -->
<svg version="1.1" id="Layer_1" xmlns="http://www.w3.org/2000/svg" xmlns:xlink="http://www.w3.org/1999/xlink" x="0px" y="0px"
	 width="500px" height="500px" viewBox="0 0 500 500" enable-background="new 0 0 500 500" xml:space="preserve">
<g id="g59">
	<g>
		<path fill="#A66425" d="M81,308.5c17.5-2.4,37.6-4.3,57.2-4.1C119,303.8,98.8,304.9,81,308.5z"/>
	</g>
	<g>
		<polygon fill="#A66425" points="431.1,247.7 463.6,257 463.5,254.7 		"/>
	</g>
	<g>
		<path fill="#A66425" d="M39.9,201.9c-11.5,4.3-23.2,5.1-27.9,11c-2.5,3.2-0.9,13.9-0.9,13.9s21.1,29.5,46.9,85.4
			c6.8-1.2,14.6-2.5,23-3.6c17.8-3.6,38-4.7,57.2-4.1c13.9,0.1,27.6,1.2,40,3.8c-11.9-2-25.7-3.4-40-3.8
			c-19.6-0.1-39.7,1.7-57.2,4.1c-5.6,1.1-10.9,2.4-15.9,4.1c-1,0.3-0.1,12.7-1,13c4.8,10.8,9.6,22.3,14.5,34.8
			c173.8-68.3,342.3,0,342.3,0s21.7-43.9,43.2-92.5l-0.5-10.9l-32.5-9.3l32.4,7l0.1,2.2l4.8,1.4c6.5-15,12.9-30.3,18.6-44.6
			c0.9-2.2,1.4-17.2,2.2-19.3c-78.5-47.3-139.4-40.8-260.2-41.4v0C108,152.4,39.9,201.9,39.9,201.9z"/>
	</g>
	<g>
		<path fill="#E6B075" d="M489.4,193.9c-78.5-47.3-139.7-53.6-260.6-54.3c-120.8-0.6-189,48.8-189,48.8
			C22,195,11.1,213.3,11.1,213.3s21.1,29.5,46.9,85.4c31.2-5.6,82-12.1,120.2-3.9c-33.8-5.8-81.1,6.4-114.1,17.3
			c4.8,10.8,9.6,22.3,14.5,34.8c173.8-68.3,342.3,0,342.3,0s21.7-43.9,43.2-92.5l-33-20.2l37.3,10.6
			C475.9,227.7,483.2,210.1,489.4,193.9z"/>
	</g>
	<g>
		<path fill="#E0A465" d="M489.4,193.9c-11.5-6.9-22.6-12.9-33.6-18.2c-33.1,62.6-127.1,115.7-263.8,101.2
			c-71.8-7.6-115-1.4-140.8,7.6c2.2,4.6,4.5,9.2,6.8,14.2c31.2-5.6,82-12.1,120.2-3.9c-33.8-5.8-81.1,6.4-114.1,17.3
			c4.8,10.8,9.6,22.3,14.5,34.8c173.8-68.3,342.3,0,342.3,0s21.7-43.9,43.2-92.5l-33-20.2l37.3,10.6
			C475.9,227.7,483.2,210.1,489.4,193.9z"/>
	</g>
	<g>
		<path fill="#C68342" d="M430.5,327.3c2.8-5.7,4.1-8.6,8-16.8c-8.7-1.9-17.5-3.5-26.3-4.7c-15-2.1-28.8-7.7-43.4-11.3
			c-27.1-6.7-54.7-13.2-82.7-14.4c-8.3-0.3-16.5,1.2-24.7,1c-0.3,0-2.5-0.4-2.6-0.3c-0.3,0.5,1,0.3,1.6,0.4c3.3,0.5,6.6,1,9.9,1.5
			c6,0.8,12.1,1.1,18.2,1.7c17.2,1.9,34.2,4.8,51,9.1c24,6.1,45.3,18.3,68.4,26.8C409.4,320.9,420.1,324.1,430.5,327.3z"/>
	</g>
	<g>
		<path fill="#C68342" d="M112.2,310.8c-15.6,2.8-30.9,4.6-46.2,6c0.8,1.9,1.7,3.9,2.5,5.9c15.2-1.6,32.9-2.4,38.2-3.1
			c70.8-8.5,142.9-24.5,213.6-4.9c10.7,3,24.2,5.8,33.2,12.6c0.3,0.2,0.7,0.6,1,0.9c10.4,2.2,19.4,4.4,27.6,6.6
			c-7.6-5.4-15.2-10.6-23.4-15.2c-31-17-67.5-23.4-105.2-24C205.1,294.7,154.9,303.3,112.2,310.8z"/>
	</g>
	<g>
		<path fill="#C68342" d="M355.9,173.2c-10.2-1.3-20.6-2-30.7-3.6c-13-2.1-25.9-6.1-39.1-7c-3.8-0.3-7.7-0.4-11.6-0.5
			c-11.6-0.2-23.4,0.5-34.9,1.3c-29.9,1.9-60.7,5.7-89.9,12.3c-45.6,10.4-91,24.7-131.8,47.8c0.6,0.9,1.1,1.7,1.7,2.7
			c1.3-0.7,2.8-1.4,4.3-2.1c16.8-7.4,34-16,51.1-22.7c10.5-4.1,21.6-6,32.4-9.2c8.3-2.5,16.1-6.2,24.6-8.2
			c14.4-3.3,29.1-4.1,43.7-5.4c16.6-1.5,33.2-4.7,49.7-6c17.7-1.4,35.4,0.3,53.1,1c23.7,0.9,47,2.2,70.8,1.5
			c6.7-0.2,13.6-0.4,20.2,0.5c2.6,0.3,8.7,3.6,7.8,1.2C376.1,173.6,359.7,173.6,355.9,173.2z"/>
	</g>
	<g>
		<path fill="#C68342" d="M451.5,282.5c-5.5-2.7-11-5.3-16.5-7.8c-19.3-8.9-39.6-13.9-60.4-17.7c-27.5-5-54.9-6.8-82.3-6.7
			c-60.3,0.2-120.4,9.5-180.7,14.2c-22.5,1.8-45.2,1.7-67.5,5.6c2.3,4.4,4.6,9,7,13.9c23.4-3.9,46.8-7.9,70.3-11.3
			c86.6-12.5,150.9-19.2,237.9-6.3c19.3,2.9,61.9,10.8,88.9,23.4C449.2,287.6,450.3,284.9,451.5,282.5z"/>
	</g>
	<g>
		<path fill="#C68342" d="M481.8,212.9c1-2.4,1.9-4.6,2.8-7c-22-4.2-52.4-6.4-62.5-7.2c-16.7-1.2-33.7-1.9-50.8-1.8
			c-28.4,0.1-57,2-84.7,5.9c-24.7,3.5-49.3,8.2-74.1,11.5c-41.3,5.5-83.9,5.8-124.9,14c-19.1,3.8-39.3,8.8-57.8,15.6
			c0.3,0.5,0.6,1,0.9,1.6c36.1-15.6,96.1-15.5,132.7-18.6c21.4-1.8,42.9-3,64.2-5.6c29.3-3.6,58.5-9.8,88-11.8
			c16.7-1.1,33.4-0.3,50.1-0.3c28.5,0,57.2-0.3,85.6,2.2C461.5,212.3,471.7,212.1,481.8,212.9z"/>
	</g>
	<g>
		<path fill="#A66425" d="M277.6,214.3c3.7-0.5,7.4-1.1,11.1-1.6c43-6.2,68.8-8,94.4-7.4c14.4,0.3,22.3,0,22.4-0.5
			c0.1-0.5-8.5-1.2-22.3-2.2c-24.7-1.9-53-0.5-95.1,5.6c-3.8,0.5-7.5,1.1-11.1,1.7c-35.8,5.5-49.4,8-74.6,10.8
			c-18.9,2.2-30.6,2.8-30.6,3.3c0,0.6,11.7,1.1,30.8-0.3C224.8,222.1,245,219.1,277.6,214.3z"/>
	</g>
	<g>
		<polygon fill="#A66425" points="299.9,170.2 299.9,170.2 299.9,170.2 		"/>
	</g>
	<g>
		<path fill="#A66425" d="M222.7,170.9l0.2,0c22.3-2.6,39.5-3,54.5-2.2c13.9,0.7,22.5,2.2,22.6,1.6c0.1-0.6-8.3-3.2-22.4-4.8
			c-14.9-1.6-33-1.7-55.3,0.9l-0.2,0c-20.8,2.5-41,6.8-54.1,9.9c-13.7,3.2-22,5.6-21.9,6.2c0.1,0.6,8.7-0.6,22.6-3.1
			C181.3,177.2,202.8,173.3,222.7,170.9z"/>
	</g>
	<g>
		<path fill="#A66425" d="M304.2,254.2c23,1.3,43.4,3.5,59.6,5.5c9.8,1.2,17.7,1.3,23.1,2c5.4,0.7,8.3,1.6,8.4,1.3
			c0.2-0.6-12.2-3.5-31-6.7c-16-2.7-36.7-5.4-59.8-6.7c-25.9-1.4-47.9-0.7-65,0.8c-16.6,1.5-26.7,3.4-26.6,4
			c0.1,0.6,10.3-0.2,26.9-0.9C256.9,253,278.2,252.7,304.2,254.2z"/>
	</g>
	<g>
		<path fill="#A66425" d="M358.3,297.7c6.8,2.8,15.4,5,26.3,6.1l0.1,0c9.4,1,20.9,1.2,26.6,1.3c6.8,0.1,11,0.2,11.1-0.5
			c0.1-0.6-4-1.8-10.8-2.7c-6.8-1-16.2-1.6-26.4-2.7l-0.1,0c-10.9-1.2-18.7-2.7-25.8-4.6c-6.4-1.8-10.4-3.3-10.6-2.8
			C348.5,292.5,351.9,295.1,358.3,297.7z"/>
	</g>
	<g>
		<polygon fill="#A66425" points="348.7,291.9 348.7,291.9 348.7,291.9 		"/>
	</g>
	<g>
		<path fill="#A66425" d="M170.6,307.9c11.2-1.1,26.5-3.2,43.4-5c0,0,0.2,0,0.2,0c18-1.9,31-2.5,43.2-2.3c11,0.2,17.9,1,18,0.4
			c0.1-0.6-6.6-2.5-17.8-3.6c-11.9-1.1-26.1-1-43.9,1l-0.2,0c-15.5,1.7-33.9,4.8-43.3,6.4c-11,1.9-17.8,3.1-17.8,3.7v0
			C152.4,309.1,159.4,309,170.6,307.9z"/>
	</g>
</g>
</svg>
