<?xml version="1.0" encoding="utf-8"?>
<!-- Generator: Adobe Illustrator 26.4.1, SVG Export Plug-In . SVG Version: 6.00 Build 0)  -->
<svg version="1.1" id="Layer_1" xmlns="http://www.w3.org/2000/svg" xmlns:xlink="http://www.w3.org/1999/xlink" x="0px" y="0px"
	 width="500px" height="500px" viewBox="0 0 500 500" enable-background="new 0 0 500 500" xml:space="preserve">
<g id="g33">
	<g>
		<path fill="#A66425" d="M427.9,197.4l-1.3-64.6c0,0-3.5-13.3-7.7-13c-44.2,2.4-298.5,29.9-358.5,34l-1.7,88.9l7,13.4
			c0,0,66.8,10.7,101.6,5.1c-47.3,17.5-97,11.5-97,11.5l-9.9,94l6.9,13.2c0,0,98.3,1.1,157.1,0.8c58.8-0.3,222.6-4.1,222.6-4.1
			l-3.8-63L437,302l-0.6-0.4l-4.5-86.8c0,0-5-12.3-8.1-12.7c-18.9-2.1-81.9,2.6-75.3,2C356.1,203.2,427.9,197.4,427.9,197.4z"/>
	</g>
	<g>
		<path fill="#E6B075" d="M420.5,183.9l-1.3-64.6c0,0-300.4,16.4-366.2,21l5.3,102.3c0,0,66.8,10.7,101.6,5.1
			c-47.3,17.5-97,11.5-97,11.5l-3,107.2c0,0,98.3,1.1,157.1,0.8c58.8-0.3,222.6-4.1,222.6-4.1l-3.8-63h-90.3l83.5-12l-4.5-86.8
			c0,0-91.1-9.9-83.5-10.7C348.7,189.7,420.5,183.9,420.5,183.9z"/>
	</g>
	<g>
		<path fill="#E0A465" d="M426.2,233.7c-96.1,64.5-281.5,69.3-364.4,68l-1.8,64.6c0,0,98.3,1.1,157.1,0.8
			c58.8-0.3,222.6-4.1,222.6-4.1l-3.8-63h-90.3l83.5-12L426.2,233.7z"/>
	</g>
	<g>
		<path fill="#C68342" d="M202.8,202.1c5.2,0.2,25.3,2.3,27.8-6.4c2.1-7.3-14.4-8.1-23.7-8c-3.1,0-5.4,0.2-5.9,0.2
			c-37.8,1.8-76.3,1.8-113.9,6.4c-3.6,0.4-19.8,5.5-30.9,8.7l1.2,22.3c10.5-3,23.7-6.2,24.6-6.4
			C122.2,210.1,161.4,200.8,202.8,202.1z"/>
	</g>
	<g>
		<path fill="#C68342" d="M428.5,278.7l-0.6-12c-17-4.4-33.4-12.9-50.4-17.6c-25.5-7-54.3-11-81.8-11.1c-9.2,0-18.2,0.3-26.9,1.2
			c-62.2,6.1-109.2,32.6-174.3,27.5c-5.2-0.4-26,4.9-28.5,2.6c-0.9-0.8,1.8-5.1,2-5.6c0.7-1.6,1.2-2.8,1.6-4
			c-4.1-0.3-6.7-0.5-6.7-0.5l-3,107.2c0,0,98.3,1.1,157.1,0.8c58.8-0.3,222.6-4.1,222.6-4.1l-2-32.8c-22.6-1.5-47.1,3.8-68.5,9.5
			c-25.3,6.7-50.5,21.6-77,21.4c-50.8-0.4-100.2-24.3-151.1-24.3c-7.3,0-58.3,16.1-58.6,15.3c-0.5-1.1,2.6-4.1,3.1-4.7
			c14.6-18.1,35.1-27.3,57-28.3c45.2-1.9,85.2,12.6,129,11.6c26.9-0.6,56.1-4.4,82.5-9.3c12-2.2,23-7.8,35.2-8.6
			c15.4-0.9,31.6-2.2,47.2-0.3l-0.4-7.3c-31.9-2.8-64.1-0.6-95.6,4.9c-14.3,2.5-28.7,7.1-43.2,8.4c-74.8,7.2-155.1-30.8-224.7,9.9
			c-3.1,1.8,2.2-7.4,3-11.1c1.6-7.5,2.6-14.2,2.9-21.9c0.1-3.1-2.8-8.1-0.2-9.2c26.6-10.8,58.4-7.4,86.3-13.3
			c19.8-4.2,38.7-11.8,58.4-16.1c44.6-9.6,89.5-8.4,134.4-1C381.8,260,404.8,270.6,428.5,278.7z"/>
	</g>
	<g>
		<path fill="#C68342" d="M341.5,269.1c-0.1-1-7.5-3.6-8-4c-13.9-2.2-28-3.5-42.1-3.5c-4.7,0-9.4,0.1-14.1,0.4
			c-14.6,0.9-29,3.3-43,7.7c-3,0.9-23.9,5.1-22.7,10.5c1.4,6.6,19.7,2.8,23.4,2.6c30.2-2.2,60.5,3.3,90.5-3.2
			C328.4,279,341.9,275.3,341.5,269.1z"/>
	</g>
	<g>
		<path fill="#C68342" d="M336.6,226.1c-14-4.8-26.5-6.8-37.5-6.9c-12.5-0.1-23.1,2.4-32,6.2C314.5,225.2,336.6,226.1,336.6,226.1z"
			/>
	</g>
	<g>
		<path fill="#C68342" d="M197,296.1c39.6,18.2,57.8,18.5,104.1,4.7C252.7,309.6,197,296.1,197,296.1z"/>
	</g>
	<g>
		<path fill="#C68342" d="M392.2,180.8c-3.2-0.3-14.5-3.1-23.1-2.9c-5.1,0.1-9.3,1.3-10,4.8c-0.5,2.3,0.9,4.3,3,6
			c23.4-2,58.4-4.8,58.4-4.8l-0.1-3.4C407.1,180.9,395.9,181.1,392.2,180.8z"/>
	</g>
	<g>
		<path fill="#C68342" d="M415,223.8c-42.5-10.7-75.4-21.5-112.2-22.1c-2.5,0-4.9,0-7.4,0c-18.2,0.4-37.5,3.5-59.4,10.2
			c-26,8-51.6,21-78.8,23.4c-26.9,2.4-66.7-6.3-93.5,7.9c6.6,1,21.6,3,41.2,4.6c38.5-3.1,76.6-0.5,113.9-15.8
			c31.1-12.8,65.2-27.3,99.2-22.4c37.2,5.3,72,27.7,108.4,37.6c0.2,0.1,0.4,0.1,0.6,0.1l-1.1-20.9
			C422.2,225.7,418.6,224.7,415,223.8z"/>
	</g>
	<g>
		<path fill="#C68342" d="M401.6,155.7c-108.8,2.9-218.1,12.3-326.4,17.8c-4.1-7.6-9.4-20.8-14.5-33.8c-2.2,0.1-6,0.4-7.9,0.5
			l2.6,50.5c3.5-1,7.5-1.7,11.5-2.7c48.7-12.7,99.5-5.4,148.9-12c16.8-2.3,33.2-1.5,50.1-2.9c44.5-3.6,88.9-9.2,133.7-9.8
			c2.3,0,10.8,0.2,20.3,0.6l-0.2-9.9C411.4,154.9,404.3,155.6,401.6,155.7z"/>
	</g>
	<g>
		<path fill="#C68342" d="M376.9,195.8C377,195.8,377,195.8,376.9,195.8c7.6,2.7,27.8,5.4,47.6,7.3l-0.1-1.8
			C424.5,201.2,399.7,198.5,376.9,195.8z"/>
	</g>
	<g>
		<polygon fill="#C68342" points="90.9,153.8 419.5,135 419.3,128 		"/>
	</g>
	<g>
		<path fill="#A66425" d="M186.3,238.7c7.8-1.3,16.7-4.1,28.7-9.7c9.7-4.4,24.7-12.5,37.6-16.3c5.3-1.6,10.8-2.9,16.4-3.8
			c26.6-4.4,51.7-0.7,69.2,3.1c17.6,3.9,28.2,7.8,28.4,7.2c0.2-0.6-9.9-5.6-27.7-10.4c-17.6-4.8-43.2-9-70.7-4.5
			c-5.9,1-11.5,2.3-17,4c-13.7,4.2-28.3,12.4-37.9,17.2c-11.9,5.9-20,9-27.6,10.9c-6.8,1.8-10.9,2.1-10.9,2.4h0
			C175,239.4,179.2,239.8,186.3,238.7z"/>
	</g>
	<g>
		<path fill="#A66425" d="M354.9,244.7c12.9,1.4,20.8,2.8,21,2.2c0.1-0.6-7.6-3.1-20.5-5.3c-13.5-2.3-30.4-3.9-51-3.6
			c-40,0.5-72.2,6.7-72,7.9c0.2,1.2,32.5-2.9,72.1-3.4C325.1,242.2,341.2,243.2,354.9,244.7z"/>
	</g>
	<g>
		<path fill="#A66425" d="M320.4,319.9c13.9-3.8,22.1-7.8,21.8-8.4c-0.2-0.6-8.7,2.3-22.6,5.3c-14.6,3.1-32.6,5.4-55.2,5.2
			c-21.9-0.3-41.7-2.9-56-5.2c-14.3-2.2-23.1-4-23.2-3.4c-0.3,1.2,34.8,12.6,79.2,13.1C287.2,326.8,305.9,323.9,320.4,319.9z"/>
	</g>
	<g>
		<path fill="#A66425" d="M175.5,350.9L175.5,350.9c13.1,0.8,22.6,2.2,31.2,3.9c7.9,1.6,12.7,3.1,12.9,2.5c0.2-0.6-4.2-3.1-12.1-5.6
			c-8.3-2.6-18.7-4.6-31.7-5.4l0,0c-12.1-0.7-24.3-0.3-32,0.1c-8.2,0.4-13.2,1-13.2,1.6c0,0.6,5,1.2,13.2,1.6
			C152,350,163.2,350.1,175.5,350.9z"/>
	</g>
	<g>
		<path fill="#A66425" d="M412.5,336.6c8.3-1.6,13.5-2.4,13.5-3c0-0.6-5.4-1-14-0.1c-9,0.9-19.9,3-32.8,6.9
			c-25.2,7.6-44.5,16.7-44.1,17.9h0c0.4,1.2,20.5-6,45.4-13.5C393.7,340.7,403.4,338.4,412.5,336.6z"/>
	</g>
	<g>
		<path fill="#A66425" d="M263.2,169L263.2,169c28.9-2.6,47.9-3.8,67.6-4.3c17.3-0.4,28-0.1,28.1-0.7c0-0.6-10.7-2.1-28.1-2.5
			c-18.8-0.4-40.1,0.5-67.9,2.9l-0.1,0c-26.4,2.3-50.2,5.1-67.4,6.8s-27.9,2.6-27.9,3.3c0,0.6,10.8,0.8,28.1-0.1
			C216.3,173.4,233.5,171.6,263.2,169z"/>
	</g>
</g>
</svg>
