<?xml version="1.0" encoding="utf-8"?>
<!-- Generator: Adobe Illustrator 26.4.1, SVG Export Plug-In . SVG Version: 6.00 Build 0)  -->
<svg version="1.1" id="Layer_1" xmlns="http://www.w3.org/2000/svg" xmlns:xlink="http://www.w3.org/1999/xlink" x="0px" y="0px"
	 width="500px" height="500px" viewBox="0 0 500 500" enable-background="new 0 0 500 500" xml:space="preserve">
<g id="g52">
	<g>
		<path fill="#A66425" d="M83.9,377.8c15.6,17.3,312.8,17.4,337.4-0.4c16.3-11.8-42.9-128.5-98.6-199.8l-36.8,0.7l20.7-12.1l3.4-8.8
			c-22.5-27.7-36.9-34-52-34.8c-0.7,0-1.3,0-1.9,0c-1.9,0.1-3.7,0.5-5.4,1.3c-17.9,1.5-104.7,101.4-147.4,176.5l6.3,17.3l114.5,5.8
			L84.4,337.4C69.9,364.3,79.8,373.2,83.9,377.8z"/>
	</g>
	<g>
		<path fill="#E6B075" d="M77,364.5c15.6,17.3,312.8,17.4,337.4-0.4c16.3-11.8-42.9-128.5-98.6-199.8l-36.8,0.7l31.1-7.9
			c-22.5-27.7-43.9-47-59.1-47.9c-0.7,0-1.3,0-1.9,0h0c-1.9,0.1-3.7,0.5-5.4,1.3c-17.9,1.5-98.7,114.7-141.3,189.8l114.8,9.7
			l-121.8,3C81,339.9,72.9,359.9,77,364.5z"/>
	</g>
	<g>
		<path fill="#E0A465" d="M414.4,364.1c11.1-8-12.8-64.7-46.8-122.6c-24,27.6-63.3,62.5-120,80.4c-69.3,21.9-130.1,16.7-162.3,11
			c-7.8,16.5-11.4,28.2-8.3,31.6C92.6,381.8,389.8,381.9,414.4,364.1z"/>
	</g>
	<g>
		<path fill="#C68342" d="M146.7,229.2c-3.9,5.8-7.7,11.6-11.4,17.4c9-1.7,17.5-4.1,26.4-6.3c49.8-12.1,98.5-25.4,149.6-30.6
			c11.8-1.2,23.5-2.2,35.2-2.2c-4.2-6.5-8.5-12.8-12.9-18.9c-26.5,2.8-50.5,12-76,21.2c-31.8,11.5-68.4,18.3-102.2,19
			C154.7,228.9,150,229.1,146.7,229.2z"/>
	</g>
	<g>
		<path fill="#C68342" d="M170.7,194.2c-1.7,2.4-3.3,4.8-5,7.2c29.4-2.3,59.1-5.1,88.1-10c23.5-4,46.9-10.2,70.4-13.6
			c0.1,0,1.4-0.1,1.7-0.1c-1.3-1.8-2.7-3.5-4-5.3c-3.6,0.5-9.7,1.3-10.1,1.3c-17.4,2.1-34.4,6.2-51.6,9.4
			C230.5,188.4,200.8,191.6,170.7,194.2C170.8,194.2,170.7,194.2,170.7,194.2z"/>
	</g>
	<g>
		<path fill="#C68342" d="M102.5,300.4l5.6,0.5c5.9-2,11.8-3.8,18-4.6c28.3-3.4,56.9-4.2,85.1-8.3c8.8-1.3,17.1-4.7,25.8-6.2
			c22.4-4,44.9-5.2,67.6-6c21.3-0.8,45.4,2,65.9,7.9c8.2,2.4,16.1,5.6,24.3,8.2c-1.9-3.8-3.8-7.7-5.8-11.7
			c-3.7-0.9-7.4-1.7-11.1-2.3c-21.2-3.8-42.5-5.3-63.8-5.3c-46.9,0-93.8,7.1-140.3,12.6c-24.3,2.8-43.3,5.9-66.2,6.7
			C105.8,294.7,104.1,297.6,102.5,300.4z"/>
	</g>
	<g>
		<path fill="#C68342" d="M278.9,124c-1.2-1-2.3-1.9-3.5-2.8c-17.7,7.6-38.9,12-58.4,12.8c-1.5,1.7-3,3.4-4.5,5.2
			c19-2.2,37.3-4.9,56.1-11.2C272.1,126.8,275.5,125.4,278.9,124z"/>
	</g>
	<g>
		<path fill="#C68342" d="M193.7,162.9c1.5-0.5,3-1.1,4.6-1.5c17.4-5,35.3-6.5,53.2-8.6c16.8-2,33.1-5.4,49.9-6.1
			c-1.1-1.2-2.1-2.4-3.2-3.6c-1.8,0-3.6-0.1-5.4-0.1c-25.2,0.2-50.8,2.9-75.3,7.2c-5.4,0.9-10.7,1.9-16.1,2.9
			C198.8,156.2,196.3,159.5,193.7,162.9z"/>
	</g>
	<g>
		<path fill="#C68342" d="M115.9,277.8c11.2-0.6,22.3-2,32.3-5.5c11.6-4,22.6-9.9,34.3-13.5c43.6-13.2,89.9-19.1,135.3-20.7
			c15.8-0.6,31.7-0.7,47.5-0.6c-1.3-2.1-2.5-4.2-3.8-6.3c-11.4,0.1-22.7,0.7-27.7,0.7c-50.9,0.5-102.5,9.4-151.7,22.1
			c-19.5,5-39,12.3-59.3,12.6C120.4,270.4,118.1,274.1,115.9,277.8z"/>
	</g>
	<g>
		<path fill="#C68342" d="M374.9,315.4c-15.2,0.4-29.8,3.1-35.9,10.9c-2.6,3.3-0.6,6.3,0.9,9.6c9,19.6,13.7,21.2,31.2,31.6
			c2.5,1.5,4.8,3,7.1,4.5c10.2-1.1,18.7-2.4,25-3.9c-4.8-2.1-8.8-4-10.9-5c-13-5.9-39.6-8.6-42.9-26c-3.2-16.4,38.4-15.8,59.3-13.5
			c-0.8-2.1-1.7-4.3-2.6-6.6C397.6,316,386.1,315.1,374.9,315.4z"/>
	</g>
	<g>
		<path fill="#C68342" d="M77,364.5c0.2,0.2,0.5,0.5,0.8,0.7c9.5-2.4,18.9-4.5,21.3-4.9c33.1-6.2,69.9-12.9,103.6-8.9
			c24.4,2.9,48.7,6.2,73,9.1c12.9,1.5,25.4,7,34.8,15.7c0,0,0.1,0.1,0.1,0.1c5.2-0.2,10.5-0.4,15.6-0.6c-0.3-7.8,2.1-11.7-6.6-13.6
			c-8.7-2-17.3-4.8-25.8-7.4c-27.6-8.4-57.5-11.7-86.9-11.5c-9.8,0-19.5,0.5-29.1,1.2c-16.5,1.3-32.7,4.6-49.2,5
			c-16.5,0.4-34.1-2.1-50.4,0.8C75.9,357.4,75.2,362.5,77,364.5z"/>
	</g>
	<g>
		<path fill="#C68342" d="M91.4,320.8c-2,3.9-4,7.7-5.6,11.3c15.1,0.3,37.1,1.8,42.9,1.7c37.8-0.4,76.6-3.8,113.8-10.4
			c12.9-2.3,26.4-6,38.7-10.3c0.5-0.2,3.4-1.7,6-2.7c-1,0.2-2,0.4-3.5,0.6c-6.1,0.8-12.1,1.4-18.2,2.2c-11.1,1.4-22.3,2.5-33.3,4.1
			c-25.1,3.7-51.3,10.6-76.8,11.3c-18,0.5-35.2-2.7-52.9-5.7C98.8,322.3,95.1,321.5,91.4,320.8z"/>
	</g>
	<g>
		<path fill="#C68342" d="M290,309.5c-0.7,0.1-1.7,0.5-2.8,0.9c2.1-0.4,3.5-0.7,3.5-0.8C290.5,309.5,290.3,309.5,290,309.5z"/>
	</g>
	<g>
		<path fill="#C68342" d="M382.8,339.3c-1.2,7.3,17,14.3,34.3,17.7c0.2-4.9-1.1-11.7-3.7-20.1c-6-1.4-11.9-2.1-16.3-1.8
			C393.7,335.3,383.6,334.7,382.8,339.3z"/>
	</g>
	<g>
		<path fill="#A66425" d="M264.5,213.8c8.5-2,15.2-4.5,27-8.4c0,0,0.8-0.3,0.8-0.3c11.4-3.7,18.4-5.8,26.3-6.8
			c6.8-0.9,11.1-0.5,11.2-1.1c0.1-0.6-4.2-2.1-11.4-2c-7.9,0.1-16.5,1.9-27.5,5.7c-0.3,0.1-0.5,0.2-0.8,0.3
			c-10.5,3.5-19.7,7.3-26.4,9.7c-6.7,2.4-11,3.6-10.9,4.2l0,0C252.8,215.6,257.4,215.5,264.5,213.8z"/>
	</g>
	<g>
		<path fill="#A66425" d="M251.6,185.8c0,0,0.1,0,0.1,0c16-3.5,23-5.2,34.3-7.1c8.8-1.5,14.3-2,14.3-2.7c0-0.6-5.6-1.2-14.7-0.5
			c-10,0.7-20.6,2.6-34.9,5.8c0,0-0.1,0-0.1,0c-13.5,3-25.5,5.9-34.3,7.8c-8.8,1.9-14.3,2.9-14.2,3.5c0.1,0.6,5.7,0.7,14.7-0.3
			C227,191.1,237,189,251.6,185.8z"/>
	</g>
	<g>
		<path fill="#A66425" d="M244.7,151.9c15.1-2.3,27.3-4.1,27.2-5.4c-0.1-1.3-12.7-1.4-27.9,0.9c-15.2,2.3-27.3,5.1-27.1,6.3v0
			C217,155,229.6,154.2,244.7,151.9z"/>
	</g>
	<g>
		<path fill="#A66425" d="M225.4,284.3c22.7-3,37.2-4.7,52.8-6c13.5-1.2,22-1.6,22-2.2c0-0.6-8.5-1.3-22.2-1
			c-14.6,0.4-31.6,1.8-53.2,4.7c-18.4,2.5-41.6,6.2-52.8,8.1c-13.5,2.2-21.8,3.7-21.8,4.3v0c0.1,0.6,8.5,0.3,22.2-1.1
			C188.3,289.4,202.5,287.4,225.4,284.3z"/>
	</g>
	<g>
		<path fill="#A66425" d="M208.7,348.9c22.8,0.7,41.2,3.1,57,6.6c5,1.1,12.2,1.3,15.5,1.5c9.5,1,14.2,3.7,14.5,3.3
			c0.3-0.4-4.7-4.3-14.2-5.8c-4.4-0.7-9.6-0.9-15-2.4c-15.8-4.2-34.7-7.1-57.7-7.8c-24.2-0.7-47.4,1.3-63,3
			c-16.1,1.8-25.9,3.5-25.8,4.1c0.1,0.6,10,0.1,26.1-0.9C161.5,349.7,185.2,348.2,208.7,348.9z"/>
	</g>
</g>
</svg>
