<?xml version="1.0" encoding="utf-8"?>
<!-- Generator: Adobe Illustrator 26.4.1, SVG Export Plug-In . SVG Version: 6.00 Build 0)  -->
<svg version="1.1" xmlns="http://www.w3.org/2000/svg" xmlns:xlink="http://www.w3.org/1999/xlink" x="0px" y="0px" width="500px"
	 height="500px" viewBox="0 0 500 500" enable-background="new 0 0 500 500" xml:space="preserve">
<g id="BACKGROUND">
	<rect fill="#FFFFFF" width="500" height="500"/>
</g>
<g id="OBJECTS" xmlns:svg="http://www.w3.org/2000/svg" xmlns:sodipodi="http://sodipodi.sourceforge.net/DTD/sodipodi-0.dtd" xmlns:inkscape="http://www.inkscape.org/namespaces/inkscape">
	<g id="g136">
		<g id="g28">
			<path fill="#A66425" d="M36,119.2c9,4.3,106.5,1.4,112.3,0.5c5.8-0.9,10.3-1.9,12-7.1c1.7-5.1,1.4-20.2,0.7-22.1
				c-0.7-1.9-2.7-3.8-2.7-3.8s1.9,1.5,2.6-3c0.6-4.5-0.8-37.7-0.9-41.7c-0.1-4-1.1-8.4-4.7-7.9c-3.7,0.4-124.6,14.4-124.6,14.4
				s0.4,8,0.8,13.6c0.4,5.6-1.7,24.7-1,28.8S27,114.9,36,119.2z"/>
			<path fill="#E6B075" d="M153.6,33.4c-5.6,0-20.2,2.2-26.7,2.3c0,0-35.4,1-45.8-0.5c-10.4-1.5-45.7-2.8-48.6-0.9
				c-2.8,1.8-2.1,21.3-2.1,21.3S36.5,54.8,41,55c4.5,0.3,12,0.9,12,0.9S40.7,56.8,37.6,57c-3.1,0.3-6.4,1-6.4,1s0.2,11.8,0,17.7
				c-0.2,5.8-0.7,12.9-0.7,12.9s3.7,2.2,11.3,2s27.6,1.3,27.6,1.3S52,93,48,93.1c-4.1,0-16.8-0.5-16.8-0.5s-0.9,12-0.1,16.8
				c0.9,4.8,2.9,6.2,7.8,6.8c4.9,0.6,63.4,1.7,74.9,1c11.5-0.7,34.5,2.2,40.9-3.5c6.4-5.7,4.9-21.9,3.8-24.3
				c-1.1-2.4-21.7-1.9-21.7-1.9s13.8-1.4,16.4-1.6c2.6-0.2,5-2,5-2s-1.1-35.5-0.8-41.6C157.7,36.1,159.2,33.4,153.6,33.4z"/>
			<path fill="#E0A465" d="M158.1,83.8c0,0-0.2-6.7-0.3-11.9c-7.9,3.4-20,8.7-60.1,26.1c-31.6,13.7-54.4,9.4-66.9,4.4
				c0,2.7,0,5.3,0.4,7c0.9,4.8,2.9,6.2,7.8,6.8c4.9,0.6,63.4,1.7,74.9,1c11.5-0.7,34.5,2.2,40.9-3.5s4.9-21.9,3.8-24.3
				c-1.1-2.4-21.7-1.9-21.7-1.9s13.8-1.4,16.4-1.6C155.7,85.6,158.1,83.8,158.1,83.8z"/>
			<path fill="#C68342" d="M100,117.4c-1.7-5.7-7.1-16-23.5-19.1c-5.7-1.1-11.6-1.5-17.1-1.4c-12.4,0.1-23.2,2.3-28.6,3.7
				c-0.1,2.2-0.1,4.6,0.1,6.5c5-1.7,14.9-4.7,24.9-5.6c14.2-1.3,29.8,3.3,36.9,9.3c3,2.5,3.3,4.8,2.7,6.6
				C97,117.4,98.5,117.4,100,117.4z"/>
			<path fill="#C68342" d="M158.4,106.7c-3.2,0.8-8.1,1.5-15.5,0.7c-14.8-1.6-28.8-3.9-34.7-7.2c-5.9-3.3-11.5-4.7-11.5-4.7
				s9.9,8.7,17,10.4c6,1.4,34.1,3.4,43.5,4.1C157.7,109,158.1,107.8,158.4,106.7z"/>
			<path fill="#C68342" d="M157.8,73.7c0-1.6-0.1-2.1-0.1-4c-8.2,0.3-21.4,0.6-30.4,0.4c-12.5-0.3-40.6,7.3-60.6,12.5
				c-12.2,3.1-26.4,2.1-35.8,0.7c-0.1,2.4-0.2,3.6-0.3,4.3c9.8,0.5,26.6,0.3,32.6-1c7.9-1.7,19.5-1.9,25.3-1
				c5.8,0.9,18.9,2.8,30.3,8.7c11.4,6,17.5,3.2,30.8,3.5c4.2,0.1,7.3,0.4,9.8,0.7c0-1.3,0-2.6-0.1-3.8c-8.6,0-20.9-0.2-27.7-1.1
				c-10.9-1.4-14.1-7.4-27.1-9.9c-13.1-2.5-26.3-0.8-26.3-0.8s27.8-7.3,40-8.9C127,72.8,147.3,73.4,157.8,73.7z"/>
			<path fill="#C68342" d="M107,117.3c1.7,0,3.2-0.1,4.5-0.1c1.4-1,3.6-1.7,7.3-1.6c3.7,0.1,7.9,0.8,11.7,1.5
				c5.9,0.1,12,0.1,16.7-0.7c-5-1.2-12.3-2.7-20.9-3.1c-1-0.1-2-0.1-2.9-0.1C114.4,113.3,109.4,115.7,107,117.3z"/>
			<path fill="#C68342" d="M121.1,50.3c7-1.5,25.6-2.1,36.2-2.4c0-1.5,0-2.7,0-3.7C144.4,45.2,125.3,47.2,121.1,50.3z"/>
			<path fill="#C68342" d="M48.3,108c-6.9,0.5-12,3.2-15.4,5.8c1.2,1.4,3,2,5.8,2.4c0.5-0.4,1-0.9,1.5-1.2c3.1-2.5,8.8-3.9,22.5-2.6
				c7.7,0.7,10.7,2.9,11.9,4.8c2.3,0,4.6,0.1,7,0.1c-5.8-5.3-18.7-9.6-30.4-9.4C50.1,107.9,49.2,107.9,48.3,108z"/>
			<path fill="#C68342" d="M30.4,52.1c5.2,0.1,13.7,0.5,21.6,1.8c12.2,2,13.9,6.6,37.8,5.2c-7.3,2.6-26.1,9.1-40,10.1
				c-7.6,0.6-14.1,0.3-18.4-0.1c0,1.6,0,2.9,0,4.3c6.8-0.4,18.1-1.2,25.7-2c10.3-1.1,32.1-10,44.1-11.9c12-1.9,43.6-3.5,50.7-3.7
				c1.7,0,3.7,0,5.6,0c0-1,0-2-0.1-2.9c-7.8,0.4-21.1,1-33.3,2.1c-16.6,1.5-49,3.3-67.5-2.8c-9.3-3-17.5-4-23.4-4.1
				c-1,0-1.9,0-2.8,0C30.3,49.6,30.3,51,30.4,52.1z"/>
			<path fill="#C68342" d="M53.9,40.2c-9.2-3.1-17.5-2.1-23.1-0.7c-0.2,1.3-0.3,2.7-0.3,4.2c9.7-2.2,24.6-0.7,31.5,3.2
				c8.2,4.6,25.7,3.3,39,1.2c13.3-2,25.5-6,36.5-7c7.3-0.7,15.2-0.6,19.9-0.4c0.1-1.2,0.2-2.3,0.3-3.2c-8.9,0.3-31.3,1.4-43.3,5.4
				C99.3,47.9,70.3,45.6,53.9,40.2z"/>
			<path fill="#C68342" d="M139.3,80.2c-4.6-0.2-9.2-1.1-13.8-1.3c-0.8,0-7.6-0.5-12.5-0.4c-3,0.1-5.3,0.3-5.3,0.9
				c0,0.7,1.5,0.1,2.2,0.1c2.8,0.1,5.2,1.2,8,1.6c2.4,0.4,5,0.1,7.4,0.6c10.5,2,20.4,2.1,31,1.4c0.4,0,1.1,0,1.8,0
				c0-0.2-0.1-3.5-0.1-4.5C151.8,79.7,145.6,80.5,139.3,80.2z"/>
			<path fill="#C68342" d="M131.9,60.9c-5.7,0.1-11.4,0.4-16.9,1.3c-3.8,0.6-7.4,2.1-11.1,2.8c-0.6,0.1,1.2,0,1.9-0.1
				c1.8-0.1,3.5-0.1,5.2,0c4.9,0.2,9.9-0.5,14.8-0.5c10.2,0,20.4,0.2,30.6,0.5c0.3,0,0.7,0.1,1.2,0.1c0-1.4,0-2.7-0.1-4.1
				C149.1,61.3,140.4,60.8,131.9,60.9z"/>
			<path fill="#C68342" d="M31.2,77.5c0,1.2-0.1,2.3-0.2,3.4c0.6-0.1,1.1-0.2,1.4-0.1c15.2,0.3,29.1-2.4,43.7-6.7
				c4.9-1.5,9.8-2.4,14.6-4.2c1.7-0.6,3.7-1,5.5-1.4c0.1,0,1.4-1,1.5-1.1c-1.3,0.7-13.1,1.7-14.5,2C66.2,73.4,48.8,81.1,31.2,77.5z"
				/>
			<path fill="#C68342" d="M97.1,35.9c-4.6,1.4-9.7,2.5-14.1,2.5c-6.8,0-10.4-2-13.6-4.3c-3.5-0.2-7.4-0.4-11.3-0.5
				c1.9,0.6,3.7,1.2,5.5,2.1c2.1,1,3.8,2.5,6,3.2c11.2,3.7,18.6,2.4,29.9-0.4c3.1-0.8,6.4-1.2,9.3-2.5C104.8,36,100.9,36,97.1,35.9z
				"/>
			<path fill="#A66425" d="M98.3,84.1c3.9,1.1,7.5,2.9,11.9,5.3c0,0,0.1,0,0.1,0c4.7,2.5,7.9,4.4,12,6.2c7.3,3.2,12.8,3.3,12.9,3
				c0-0.3-5.3-0.9-12.3-4.3c-3.5-1.7-7.5-4-11.8-6.4c0,0-0.1,0-0.1,0c-4.4-2.4-8.3-4.1-12.3-5.2c-8-2.1-13.6-0.1-13.6,0.2
				C85.2,83.2,90.7,81.9,98.3,84.1z"/>
			<path fill="#A66425" d="M93.2,59.7L93.2,59.7c7.4,0.3,13.1,0.1,17.9-0.8c4.5-0.8,7.2-1.8,7.1-2c-0.1-0.2-2.8,0.4-7.3,0.8
				c-5,0.5-10.2,0.6-17.7,0.3l0,0c-6.9-0.3-13.2-0.8-17.8-0.9c-4.6-0.1-7.4,0.1-7.4,0.3c0,0.2,2.8,0.4,7.4,0.8
				C78.7,58.5,87.4,59.4,93.2,59.7z"/>
			<path fill="#A66425" d="M94.1,108.5c2.2,2.3,3.4,5,4.6,6.6c1.2,1.7,2.1,2.4,2.2,2.3c0.1-0.1-0.5-1-1.5-2.8
				c-0.6-1.1-2.4-5-4.2-7.2c-2-2.4-4.8-4.4-8.3-5.9c-1.9-0.8-3.8-1.3-5.6-1.7c-9-1.8-15.7-0.3-15.7,0.1h0c0,0.4,6.8-0.4,15.3,1.5
				c1.7,0.4,3.5,0.9,5.3,1.7C89.5,104.6,92.1,106.4,94.1,108.5z"/>
		</g>
		<g id="g29">
			<path fill="#A66425" d="M188.1,60.9c1,7,1,17.8,1,17.8l21.8,1.3l-21.4,1.2c0,0-0.1,4.9,0.7,10.6c0.8,5.7-4,15.4-0.8,19.3
				c3.2,3.9,52.5,0.9,54.7,1.2c2.2,0.2-3.3,9.6,1.1,12.8c4.4,3.2,50-31.8,56.6-46.1c0.9-1.1,1.1-3.6-0.3-4.9
				c-18.9-17.3-56.1-42.6-56.1-42.6l-0.9,14.4c0,0-52.7-4.3-55.4,1.9h0C189.1,47.7,187.1,54,188.1,60.9z"/>
			<path fill="#E6B075" d="M245.2,120.4c4.4,3.2,50-31.8,56.6-46.1c-22.7-31.9-56.4-47.5-56.4-47.5l-0.9,14.4c0,0-52.7-4.3-55.4,1.9
				h0c0,0-2,6.3-1,13.2c1,7,1,17.8,1,17.8l21.8,1.3l-21.4,1.2c0,0-0.1,4.9,0.7,10.6c0.8,5.7-4,15.4-0.8,19.3s52.5,0.9,54.7,1.2
				C246.3,107.9,240.8,117.2,245.2,120.4z"/>
			<path fill="#E0A465" d="M245.2,120.4c4.4,3.2,50-31.8,56.6-46.1c-4.2-5.9-8.8-11.3-13.5-16.1c-12,9.3-33.3,24.5-54.5,32.3
				c-20.6,7.6-36,5.9-44.2,3.7c-0.9,4.7-2.2,9.7-0.1,12.2c3.2,3.9,52.5,0.9,54.7,1.2C246.3,107.9,240.8,117.2,245.2,120.4z"/>
			<path fill="#C68342" d="M195.1,40.6c-3.3,0.5-5.5,1.3-6,2.5c0,0,0,0,0,0c9.9,0.4,21.2,1,26.3,2.1
				C212.7,43.2,204.3,41.7,195.1,40.6z"/>
			<path fill="#C68342" d="M280.7,96.3c0.3,0,0.7,0.1,1,0.1c1.6-1.4,3.2-2.8,4.8-4.3c-3-0.3-6.1-0.5-9.4-0.5v0
				c-5.5-0.1-11.4,0.3-17.1,1.4c-12.7,2.4-18.8,9.1-21.7,14.7c1.4-0.1,2.7-0.1,3.6-0.1c0.5-0.7,1.1-1.3,1.9-2
				C250.9,99.6,266.5,95,280.7,96.3z"/>
			<path fill="#C68342" d="M187.9,50.8c10,0.4,36.5,1.9,47.5,3.6c12,1.9,33.8,10.9,44.1,11.9c5.1,0.5,11.4,1,17.3,1.4
				c-0.9-1.1-1.8-2.2-2.8-3.3c-2.3,0-4.7-0.1-7.3-0.3c-13.9-1.1-32.7-7.5-40-10.1c20.2,1.2,24.6-1.9,32.8-4.1
				c-0.8-0.7-1.5-1.3-2.3-2c-18.8,5.1-49,3.4-64.8,2c-8.3-0.7-17.1-1.3-24.3-1.6C188,49.1,187.9,49.9,187.9,50.8z"/>
			<path fill="#C68342" d="M271.2,43.1c-1.9-1.5-3.9-2.9-5.7-4.2c-6.8,1-14.1,1.6-21,1.6l0,0.6c0,0-11.9-1-24.7-1.3
				c5.1,1.1,10.3,2.3,15.7,3.1C247.2,44.7,262.2,46,271.2,43.1z"/>
			<path fill="#C68342" d="M262.1,111.8c0.7-1,2-2.1,4.1-3c2-1.5,4.1-3,6.2-4.7c-7.2,1.7-13.7,4.6-17.4,7.9c2.3,0,4.5-0.1,6.8-0.1
				C261.9,112,262,111.9,262.1,111.8z"/>
			<path fill="#C68342" d="M295.9,82.7c1.1-1.3,2.2-2.6,3.1-3.7c-8.8,0.8-19.6,1-29.2-1.5c-20-5.2-48.1-12.8-60.6-12.5
				c-5.9,0.1-13.4,0-20.2-0.1c0.1,1.2,0.1,2.3,0.1,3.4c10.4-0.2,22.8-0.3,29.3,0.6c12.2,1.7,40,8.9,40,8.9s-13.3-1.7-26.3,0.8
				c-13.1,2.5-16.2,8.5-27.1,9.9c-3.7,0.5-9.1,0.7-14.6,0.9c-0.1,1-0.2,2.2-0.4,3.3c11.3,0,17.2,2,27.8-3.5
				c11.4-6,24.6-7.8,30.3-8.7c5.8-0.9,17.4-0.7,25.3,1C277.5,82.3,287.1,82.7,295.9,82.7z"/>
			<path fill="#C68342" d="M207.1,108.5c3.3,0,6.9,0,10.4-0.1c-1.3-0.1-2.8-0.2-4.4-0.2c-0.9,0-1.9,0-2.9,0.1
				C209.1,108.3,208.1,108.4,207.1,108.5z"/>
			<path fill="#C68342" d="M239.7,90.4c0,0-5.5,1.4-11.5,4.7s-19.9,5.6-34.7,7.2c-1.9,0.2-3.7,0.3-5.2,0.3c0,0.6,0.1,1.1,0.2,1.6
				c12.2-0.9,29.6-2.4,34.2-3.4C229.9,99.1,239.7,90.4,239.7,90.4z"/>
			<path fill="#C68342" d="M189.8,83.3c0.1,1,0.2,2.1,0.3,3.2c4.7-0.4,10.1-1,13.6-1.8c7-1.6,11.5-7.5,20.9-11.6
				c-0.7-0.1-1.3-0.1-1.9-0.1c-9.4,0.2-15.2,8.3-24.4,9.8C195.1,83.4,192.2,83.4,189.8,83.3z"/>
			<path fill="#C68342" d="M301.8,74.3c-0.4-0.6-0.9-1.2-1.3-1.8c-3.3,0.7-8,1.3-13.6,1c-12.2-0.7-34.6-9.9-58.3-14.7
				c-13.3-2.7-26-3.2-34.5-3.1c-2.4,0-4.4,0.1-6,0.2c0,0.2,0,0.3,0.1,0.5c0.2,1.2,0.3,2.5,0.4,3.9c9-0.7,24.1-1.6,32.9,0.1
				c12.9,2.5,38.5,10.4,52.4,14c9.9,2.5,21.2,2.2,27,1.8C301.2,75.4,301.6,74.9,301.8,74.3z"/>
			<path fill="#C68342" d="M256.9,86.5c-10,1.2-12.8,3.3-12.8,3.3s31.3-2.1,45.7-0.9c1-1,2-1.9,2.9-2.9c-4-0.1-9.2-0.2-15.3-0.2
				C269.5,85.8,261.3,85.9,256.9,86.5z"/>
			<path fill="#A66425" d="M230,81.1c3.2-1,6.7-1.6,10.6-2c2.7-0.2,5.3-0.3,7.8-0.4c10.8-0.1,18.7,1.2,18.8,0.8
				c0.1-0.4-7.8-2.4-18.8-2.4c-2.5,0-5.2,0-7.9,0.3c-4,0.4-7.6,1.1-10.9,2.2c-4.1,1.4-8.3,3.8-10.3,4.9c-2.4,1.3-3.8,2.1-3.8,2.3
				c0.1,0.2,1.6-0.3,4.2-1.5C221.5,84.5,226.4,82.2,230,81.1z"/>
			<polygon fill="#A66425" points="218,59.2 218,59.2 218,59.2 			"/>
			<path fill="#A66425" d="M237.9,63.5L237.9,63.5c6.1,1.9,9.6,3.1,14,4.1c3.7,0.8,6,1,6,0.7c0-0.2-2.2-0.8-5.7-1.9
				c-4.6-1.4-9.2-3.1-13.8-4.5l0,0c-5.7-1.8-10.3-2.7-14.4-3c-3.7-0.2-6.1,0.1-6.1,0.4c0,0.2,2.3,0.3,5.9,0.8
				C228,60.7,232.1,61.7,237.9,63.5z"/>
		</g>
		<g id="g33">
			<path fill="#A66425" d="M459.2,51.3l-0.5-23.9c0,0-1.3-4.9-2.8-4.8C439.4,23.5,345.3,33.6,323,35.2l-0.6,32.9l2.6,4.9
				c0,0,24.7,4,37.6,1.9c-17.5,6.5-35.9,4.3-35.9,4.3l-3.7,34.8l2.6,4.9c0,0,36.4,0.4,58.2,0.3c21.8-0.1,82.4-1.5,82.4-1.5
				l-1.4-23.3l-2.3-4.3l-0.2-0.1l-1.7-32.2c0,0-1.9-4.6-3-4.7c-7-0.8-30.3,1-27.9,0.7C432.6,53.5,459.2,51.3,459.2,51.3z"/>
			<path fill="#E6B075" d="M456.4,46.3l-0.5-23.9c0,0-111.3,6.1-135.6,7.8l2,37.9c0,0,24.7,4,37.6,1.9c-17.5,6.5-35.9,4.3-35.9,4.3
				l-1.1,39.7c0,0,36.4,0.4,58.2,0.3c21.8-0.1,82.4-1.5,82.4-1.5l-1.4-23.3h-33.4l30.9-4.4l-1.7-32.2c0,0-33.8-3.7-30.9-4
				C429.8,48.5,456.4,46.3,456.4,46.3z"/>
			<path fill="#E0A465" d="M458.5,64.8c-35.6,23.9-104.2,25.7-135,25.2l-0.7,23.9c0,0,36.4,0.4,58.2,0.3c21.8-0.1,82.4-1.5,82.4-1.5
				l-1.4-23.3h-33.4l30.9-4.4L458.5,64.8z"/>
			<path fill="#C68342" d="M375.8,53.1c1.9,0.1,9.4,0.8,10.3-2.4c0.8-2.7-5.3-3-8.8-3c-1.1,0-2,0.1-2.2,0.1
				c-14,0.7-28.3,0.7-42.2,2.4c-1.3,0.2-7.3,2-11.4,3.2l0.4,8.2c3.9-1.1,8.8-2.3,9.1-2.4C345.9,56,360.4,52.6,375.8,53.1z"/>
			<path fill="#C68342" d="M459.4,81.4l-0.2-4.4c-6.3-1.6-12.4-4.8-18.7-6.5c-9.4-2.6-20.1-4.1-30.3-4.1c-3.4,0-6.7,0.1-9.9,0.4
				c-23,2.3-40.4,12.1-64.5,10.2c-1.9-0.2-9.6,1.8-10.6,1c-0.3-0.3,0.7-1.9,0.7-2.1c0.3-0.6,0.4-1,0.6-1.5c-1.5-0.1-2.5-0.2-2.5-0.2
				l-1.1,39.7c0,0,36.4,0.4,58.2,0.3c21.8-0.1,82.4-1.5,82.4-1.5l-0.7-12.1c-8.4-0.6-17.4,1.4-25.4,3.5c-9.4,2.5-18.7,8-28.5,7.9
				c-18.8-0.2-37.1-9-55.9-9c-2.7,0-21.6,6-21.7,5.7c-0.2-0.4,1-1.5,1.2-1.7c5.4-6.7,13-10.1,21.1-10.5c16.7-0.7,31.5,4.7,47.8,4.3
				c10-0.2,20.8-1.6,30.6-3.5c4.4-0.8,8.5-2.9,13-3.2c5.7-0.3,11.7-0.8,17.5-0.1l-0.2-2.7c-11.8-1-23.7-0.2-35.4,1.8
				c-5.3,0.9-10.6,2.6-16,3.1c-27.7,2.7-57.4-11.4-83.2,3.7c-1.1,0.7,0.8-2.7,1.1-4.1c0.6-2.8,0.9-5.3,1.1-8.1c0-1.1-1-3-0.1-3.4
				c9.9-4,21.6-2.8,32-4.9c7.3-1.5,14.3-4.4,21.6-6c16.5-3.6,33.2-3.1,49.8-0.4C442.1,74.5,450.6,78.4,459.4,81.4z"/>
			<path fill="#C68342" d="M427.2,77.9c0-0.4-2.8-1.3-3-1.5c-5.1-0.8-10.4-1.3-15.6-1.3c-1.7,0-3.5,0.1-5.2,0.2
				c-5.4,0.3-10.7,1.2-15.9,2.9c-1.1,0.3-8.8,1.9-8.4,3.9c0.5,2.4,7.3,1,8.7,0.9c11.2-0.8,22.4,1.2,33.5-1.2
				C422.3,81.5,427.3,80.2,427.2,77.9z"/>
			<path fill="#C68342" d="M425.3,62c-5.2-1.8-9.8-2.5-13.9-2.5c-4.6,0-8.5,0.9-11.8,2.3C417.2,61.6,425.3,62,425.3,62z"/>
			<path fill="#C68342" d="M373.7,87.9c14.7,6.7,21.4,6.8,38.6,1.7C394.3,92.9,373.7,87.9,373.7,87.9z"/>
			<path fill="#C68342" d="M445.9,45.2c-1.2-0.1-5.4-1.2-8.6-1.1c-1.9,0-3.4,0.5-3.7,1.8c-0.2,0.8,0.3,1.6,1.1,2.2
				c8.7-0.7,21.6-1.8,21.6-1.8l0-1.3C451.5,45.2,447.3,45.3,445.9,45.2z"/>
			<path fill="#C68342" d="M454.4,61.1c-15.7-4-27.9-8-41.6-8.2c-0.9,0-1.8,0-2.8,0c-6.7,0.2-13.9,1.3-22,3.8
				c-9.6,3-19.1,7.8-29.2,8.7c-10,0.9-24.7-2.3-34.6,2.9c2.5,0.4,8,1.1,15.3,1.7c14.2-1.2,28.4-0.2,42.2-5.8
				c11.5-4.7,24.1-10.1,36.7-8.3c13.8,2,26.7,10.3,40.1,13.9c0.1,0,0.1,0,0.2,0.1l-0.4-7.7C457,61.8,455.7,61.4,454.4,61.1z"/>
			<path fill="#C68342" d="M449.4,35.9c-40.3,1.1-80.8,4.6-120.9,6.6c-1.5-2.8-3.5-7.7-5.4-12.5c-0.8,0.1-2.2,0.1-2.9,0.2l1,18.7
				c1.3-0.4,2.8-0.6,4.2-1c18-4.7,36.8-2,55.2-4.5c6.2-0.8,12.3-0.6,18.6-1.1c16.5-1.3,32.9-3.4,49.5-3.6c0.9,0,4,0.1,7.5,0.2
				l-0.1-3.7C453,35.6,450.4,35.9,449.4,35.9z"/>
			<path fill="#C68342" d="M440.3,50.7C440.3,50.7,440.3,50.7,440.3,50.7c2.8,1,10.3,2,17.6,2.7l0-0.7
				C457.9,52.7,448.7,51.7,440.3,50.7z"/>
			<polygon fill="#C68342" points="334.4,35.2 456,28.2 456,25.6 			"/>
			<path fill="#A66425" d="M369.7,66.6c2.9-0.5,6.2-1.5,10.6-3.6c3.6-1.6,9.2-4.6,13.9-6c2-0.6,4-1.1,6.1-1.4
				c9.8-1.6,19.1-0.3,25.6,1.2c6.5,1.5,10.4,2.9,10.5,2.7c0.1-0.2-3.7-2.1-10.2-3.8c-6.5-1.8-16-3.3-26.2-1.6
				c-2.2,0.4-4.3,0.9-6.3,1.5c-5.1,1.6-10.5,4.6-14,6.4c-4.4,2.2-7.4,3.3-10.2,4c-2.5,0.6-4,0.8-4,0.9h0
				C365.5,66.9,367,67,369.7,66.6z"/>
			<path fill="#A66425" d="M432.1,68.9c4.8,0.5,7.7,1,7.8,0.8c0.1-0.2-2.8-1.2-7.6-2c-5-0.9-11.2-1.4-18.9-1.3
				c-14.8,0.2-26.7,2.5-26.7,2.9c0.1,0.5,12-1.1,26.7-1.3C421.1,67.9,427,68.3,432.1,68.9z"/>
			<path fill="#A66425" d="M419.3,96.7c5.2-1.4,8.2-2.9,8.1-3.1c-0.1-0.2-3.2,0.9-8.4,1.9c-5.4,1.1-12.1,2-20.4,1.9
				c-8.1-0.1-15.5-1.1-20.8-1.9c-5.3-0.8-8.5-1.5-8.6-1.2c-0.1,0.5,12.9,4.7,29.3,4.8C407.1,99.3,414,98.2,419.3,96.7z"/>
			<path fill="#A66425" d="M365.7,108.2L365.7,108.2c4.9,0.3,8.4,0.8,11.6,1.5c2.9,0.6,4.7,1.1,4.8,0.9c0.1-0.2-1.6-1.2-4.5-2.1
				c-3.1-1-6.9-1.7-11.8-2l0,0c-4.5-0.3-9-0.1-11.8,0c-3,0.2-4.9,0.4-4.9,0.6c0,0.2,1.9,0.5,4.9,0.6
				C357,107.9,361.1,107.9,365.7,108.2z"/>
			<path fill="#A66425" d="M453.4,102.9c3.1-0.6,5-0.9,5-1.1c0-0.2-2-0.4-5.2,0c-3.3,0.3-7.4,1.1-12.2,2.5
				c-9.3,2.8-16.5,6.2-16.3,6.6h0c0.2,0.4,7.6-2.2,16.8-5C446.5,104.4,450.1,103.5,453.4,102.9z"/>
			<path fill="#A66425" d="M398.1,40.8L398.1,40.8c10.7-0.9,17.7-1.4,25-1.6c6.4-0.2,10.4,0,10.4-0.3c0-0.2-3.9-0.8-10.4-0.9
				c-7-0.2-14.8,0.2-25.2,1.1l0,0c-9.8,0.9-18.6,1.9-25,2.5s-10.3,1-10.3,1.2c0,0.2,4,0.3,10.4,0C380.8,42.4,387.2,41.8,398.1,40.8z
				"/>
		</g>
		<g id="g37">
			<path fill="#A66425" d="M68.3,234.8c28.7,13.4,61,6.4,83.8-17.6c22.8-24,19.7-61.9-29.1-70.7c-20.8-5.3-48.7-3.9-64.9,4.4
				c-16.2,8.3-30.8,19.9-27.1,39.5C34.6,210,39.6,221.4,68.3,234.8z"/>
			<path fill="#E6B075" d="M68.1,229.8c28.7,13.4,61,6.4,83.8-17.6c22.8-24,19.7-61.9-29.1-70.7c-20.8-5.3-48.7-3.9-64.9,4.4
				c-16.2,8.3-30.8,19.9-27.1,39.5C34.4,205,39.4,216.4,68.1,229.8z"/>
			<path fill="#E0A465" d="M151.8,212.2c14.7-15.4,18.6-36.7,6.5-52.2c-6.4,12.7-20.4,31.3-51.3,47.1c-25.5,13.1-47.4,11.9-63,7.3
				c5.3,5.2,12.9,10.1,24,15.3C96.7,243.2,129.1,236.2,151.8,212.2z"/>
			<path fill="#C68342" d="M30.3,182.7c4.5-0.4,8.9-0.5,13.4-1.6c12.8-3.2,24.9-10.3,38-12c11.9-1.6,23.9,3.1,34.8,7.2
				c14.8,5.5,30,3.7,45.3,5.5c1.8,0.2,2.9,0.3,3.8,0.3c0-1.4,0-2.7-0.1-4.1c-8.8-1.9-19.6-0.1-27.4-0.7c-9.5-0.8-18.5-4.9-27.6-7.5
				c-7.7-2.2-14.5-3.1-20.8-3.3c-0.9,0-1.7,0-2.6,0c-12.9,0.2-24.4,3.6-39.3,7c-4.6,1.1-9.3,2.4-14,2.9c-1,0.1-2.6,1.4-3.4,1.5
				C30.1,179.6,30.1,181.1,30.3,182.7z"/>
			<path fill="#C68342" d="M32.8,167.7c8.2-0.2,23.9-1.7,28.1-3c1.2-0.4,24.9-1.5,24.3-3.8c-0.3-1.1-19.7-1.9-21.5-1.9
				c-3-0.1-7,0.9-8.1,0.9c-1.9,0.1-9.4-0.1-17.1-0.3C36.2,162,34.2,164.7,32.8,167.7z"/>
			<path fill="#C68342" d="M100.6,160.7c-3,0-5,0.2-4.8,0.9c0.9,2.8,24.4,5,26.2,5c14.5-0.4,28.2,2.5,42.3,5.3
				c-0.7-2.7-1.8-5.4-3.3-8c-12.7-1.3-25.7-1.3-38.4-1.9c-0.2,0-1-0.1-2.1-0.1C118.3,162,107.1,160.8,100.6,160.7z"/>
			<path fill="#C68342" d="M48.2,151.5c-1.5,1-2.9,2-4.2,3c3.8-0.1,8.1-0.3,9-0.2c15.7,0.2,31.2,2,46.9,3.1
				c5.9,0.4,11.7,0.2,17.6,0.9c13.6,1.7,27.5,0.6,41.2,2c-0.9-1.2-1.8-2.3-2.9-3.4c-34.3-1.8-68.9-4.3-103.4-5.1
				C51.7,151.8,49.9,151.7,48.2,151.5z"/>
			<path fill="#C68342" d="M132,143.7c-1.8-0.5-3.6-1-5.5-1.4c-4.9,2.4-11.5,4.4-19.5,4c-14.3-0.8-25.1-1.8-31.1-6
				c-3.3,0.6-6.4,1.4-9.3,2.3c4.2,2.1,11.9,4.4,26.2,5.8C110.1,150,123.3,147,132,143.7z"/>
			<path fill="#C68342" d="M151.8,212.2c0.2-0.2,0.4-0.4,0.6-0.7c-3.9-1-7.7-1.9-8.8-1.9c-17.8,0-35.2,7.6-53,7.8
				c-9.3,0.1-18.1-4.7-27-6.8c-7.1-1.7-15.1-3.3-22.6-3.1c-0.9,0-1.8,0.1-2.7,0.2c0.7,1.1,1.5,2.2,2.4,3.2c4.7-0.5,11-0.1,18,3.1
				c14.5,6.5,33.1,9.8,51.2,5.7c14-3.2,31.4-4.1,38.8-4.4C149.9,214.3,150.9,213.3,151.8,212.2z"/>
			<path fill="#C68342" d="M79,191.4c10.5,2.1,21.1,0.3,31.7,1c1.3,0.1,7.7,1.3,8.2-0.8c0.4-1.7-6.9-3-8-3.3
				c-4.9-1.4-10-2.2-15.1-2.5c-1.6-0.1-3.3-0.1-4.9-0.1c-4.9,0-9.9,0.4-14.7,1.1c-0.2,0.1-2.8,1-2.8,1.3C73.2,190,78,191.2,79,191.4
				z"/>
			<path fill="#C68342" d="M158.7,203.3c-22.2-6.6-46.8,2.5-69.9,0.5c-5.1-0.4-10.1-1.9-15.1-2.7c-7.2-1.1-14.5-1.9-21.8-2
				c-1.1,0-2.2,0-3.3,0c-3.3,0-6.6,0.2-9.8,0.5c-0.9,0.1-2.5,0.2-4.2,0.4c0.4,0.9,0.8,1.9,1.2,2.8c0.7-0.3,1.3-0.6,1.9-0.7
				c6.2-1.1,12.7-0.6,18.9-0.2c4.3,0.2,8.1,2,12.3,2.7c9.3,1.6,19.5,2.8,28.9,3c15.4,0.3,29.4-4.3,45.2-3.7
				c4.6,0.2,8.9,1.3,12.8,3.4C156.9,206.1,157.9,204.7,158.7,203.3z"/>
			<path fill="#C68342" d="M164.8,187.9c-2-0.3-4-0.6-4.9-0.6c-22.8,1.6-39.3-6.8-61.1-8.8c-3-0.3-6.2-0.4-9.4-0.4
				c-9.6,0-19.7,1.3-28.7,3.6c-6.2,1.5-12.1,4.4-18.2,5.8c-3.8,0.8-7.4,1.4-11.1,1.5c0.3,1.6,0.7,3.2,1.1,4.7
				c12.1-2,23.2-8,35.3-9.8c15.7-2.4,31.5-2.8,47.1,0.3c6.9,1.4,13.5,3.8,20.5,5.1c9.1,1.7,19.3,0.9,28.2,3.6
				C164.1,191.2,164.5,189.5,164.8,187.9z"/>
			<path fill="#C68342" d="M78.3,222.7c-12.4-3-23-4.2-30.1-4.6c1.4,1.1,2.9,2.2,4.6,3.3c19.5,3.9,38.4,6.7,58.4,6.2
				c8-0.2,16-1.8,24-1.9c1.1-0.7,2.2-1.4,3.2-2.1c-3.8-0.3-8.5-0.6-13.8-0.7C112.6,222.7,100.4,228.1,78.3,222.7z"/>
			<path fill="#A66425" d="M63.9,173.1c6.3-1.7,10.9-2.5,15.2-3.1c3.9-0.5,6.4-0.7,6.4-0.9c0-0.2-2.5-0.5-6.5-0.3
				c-4.2,0.3-9.3,1.1-15.5,2.7c-5.7,1.5-11.5,3.5-15,4.8c-3.8,1.4-6.1,2.3-6,2.5c0.1,0.2,2.5-0.3,6.4-1.4
				C52.7,176.3,58.1,174.7,63.9,173.1z"/>
			<path fill="#A66425" d="M100.8,181.6c14.4,1.1,25.8,4.6,25.9,4.2c0.1-0.5-11-4.7-25.8-5.8c-14.8-1.2-26.5,1.2-26.5,1.6h0
				C74.5,181.9,86.3,180.4,100.8,181.6z"/>
			<path fill="#A66425" d="M75.1,203.6c4.9,1,12.1,2.3,19.8,3l0.2,0c8.2,0.7,14.5,0.5,19.9-0.5c5-0.9,7.9-2.3,7.8-2.5
				c-0.1-0.2-3,0.8-8,1.4c-5.5,0.7-11.3,0.6-19.6,0c0,0-0.2,0-0.2,0c-7.5-0.6-14.9-1.7-19.7-2.5c-5-0.7-8.2-1.2-8.2-0.9l0,0
				C67,201.7,70.1,202.6,75.1,203.6z"/>
		</g>
		<g id="g44">
			<path fill="#A66425" d="M174.9,174c-3.4,4.9,0.4,23.9,2.5,32.5c2.1,8.6,12.2,3.2,16.4,6.1c4.1,2.9-0.1,10.4,7.2,15.4
				c7.4,4.9,76.7,6.8,83.9,5.5c7.2-1.3,6-9.3,13.8-14.1c7.8-4.8,15.5-3.6,17.5-10.9c2-7.3,1.8-18.9-1.6-25.2
				c-3.4-6.3,4.6-12.2-0.7-20.7c-3.8-6.1-34.6-2.9-39.9-5.7c-5.4-2.8-4.9-8.1-12.2-12.1c-7.4-4-47.4-4.8-60.3-3.7
				c-12.9,1.1-9.2,7.5-8.6,14.3v0c0.8,3.3-1.6,8.3-3.1,11.8C188.4,170.7,178.3,169.1,174.9,174z"/>
			<path fill="#C68342" d="M175.5,172.4c-3.4,4.9,1.2,20,3.3,28.6c2.1,8.6,11,4.1,15.1,7c4.1,2.9-0.1,10.4,7.2,15.4
				c7.4,4.9,76.7,6.8,83.9,5.5c7.2-1.3,6-9.3,13.8-14.1c7.8-4.8,15.5-3.6,17.5-10.9c2-7.3,1.8-18.9-1.6-25.2
				c-3.4-6.3,2.6-11.3-1.3-17.4c-3.9-6-34-6.3-39.4-9.1c-5.4-2.8-4.9-8.1-12.2-12.1c-7.4-4-45.2-0.9-58.1,0.2
				c-12.9,1.1-11.4,3.6-10.8,10.4c0.8,3.3-1.6,8.3-3.1,11.8C188.6,166.1,178.9,167.5,175.5,172.4z"/>
			<path fill="#E6B075" d="M262.9,179.8c0,0.2,7.3-0.4,12.5-1.9c7.5-2.1,14.6-3.5,22-6c2.9-1,10.6-3.8,17.4-7
				c-0.1-1.2-0.5-2.3-1.3-3.6c-0.9-1.3-3.1-2.4-6-3.3c-0.3,0.3-0.6,0.5-0.9,0.8c-7.4,6.6-15.9,8.7-25.6,11.1
				C277.8,170.7,262.9,179.8,262.9,179.8z"/>
			<path fill="#E6B075" d="M190,162.6c-1,2.5-6.1,4-10.3,6.3c2.4,0.6,5,0.5,6.9,1.5c27.6,14.4,48,12.1,71.3,7.1
				c9.1-2,17.4-8.8,25.9-12.5c5-2.2,10-5.1,14-8.9c-7.3-1.1-15.4-1.8-20.2-2.8v0c-7,3-14.6,4.3-21.9,6.2c-4.6,1.2-9.1,3.1-13.8,3.8
				c-5,0.7-10,0.5-15,0.5c-13.6,0.2-24.4-0.2-36.5-2.5C190.4,161.8,190.2,162.2,190,162.6z"/>
			<path fill="#E6B075" d="M203.8,140.3c-9.8,0.8-11.3,2.5-11.1,6.3c13.2-0.7,29.6-5,39.1-8.1C220.8,139,209.7,139.8,203.8,140.3z"
				/>
			<path fill="#E6B075" d="M207.7,160.6c21-0.3,39.3,1.8,57.9-12.2c1-0.8,2.4-0.7,3.6-1c-1.6-2.4-3.3-5-7.3-7.2
				c-0.5-0.3-1.2-0.5-2-0.7c-3.7,1.1-7.4,2.2-11,3.2c-12.4,3.2-25.4,5.8-38.1,7.4c-5.7,0.7-11.8,0.9-17.8,0.6c0,0,0,0.1,0,0.1
				c0.4,1.9-0.2,4.4-1.1,6.8C197,157.9,202.8,160.6,207.7,160.6z"/>
			<path fill="#E6B075" d="M285.1,228.9c2.1-0.4,3.4-1.3,4.5-2.5c-5.6,0.2-13.1,1.3-19.9,2.9C277.5,229.3,283.3,229.2,285.1,228.9z"
				/>
			<path fill="#E6B075" d="M216.3,220.3c-5.6,0-11.2,0.8-16.8,1.7c0.5,0.5,1.1,1,1.7,1.4c1.1,0.7,3.7,1.4,7.1,2
				c14-2.4,28.5-2.2,42.2-5.5c2-0.5,9.3-1,10.6-3c1.6-2.5-6.4-2.9-10.7-3v0c-1.4,0-2.4,0-2.5,0c-15.8,0.8-35.7-1-50.8,2.7
				c-0.1,0-0.2,0.1-0.4,0.1c0.3,1.2,0.7,2.4,1.4,3.6c8.3-0.6,18.2-1.6,19.9-1.6c0.4,0,8.8-0.2,8.5,0.7
				C226.1,220.7,217.4,220.3,216.3,220.3z"/>
			<path fill="#E6B075" d="M178.1,198.3c2.6,0.1,5.3-0.5,7.9-1.1c26.7-6,48.4-0.9,74.8-1.8c11.3-0.4,22.8-3.5,33.7-6.3
				c7.3-1.9,14.7-4,22-6.4c-0.4-1.4-0.9-2.8-1.6-3.9c-0.9-1.7-1.1-3.2-1.1-4.8c-5.4,1.9-10.7,2.2-16.2,3.7
				c-23.3,6.3-46.9,10.6-71.1,7.9c-5.3-0.6-9.8-1.9-14.9-3c-9.1-2-18.6-2.8-27.8-4.3c-1.1-0.2-5.2-1-9.4-2
				C173.8,182,176.3,191.3,178.1,198.3z"/>
			<path fill="#E6B075" d="M317.4,187.6c-1.4,0.6-2.7,1.3-3.9,1.7c-12.8,5.2-30.1,9.1-43.9,9.1c-0.5,0,1,0.1,1.5,0.1
				c2.1,0.2,4.2,0.7,6.3,1.1c5.7,1.2,11.4,1.9,17.2,2c7.8,0.1,15.5-2.3,23-4.4C317.8,194.2,317.8,190.8,317.4,187.6z"/>
			<path fill="#E6B075" d="M291.9,223.1c1.6-2.8,3.2-5.9,7.1-8.3c5.7-3.5,11.3-3.8,14.7-6.5c-2.8,0.1-5.5,0.1-8.3,0
				c-15.4-0.5-30.3-3.3-45.5-5.3c-17.2-2.3-34.8-2.8-52.1-3v0c-9.3-0.1-18.5,1.5-27.5,4.1c0,0-0.1,0.1-0.2,0.1
				c3.3,4.5,10.3,1.6,13.8,4c1.8,1.2,2,3.4,2.3,5.8c18.6-4.8,42.6-5.8,58.9-4.1c2,0.2,19.4,1.8,19.2,4.7c-0.2,3.7-5,4.4-7.7,5
				c-13.6,3.1-27.8,6.2-41.9,8c9.5,0.8,20.4,1.3,30.4,1.6c6.6-1.7,13.2-3.4,19.9-4.6c5.1-1,10.6-1.1,15.8-1.3
				C291.2,223.1,291.6,223.1,291.9,223.1z"/>
			<path fill="#E0A465" d="M240.7,205.5c-22.1,0.5-37-1.6-47.2-4.6c-4.5,0.7-8.9,1.7-13.2,3c0,0-0.1,0.1-0.2,0.1
				c3.3,4.5,10.3,1.6,13.8,4c1.8,1.2,2,3.4,2.3,5.8c18.6-4.8,42.6-5.8,58.9-4.1c2,0.2,19.4,1.8,19.2,4.7c-0.2,3.7-5,4.4-7.7,5
				c-13.6,3.1-27.8,6.2-41.9,8c9.5,0.8,20.4,1.3,30.4,1.6c6.6-1.7,13.2-3.4,19.9-4.6c5.1-1,10.6-1.1,15.8-1.3c0.3,0,0.6,0,1,0
				c1.6-2.8,3.2-5.9,7.1-8.3c5.7-3.5,11.3-3.8,14.7-6.5c-2.8,0.1-5.5,0.1-8.3,0c-15.2-0.5-30-3.2-45-5.2
				C254.4,204.5,247.9,205.4,240.7,205.5z"/>
			<path fill="#E0A465" d="M286.6,191.1c2.7-0.7,5.3-1.4,7.9-2c7.3-1.9,14.7-4,22-6.4c-0.4-1.4-0.9-2.8-1.6-3.9
				c-0.9-1.7-1.1-3.2-1.1-4.8c-4,1.4-8,2.4-12.1,3.5C297.5,182.3,292.5,187,286.6,191.1z"/>
			<path fill="#E0A465" d="M313.6,161.4c-0.1-0.2-0.2-0.3-0.4-0.4c-1.1,2.1-2.4,4.2-3.9,6.4c1.9-0.8,3.7-1.6,5.6-2.4
				C314.7,163.8,314.4,162.6,313.6,161.4z"/>
			<path fill="#E0A465" d="M272.7,198.8c1.6,0.2,3.1,0.6,4.6,0.9c5.7,1.2,11.4,1.9,17.2,2c7.8,0.1,15.5-2.3,23-4.4
				c0.3-3.2,0.2-6.6-0.2-9.7c-1.4,0.6-2.7,1.3-3.9,1.7c-11.5,4.7-26.7,8.3-39.7,9C273.4,198.5,273.1,198.7,272.7,198.8z"/>
			<path fill="#E0A465" d="M178.1,198.3c2.1,0.1,4.2-0.3,6.3-0.7c-3.3-1.6-5.8-3.2-7.7-4.7C177.2,194.8,177.7,196.6,178.1,198.3z"/>
			<path fill="#E0A465" d="M285.1,228.9c2.1-0.4,3.4-1.3,4.5-2.5c-5.6,0.2-13.1,1.3-19.9,2.9C277.5,229.3,283.3,229.2,285.1,228.9z"
				/>
			<path fill="#E0A465" d="M216.3,220.3c-5.6,0-11.2,0.8-16.8,1.7c0.5,0.5,1.1,1,1.7,1.4c1.1,0.7,3.7,1.4,7.1,2
				c14-2.4,28.5-2.2,42.2-5.5c2-0.5,9.3-1,10.6-3c1.6-2.5-6.4-2.9-10.7-3c-1.4,0-2.4,0-2.5,0c-15.8,0.8-35.7-1-50.8,2.7
				c-0.1,0-0.2,0.1-0.4,0.1c0.3,1.2,0.7,2.4,1.4,3.6c8.3-0.6,18.2-1.6,19.9-1.6c0.4,0,8.8-0.2,8.5,0.7
				C226.1,220.7,217.4,220.3,216.3,220.3z"/>
			<polygon fill="#C68342" points="202.7,168.6 202.7,168.6 202.7,168.6 			"/>
			<path fill="#C68342" d="M214.2,173.4c17.9,4.7,48.2-4.1,62.4-14.2c-11.9,8.1-35.7,12.7-49.8,13.2c-4.4,0.2-8.6-1.1-13-1.6
				c-3.7-0.4-7.8-0.1-11.1-2.2C203,171.4,212.2,172.9,214.2,173.4z"/>
			<path fill="#C68342" d="M242.2,152.4c5.3-1.8,10.2-4.6,15.3-6.9c-5.2,1.1-10.5,3.6-15.7,5.2c-5.4,1.7-11,2.3-16.6,3
				c-4.3,0.5-8.7,1.7-13,0.5C216.2,159.6,237.3,154,242.2,152.4z"/>
			<path fill="#C68342" d="M187.4,190.2c4.3,1,8.5,0.4,12.8,0.2c8.9-0.4,18,0.6,26.8,0.7c-15.2-3.4-31.6-6.1-47.3-4.7l0,0
				C179.7,188.6,185.9,189.9,187.4,190.2z"/>
			<path fill="#C68342" d="M309.7,179.9c-14.3,0.9-28.1,7.4-42.5,8.6c1.5,0.8,3.6,0.3,5.2,0.4C285.5,189.2,297.8,184.5,309.7,179.9z
				"/>
			<polygon fill="#A66425" points="229.9,183.6 229.9,183.6 229.9,183.6 			"/>
			<path fill="#A66425" d="M236.7,184.4c4.4,0.1,10.4-0.5,17.2-2.6c2.5-0.7,4.9-1.6,7.5-2.7c5.3-2.2,10.6-4.8,14.7-6.9
				c4.2-2.1,7.9-3.6,10.3-5c2.4-1.4,3.7-2.4,3.6-2.6c-0.1-0.1-1.4,0.7-3.9,1.8c-2.5,1.1-6.2,2.4-10.6,4.5c-4,1.9-9.6,4.5-14.7,6.6
				c-2.5,1-4.9,1.9-7.3,2.7c-6.7,2.1-12.4,2.9-16.7,3.1c-4.2,0.2-6.8,0-6.8,0.2C229.8,183.8,232.4,184.4,236.7,184.4z"/>
			<polygon fill="#A66425" points="225.7,197.6 225.7,197.6 225.7,197.6 			"/>
			<path fill="#A66425" d="M261.4,199.8c9.2,0.8,16.4,1.9,22.8,3.3c3.6,0.8,6.5,2.2,8.6,2.9c2.1,0.6,3.3,0.7,3.4,0.6
				c0-0.1-1.1-0.4-3.1-1.2c-0.9-0.4-5.8-2.7-8.5-3.4c-6.4-1.6-13.8-2.9-23-3.7c-9.5-0.8-19.2-0.9-25.3-0.9c-6.5,0-10.5,0.1-10.5,0.4
				c0,0.2,4,0.5,10.5,0.8C241.8,198.7,252.4,199,261.4,199.8z"/>
			<path fill="#A66425" d="M267.8,216.8c-2,1.3-4.7,2-6.6,2.6c-5.4,1.6-8.1,3.4-8.1,3.6c0,0.1,0.9,0.1,2.4-0.3
				c1.5-0.4,3.5-1.5,6-2.1c2-0.5,4.7-1.1,7.1-2.5c0.6-0.3,1.2-0.7,1.6-1.4c0.3-0.5,0.5-1.1,0.4-1.8c-0.2-0.7-0.6-1.1-1-1.4
				c-0.6-0.5-1.2-0.8-1.8-1c-1.1-0.5-2.3-0.9-3.5-1.2c-0.6-0.2-1.2-0.3-1.9-0.4c-5.1-1.1-10-1.4-13.9-1.5c-2.5,0-4.5,0-6.2,0.2
				c-1,0.1-1.7,0.2-2.3,0.4c-1.1,0.3-1.6,0.6-1.6,0.7v0c0,0.1,0.6,0,1.7-0.1c0.7-0.1,1.3-0.1,2.3-0.1c1.7,0,3.6,0,6.1,0.2
				c3.8,0.2,8.6,0.7,13.6,1.8c0.6,0.1,1.2,0.3,1.8,0.4c1.1,0.3,2.2,0.6,3.2,1.1c0.5,0.2,1,0.5,1.4,0.8c0.3,0.2,0.5,0.4,0.5,0.6
				c0.1,0.1,0,0.3-0.1,0.4C268.8,216.2,268.3,216.5,267.8,216.8z"/>
		</g>
		<g id="g48">
			<polygon fill="#A66425" points="332.5,132.2 330.5,235.8 470.2,233.7 465.7,130.1 			"/>
			<polygon fill="#E6B075" points="465.7,130.1 332.5,132.2 333.1,228.4 467.9,227 			"/>
			<path fill="#E0A465" d="M466.4,158.9c-13.5,13.2-40.2,33.9-85,40.6c-25.5,3.8-40.1,4-48.4,2.6l0.2,26.3l134.8-1.3L466.4,158.9z"
				/>
			<path fill="#C68342" d="M344,228.3l41.2-0.4c-6.3-1.3-12.5-2-18.8-1.9C359.1,225.9,351.7,226.8,344,228.3z"/>
			<path fill="#C68342" d="M429.5,227.4l13-0.1c-5.9-3.1-17.8-7.2-18.9-7.6c-17.9-5.4-36.8-8.8-55.7-8.5c-6.3,0.1-12.6,0.6-18.8,1.5
				c-5.2,0.8-11,1-16.1,2.5l0,3c3.9-1.1,8-1.7,10.4-2.1c3.9-0.6,7.6-1.7,11.5-2.1c21.9-1.9,55.3,1.2,74.2,13.1
				C429.2,227.3,429.3,227.4,429.5,227.4z"/>
			<path fill="#C68342" d="M467.6,212.7l-0.1-2.9c-7.4,1.5-14.3,3.1-13.7,12.1c0.1,1.9,1.6,3.6,3.7,5.2l8.3-0.1
				c-4.8-0.4-8.9-1.3-9-4.8C456.6,216.8,462.5,213.6,467.6,212.7z"/>
			<path fill="#C68342" d="M409.8,195.2c13.6-2.2,27.3-4.2,40.9-6.4c5.1-0.8,10.9-2.2,16.3-2.1l-0.1-3.4c-1.1,0-2,0.1-2.6,0.1
				c-12.2-0.1-24.4,2.2-36.3,4.3c-10,1.8-20,3.1-29.8,5.9c-2.6,0.7-12.6,3.2-12,7.7c0.8,5.4,12.6,5.9,15.8,6
				c19.5,0.8,38.2-0.9,57.4-4.2c1.7-0.3,4.7-0.6,7.9-1l-0.1-2.6c-2.1,0.3-4,0.5-5.4,0.8c-16.7,2.8-33.9,2.7-50.8,3
				c-3.2,0.1-16.1,2.2-17.9-1.7C391.5,197.7,408.2,195.5,409.8,195.2z"/>
			<path fill="#C68342" d="M461,174.8c-1.8-0.1-3.7-0.1-5.5-0.1c-27.6,0-54,5.8-79.9,15.3c-9.9,3.7-32,13.4-42.6,13.8l0,5.4
				c0.2-0.1,0.5-0.1,0.6-0.2c9.8-4.5,19.9-7.2,30-10.6c27.9-9.5,55-19.9,84.9-19c2.3,0.1,10.5-0.1,18.2,0.1l-0.1-4.7
				C464.8,174.9,462.9,174.8,461,174.8z"/>
			<path fill="#C68342" d="M444.8,148.2c-16.4,1.9-32.8,3.4-49.2,5.2c-19.8,2.3-43.2,6.2-63,0.7l0,3.4c0.1,0,0.2,0,0.3,0
				c10.3-0.9,17.9,3.2,26.6,3.2c13.8,0,27-1,40.6-3.4c4-0.7,7.7-2.5,11.6-3.5c6.4-1.6,13.3-2.1,19.8-3.2c11.2-1.8,23.1-2.8,34.5-3
				l-0.1-2.4C457.5,146.3,448,147.8,444.8,148.2z"/>
			<path fill="#C68342" d="M463.8,159.3c-2.1,0-4.2,0-6.2,0.1c-35.6,1.2-69.4,16.3-105.1,17.5c-6.8,0.2-13.2-1.5-19.7-2.8l0,3.9
				c4,1.3,8,2.3,12.3,2.2c7.5-0.1,14.8-2.3,22.1-3.5c0.3,0,4.9-1.3,5-1.2c0.9,1-2.4,0.8-3.6,1.3c-2.9,1.1-5.8,2.3-8.5,3.8
				c-4.7,2.6-9.3,5.4-14.6,6.8c-4.2,1.1-8.5,1.1-12.6,2.3l0,3.5c14-2.2,26.9-9.3,40.1-14.1c12.9-4.7,26.3-6.8,39.5-10.1
				c20.8-5.2,34.3-7.2,53.9-6.5l-0.1-3C465.5,159.4,464.6,159.3,463.8,159.3z"/>
			<path fill="#C68342" d="M418.6,131.9c-7.1,2.5-14.6,3.9-21.8,6.1c-5.7,1.8-11.3,4-17.2,5.1c-17,3.2-29.1,1.7-44.7-6
				c-0.8-0.4-1.5-0.8-2.3-1.2l0,4.3c0.3,0.1,1,0.5,1.1,0.6c6.2,3.1,12.9,5,19.6,6.6c15.1,3.6,34.1-0.5,48.4-5.5
				c3.2-1.1,23.1-5.4,29.1-11.2l-10.2,0.2C419.7,131.3,419,131.7,418.6,131.9z"/>
			<path fill="#A66425" d="M453.8,139.4l-110.6,1.1l-7.1-4.6l6,7.4l-0.4,74l-5.5,8.4l8.8-6.8l112.3-2.1l8.1,7.2l-6.4-11.5l-2.2-72.9
				l7.4-7.6L453.8,139.4z M345,215.5l-0.4-70.9l108-2.7l2.9,71.6L345,215.5z"/>
			<path fill="#A66425" d="M371.7,159.5c4.4,0.3,9.5,0.1,16-0.8c0,0,0.1,0,0.1,0c6.2-0.9,11.6-2,15.6-2.6c4-0.6,6.5-0.9,6.5-1.2
				c0-0.2-2.5-0.3-6.6,0c-5,0.4-8.7,1.1-15.7,2.1c0,0-0.1,0-0.1,0c-6.6,0.9-11.2,1.3-15.7,1.3c-4,0-6.5-0.3-6.5-0.1l0,0
				C365.1,158.4,367.6,159.2,371.7,159.5z"/>
			<path fill="#A66425" d="M401.4,170.6c10-2.4,19.3-4.4,25.9-5.9c6.6-1.5,10.7-2.6,10.6-2.9c0-0.2-4.2,0.5-10.9,1.7
				c-6.2,1.2-16.4,3.1-26,5.5c-10.5,2.5-18.7,5.1-25.4,7.7c-6.3,2.4-10.1,4.4-10,4.6c0.1,0.2,4-1.3,10.4-3.5
				C383,175.5,390.8,173.2,401.4,170.6z"/>
			<path fill="#A66425" d="M435.2,178.5c0-0.5-8.3-0.8-18.4,0.5c-10.1,1.3-17.9,4.1-17.8,4.5c0.1,0.4,8-1.6,18-2.9
				C427,179.4,435.2,179,435.2,178.5z"/>
			<path fill="#A66425" d="M436.6,187.7c0-0.5-6.8-0.3-15.1,1.1c-8.2,1.4-14.6,3.7-14.5,4.2c0.1,0.4,6.6-1.1,14.8-2.5
				C430,189,436.7,188.1,436.6,187.7z"/>
		</g>
		<g id="g52">
			<path fill="#A66425" d="M189.3,353.5c5.8,6.4,115.8,6.4,124.9-0.2c6-4.4-15.9-47.6-36.5-74l-13.6,0.3l7.7-4.5l1.2-3.3
				c-8.3-10.2-13.7-12.6-19.3-12.9c-0.2,0-0.5,0-0.7,0c-0.7,0-1.4,0.2-2,0.5c-6.6,0.6-38.8,37.6-54.6,65.4l2.3,6.4l42.4,2.1
				l-51.7,5.2C184.1,348.5,187.8,351.8,189.3,353.5z"/>
			<path fill="#E6B075" d="M186.8,348.6c5.8,6.4,115.8,6.4,124.9-0.2c6-4.4-15.9-47.6-36.5-74l-13.6,0.3l11.5-2.9
				c-8.3-10.2-16.3-17.4-21.9-17.7c-0.2,0-0.5,0-0.7,0h0c-0.7,0-1.4,0.2-2,0.5c-6.6,0.6-36.5,42.5-52.3,70.3l42.5,3.6l-45.1,1.1
				C188.2,339.5,185.2,346.9,186.8,348.6z"/>
			<path fill="#E0A465" d="M311.7,348.5c4.1-3-4.8-24-17.3-45.4c-8.9,10.2-23.4,23.1-44.4,29.8c-25.7,8.1-48.2,6.2-60.1,4.1
				c-2.9,6.1-4.2,10.5-3.1,11.7C192.5,355,302.6,355.1,311.7,348.5z"/>
			<path fill="#C68342" d="M212.6,298.5c-1.4,2.1-2.8,4.3-4.2,6.4c3.3-0.6,6.5-1.5,9.8-2.3c18.4-4.5,36.5-9.4,55.4-11.3
				c4.4-0.4,8.7-0.8,13-0.8c-1.6-2.4-3.2-4.7-4.8-7c-9.8,1-18.7,4.5-28.1,7.9c-11.8,4.3-25.3,6.8-37.9,7
				C215.5,298.4,213.8,298.4,212.6,298.5z"/>
			<path fill="#C68342" d="M221.4,285.6c-0.6,0.9-1.2,1.8-1.9,2.6c10.9-0.8,21.9-1.9,32.6-3.7c8.7-1.5,17.4-3.8,26.1-5
				c0,0,0.5,0,0.6,0c-0.5-0.7-1-1.3-1.5-2c-1.3,0.2-3.6,0.5-3.8,0.5c-6.4,0.8-12.7,2.3-19.1,3.5
				C243.6,283.4,232.6,284.6,221.4,285.6C221.5,285.6,221.4,285.6,221.4,285.6z"/>
			<path fill="#C68342" d="M196.2,324.9l2.1,0.2c2.2-0.7,4.4-1.4,6.7-1.7c10.5-1.2,21.1-1.6,31.5-3.1c3.2-0.5,6.3-1.7,9.6-2.3
				c8.3-1.5,16.6-1.9,25-2.2c7.9-0.3,16.8,0.7,24.4,2.9c3,0.9,6,2.1,9,3c-0.7-1.4-1.4-2.9-2.2-4.3c-1.4-0.3-2.7-0.6-4.1-0.9
				c-7.9-1.4-15.8-2-23.6-2c-17.4,0-34.7,2.6-51.9,4.7c-9,1.1-16,2.2-24.5,2.5C197.4,322.8,196.8,323.8,196.2,324.9z"/>
			<path fill="#C68342" d="M261.5,259.5c-0.4-0.4-0.9-0.7-1.3-1.1c-6.6,2.8-14.4,4.4-21.6,4.8c-0.6,0.6-1.1,1.2-1.7,1.9
				c7-0.8,13.8-1.8,20.8-4.2C259,260.6,260.3,260.1,261.5,259.5z"/>
			<path fill="#C68342" d="M230,273.9c0.6-0.2,1.1-0.4,1.7-0.6c6.5-1.9,13.1-2.4,19.7-3.2c6.2-0.8,12.3-2,18.5-2.2
				c-0.4-0.5-0.8-0.9-1.2-1.3c-0.7,0-1.3,0-2,0c-9.3,0.1-18.8,1.1-27.9,2.7c-2,0.3-4,0.7-6,1.1C231.9,271.5,230.9,272.7,230,273.9z"
				/>
			<path fill="#C68342" d="M201.1,316.5c4.1-0.2,8.3-0.8,12-2c4.3-1.5,8.4-3.7,12.7-5c16.2-4.9,33.3-7.1,50.1-7.7
				c5.8-0.2,11.7-0.2,17.6-0.2c-0.5-0.8-0.9-1.6-1.4-2.3c-4.2,0-8.4,0.2-10.3,0.3c-18.8,0.2-37.9,3.5-56.2,8.2
				c-7.2,1.9-14.4,4.6-22,4.7C202.8,313.7,202,315.1,201.1,316.5z"/>
			<path fill="#C68342" d="M297.1,330.4c-5.6,0.2-11,1.2-13.3,4c-1,1.2-0.2,2.3,0.3,3.6c3.3,7.3,5.1,7.9,11.6,11.7
				c0.9,0.5,1.8,1.1,2.6,1.7c3.8-0.4,6.9-0.9,9.3-1.4c-1.8-0.8-3.2-1.5-4-1.8c-4.8-2.2-14.7-3.2-15.9-9.6c-1.2-6.1,14.2-5.9,22-5
				c-0.3-0.8-0.6-1.6-1-2.4C305.5,330.7,301.2,330.3,297.1,330.4z"/>
			<path fill="#C68342" d="M186.8,348.6c0.1,0.1,0.2,0.2,0.3,0.3c3.5-0.9,7-1.7,7.9-1.8c12.2-2.3,25.9-4.8,38.4-3.3
				c9,1.1,18,2.3,27,3.4c4.8,0.6,9.4,2.6,12.9,5.8c0,0,0,0,0,0c1.9-0.1,3.9-0.1,5.8-0.2c-0.1-2.9,0.8-4.3-2.4-5
				c-3.2-0.7-6.4-1.8-9.6-2.7c-10.2-3.1-21.3-4.3-32.2-4.3c-3.6,0-7.2,0.2-10.8,0.4c-6.1,0.5-12.1,1.7-18.2,1.9
				c-6.1,0.1-12.6-0.8-18.7,0.3C186.3,346,186.1,347.9,186.8,348.6z"/>
			<path fill="#C68342" d="M192.1,332.4c-0.8,1.5-1.5,2.9-2.1,4.2c5.6,0.1,13.7,0.7,15.9,0.6c14-0.1,28.4-1.4,42.1-3.9
				c4.8-0.8,9.8-2.2,14.3-3.8c0.2-0.1,1.3-0.6,2.2-1c-0.4,0.1-0.7,0.1-1.3,0.2c-2.2,0.3-4.5,0.5-6.7,0.8c-4.1,0.5-8.2,0.9-12.3,1.5
				c-9.3,1.4-19,3.9-28.4,4.2c-6.7,0.2-13-1-19.6-2.1C194.8,333,193.4,332.7,192.1,332.4z"/>
			<path fill="#C68342" d="M265.6,328.3c-0.2,0-0.6,0.2-1,0.3c0.8-0.1,1.3-0.3,1.3-0.3C265.8,328.3,265.7,328.2,265.6,328.3z"/>
			<path fill="#C68342" d="M300,339.3c-0.5,2.7,6.3,5.3,12.7,6.5c0.1-1.8-0.4-4.3-1.4-7.4c-2.2-0.5-4.4-0.8-6-0.7
				C304,337.8,300.3,337.6,300,339.3z"/>
			<path fill="#A66425" d="M256.2,292.8c3.2-0.7,5.6-1.7,10-3.1c0,0,0.3-0.1,0.3-0.1c4.2-1.4,6.8-2.1,9.7-2.5
				c2.5-0.3,4.1-0.2,4.1-0.4c0-0.2-1.6-0.8-4.2-0.8c-2.9,0-6.1,0.7-10.2,2.1c-0.1,0-0.2,0.1-0.3,0.1c-3.9,1.3-7.3,2.7-9.8,3.6
				c-2.5,0.9-4.1,1.3-4,1.6l0,0C251.9,293.5,253.5,293.4,256.2,292.8z"/>
			<path fill="#A66425" d="M251.4,282.4C251.4,282.4,251.4,282.4,251.4,282.4c6-1.3,8.6-1.9,12.8-2.6c3.3-0.5,5.3-0.8,5.3-1
				c0-0.2-2.1-0.4-5.4-0.2c-3.7,0.3-7.6,1-12.9,2.1c0,0-0.1,0-0.1,0c-5,1.1-9.5,2.2-12.7,2.9c-3.3,0.7-5.3,1.1-5.3,1.3
				c0,0.2,2.1,0.3,5.5-0.1C242.3,284.4,246,283.6,251.4,282.4z"/>
			<path fill="#A66425" d="M248.8,269.9c5.6-0.8,10.1-1.5,10.1-2c0-0.5-4.7-0.5-10.3,0.3s-10.1,1.9-10,2.3v0
				C238.6,271,243.2,270.7,248.8,269.9z"/>
			<path fill="#A66425" d="M241.7,318.9c8.4-1.1,13.8-1.7,19.6-2.2c5-0.4,8.1-0.6,8.1-0.8c0-0.2-3.1-0.5-8.2-0.4
				c-5.4,0.1-11.7,0.7-19.7,1.7c-6.8,0.9-15.4,2.3-19.6,3c-5,0.8-8.1,1.4-8.1,1.6v0c0,0.2,3.2,0.1,8.2-0.4
				C228,320.8,233.2,320.1,241.7,318.9z"/>
			<path fill="#A66425" d="M235.5,342.8c8.5,0.2,15.2,1.2,21.1,2.4c1.9,0.4,4.5,0.5,5.7,0.6c3.5,0.4,5.3,1.4,5.4,1.2
				c0.1-0.1-1.7-1.6-5.2-2.2c-1.6-0.3-3.6-0.3-5.6-0.9c-5.9-1.5-12.9-2.6-21.4-2.9c-8.9-0.3-17.6,0.5-23.3,1.1
				c-5.9,0.7-9.6,1.3-9.6,1.5c0,0.2,3.7,0,9.7-0.3C218,343.1,226.8,342.6,235.5,342.8z"/>
		</g>
		<g id="g56">
			<path fill="#A66425" d="M314.3,291.8c-1.5,2.3-1.6,3-0.7,9.1c1.6,10.4,32.3,48.5,40.4,50.6c8.1,2.1,112.7,3.8,118,0.2
				c5.2-3.5,7.2-93.1-2.1-95.7c-9.2-2.6-105.4-5.2-117.3,0.8h0C344.6,260.9,322.6,278.7,314.3,291.8z"/>
			<path fill="#E6B075" d="M352.9,344.4c8.1,2.1,112.7,3.8,118,0.2c5.2-3.5,7.2-93.1-2.1-95.7c-9.2-2.6-105.4-5.2-117.3,0.8
				c-9.4,4.8-33.9,32.8-38.3,44.1C310.8,299.6,344.8,342.3,352.9,344.4z"/>
			<path fill="#E0A465" d="M470.9,344.6c3-2,4.9-32.3,4.2-58.3c-11.9,13.3-31.5,29-60.1,34c-38.1,6.7-75.1-3.2-92.9-9.2
				c10.1,14.2,25.7,32,30.9,33.3C361,346.5,465.6,348.1,470.9,344.6z"/>
			<path fill="#D49759" d="M382.9,267.4c-4.2-0.2-8.5-0.3-12.7-0.3c-13.8,0-27.9,1.5-41.5,4.2c-1.4,1.7-2.9,3.4-4.2,5.1
				c2.1-0.5,4.1-0.9,6.2-1.4c20-4.3,40.5-5.4,60.9-5c16.7,0.3,33.5,2.3,50.2,2.7c10.7,0.3,21.8-0.9,32.5-2.1
				c-0.1-1.1-0.2-2.2-0.3-3.3c-7.6,0.7-15.1,1.4-22.7,1.6c-24.1,0.7-48.6-3.7-72.3-7.6c-11.4-1.9-22.9-4.9-34.5-4.8
				c-0.7,0-1.3,0-2,0.1c-1.2,1.1-2.4,2.2-3.6,3.5c6.6-0.1,13.3,0.8,19.5,1.6c9.9,1.2,19.9,5.8,30,5.8h-0.7
				C386.1,267.5,384.5,267.5,382.9,267.4z"/>
			<path fill="#D49759" d="M317.1,303.8c5.4-0.2,11.1-0.1,12.7-0.1c37-0.3,72.9,6.6,109.3,12c4.6,0.7,23.6,3.7,35.3,7.2
				c0.1-1.5,0.2-3,0.3-4.6c-9.1-2.6-21.3-4.7-26.3-5.7c-36.6-7.7-75.1-12.2-112.5-12.4c-6.8,0-13.7,0.1-20.6,0.6
				C315.8,301.6,316.4,302.7,317.1,303.8z"/>
			<path fill="#D49759" d="M316.4,287.8c4.7,0,9.2,0,10.9-0.1c34.8-1.2,70.3,0.5,104.9,4.4c12,1.4,24,2.2,36,3.7
				c2.3,0.3,4.7,0.6,7,1c0-1.3,0-2.6,0-3.9c-7.8-1.3-15.6-2.4-16.5-2.5c-35.9-5.9-73-9.6-109.5-9.4c-2.4,0-4.9,0-7.3,0.1
				c-7,0.1-14.1,0.2-21.1,0.3C319.1,283.6,317.6,285.8,316.4,287.8z"/>
			<path fill="#D49759" d="M446.6,256.4c8.3-0.4,16.6-2.1,24.8-3.6c-0.8-2.2-1.7-3.7-2.7-4c-0.2-0.1-0.6-0.1-0.9-0.2
				c-16.8,2.5-33.3,3.6-50.1,0.9c-7.3-1.1-14.6-2.1-21.8-3.5c-12.4,0.1-24,0.5-32.4,1.3c5.7,0.2,11.5,0.7,17.1,1.8
				C402.2,253.2,424.6,257.4,446.6,256.4z"/>
			<path fill="#D49759" d="M439.5,338.9c-1.6,0.1-8.8,0.4-7.7,3.6c0.6,1.7,1.6,3,2.8,4.1c19-0.1,34.4-0.7,36.3-2
				c0.6-0.4,1.1-1.9,1.6-4.3c-8.4-0.6-18.2-0.5-22.2-0.8c-2.7-0.2-5.4-0.5-8.1-0.6C441.3,338.9,440.4,338.9,439.5,338.9z"/>
			<path fill="#D49759" d="M473.9,330.2c-11.3-1.7-22.6-3-34-4.2c-4.4-0.5-10.9-1.6-17.2-1.7c-6.3,0-12.3,1.1-15.8,5.4
				c-4,4.9-0.4,11.6,4.1,16.8c2,0,4,0,6.1,0c-2.2-2.2-3.7-5-3.9-8.1c-0.2-4.8,3.8-6.1,7.8-6.8c7.2-1.3,15.4,0.8,22.6,1.5
				c9.9,0.9,19.9,0.8,29.7,1.5C473.6,333.3,473.7,331.8,473.9,330.2z"/>
			<path fill="#D49759" d="M339.2,328.7c-1.1,0-2.1,0.1-3.2,0.2c1.7,2,3.4,3.8,5,5.5c7,0.5,14.1,4.5,17.9,10.6c0,0,0,0,0,0
				c2.4,0.2,5.4,0.3,8.9,0.5c-2.2-6.2-6.3-10.7-13.7-14.1C349.6,329.5,344.5,328.7,339.2,328.7z"/>
			<path fill="#D49759" d="M388.4,346.2c3.9,0.1,7.9,0.2,12.1,0.2c-1.3-3.5-3.6-6.6-6.2-9.7c-14.7-17-39.1-23.4-61.1-23.1
				c-1.5,0-2.9,0.1-4.4,0.2c-1.5,0.1-2.9,0.2-4.4,0.5c1.6,2.1,3.2,4.3,4.9,6.4c15.8-0.5,33.1,1.9,46.2,11
				C380.5,335.2,385.8,340.4,388.4,346.2z"/>
			<path fill="#A66425" d="M359,335.6c6.3,0.5,95.6,1,102.8-1.8c7.2-2.8,3.6-71.4,0.8-74.2c-1.9-1.9-28.6-4.1-59.6-3.9
				c-14.1,0.1-29.1,0.7-43,2c-17.5,12.2-36.3,34.6-34.9,38.4C326.4,299.8,352.7,335.1,359,335.6z M332.6,301.9
				c-1.4-1.9-2.5-3.6-3.3-4.8c-0.7-1-0.9-1.5-1-1.7c0-0.1,0-0.2,0.1-0.4c0.3-0.7,0.9-1.8,1.8-3.1c1.7-2.6,4.4-6.1,7.7-9.8
				c6.4-7.2,15.4-16.9,23.7-22.8c10.8-1,21.9-0.1,33.1-0.4c4.3-0.1,8.5-0.1,12.7-0.1c12.4,0,24,0.4,33.3,1c6.2,0.4,11.3,0.9,15,1.3
				c1.8,0.2,3.3,0.5,4.3,0.7c0.2,0,0.3,0.1,0.4,0.1c0.1,0.5,0.3,1.1,0.4,2c0.3,2,0.7,4.9,1,8.3c0.6,6.8,1.1,15.6,1.3,24.5
				c0.2,8.8,0,17.7-0.6,24.4c-0.3,3.3-0.7,6.1-1.2,8c-0.2,0.9-0.5,1.5-0.7,1.8c-0.2,0-2.1,0.4-5,0.7c-3.1,0.2-7.1,0.5-11.9,0.6
				c-9.4,0.3-20.9,1.7-32.9,1.8c-12,0.1-24.5-1.1-33.9-1.2c-9.4-0.1-16.5-0.2-17.5-0.3c0.6,0-0.4-0.2-1.6-1.1
				c-1.1-0.9-2.6-2.2-4.2-3.9c-3.2-3.3-7.1-7.8-10.9-12.5C338.9,310.4,335.3,305.7,332.6,301.9z"/>
			<polygon fill="#A66425" points="353.6,283.9 353.6,283.9 353.6,283.9 			"/>
			<path fill="#A66425" d="M392.5,284.5c0.1,0,0.1,0,0.2,0c3.1,0.1,6.1,0.8,9.2,1c4.9,0.2,9.3-0.1,13.1,0.4c4.9,0.7,9,1.9,11.9,2.3
				c2.9,0.3,4.6,0,4.6-0.1c0-0.1-1.6-0.1-4.4-0.7c-2.8-0.5-6.7-2-11.8-2.8c-4-0.7-8.5-0.4-13.2-0.7c-2.9-0.2-5.9-0.9-9.3-1
				c-0.1,0-0.1,0-0.2,0c-9.7-0.2-21.6,0.2-27.5,0.4c-7,0.2-11.4,0.4-11.4,0.6c0,0.2,4.4,0.5,11.4,0.6
				C372,284.6,381.8,284.3,392.5,284.5z"/>
			<path fill="#A66425" d="M415.8,307.8c3,0.4,5.8,0.8,8.4,1.3c6,1.1,11.1,2.7,14.9,3.4c3.7,0.7,6,0.7,6,0.5s-2.2-0.5-5.8-1.5
				c-3.6-1-8.7-2.8-14.8-4c-2.7-0.5-5.5-1-8.5-1.3c-7-0.9-16.9-1.6-21.1-1.9c-5.4-0.4-8.7-0.7-8.8-0.5c0,0.2,3.2,1,8.6,1.7
				C400.2,306.2,407.7,306.8,415.8,307.8z"/>
			<path fill="#A66425" d="M433.3,255.3C433.3,255.3,433.4,255.3,433.3,255.3c7.9,0,14-0.6,19.1-1.6c4.8-1,7.6-2.1,7.6-2.3
				c-0.1-0.2-3,0.5-7.8,1.1c-5.2,0.7-11,1.1-18.8,1.1c0,0-0.1,0-0.1,0c-7.9,0-13.6-0.5-18.9-1.4c-4.8-0.8-7.6-1.7-7.7-1.5
				c-0.1,0.2,2.7,1.5,7.5,2.6C419.4,254.7,425.5,255.3,433.3,255.3z"/>
			<path fill="#A66425" d="M404.5,269.6c8.9,1.2,16.2,1,16.2,0.5c0-0.5-7.2-1.1-16-2.2c-4.7-0.6-8-1.2-11.1-1.9
				c-2.8-0.6-4.6-1-4.6-0.8v0c-0.1,0.2,1.5,1.1,4.3,2C396.2,268.1,399.9,269,404.5,269.6z"/>
			<path fill="#A66425" d="M360.7,321.5c1.1,0.4,2.1,0.8,3.1,1.2c3.2,1.3,6,3,8.4,4.8c2.9,2.1,5.4,4.1,7.7,5.7
				c4.7,3.1,7.6,4.5,7.8,4.4c0.1-0.2-2.8-2.1-7.1-5.3c-2.2-1.6-4.6-3.7-7.5-5.9c-2.5-1.9-5.4-3.7-8.7-5.1c-1.1-0.5-2.1-0.9-3.2-1.2
				c-8-2.7-16.9-3.2-22.3-3.4c-5.8-0.2-9.4-0.2-9.4,0l0,0c0,0.2,3.5,0.6,9.3,1.2C344.2,318.2,353.1,318.9,360.7,321.5z"/>
			<path fill="#A66425" d="M353.9,335.8L353.9,335.8c2.5,1.5,4,2.5,5.6,3.6c1.4,1,2.2,1.7,2.4,1.6c0.2-0.1-0.3-1.1-1.6-2.5
				c-1.3-1.4-3.1-2.8-5.5-4.2l0,0c-2.2-1.3-4.7-2.5-6.1-3.1c-1.6-0.7-2.6-1.1-2.7-0.9l0,0C345.6,330.7,349.3,333.2,353.9,335.8z"/>
		</g>
		<g id="g59">
			<path fill="#A66425" d="M44.9,321.6c6.5-0.9,13.9-1.6,21.2-1.5C59,319.9,51.5,320.3,44.9,321.6z"/>
			<polygon fill="#A66425" points="174.6,299.1 186.6,302.5 186.6,301.7 			"/>
			<path fill="#A66425" d="M29.7,282.1c-4.3,1.6-8.6,1.9-10.3,4.1c-0.9,1.2-0.3,5.1-0.3,5.1s7.8,10.9,17.4,31.6
				c2.5-0.5,5.4-0.9,8.5-1.3c6.6-1.3,14.1-1.7,21.2-1.5c5.2,0,10.2,0.4,14.8,1.4c-4.4-0.7-9.5-1.3-14.8-1.4
				c-7.3-0.1-14.7,0.6-21.2,1.5c-2.1,0.4-4,0.9-5.9,1.5c-0.4,0.1,0,4.7-0.4,4.8c1.8,4,3.6,8.3,5.4,12.9c64.4-25.3,126.8,0,126.8,0
				s8-16.3,16-34.3l-0.2-4l-12-3.4l12,2.6l0,0.8l1.8,0.5c2.4-5.6,4.8-11.2,6.9-16.5c0.3-0.8,0.5-6.4,0.8-7.2
				c-29.1-17.5-51.6-15.1-96.4-15.3v0C54.9,263.8,29.7,282.1,29.7,282.1z"/>
			<path fill="#E6B075" d="M196.2,279.2c-29.1-17.5-51.8-19.9-96.5-20.1c-44.7-0.2-70,18.1-70,18.1c-6.6,2.4-10.7,9.2-10.7,9.2
				s7.8,10.9,17.4,31.6c11.5-2.1,30.4-4.5,44.5-1.5c-12.5-2.1-30,2.4-42.3,6.4c1.8,4,3.6,8.3,5.4,12.9c64.4-25.3,126.8,0,126.8,0
				s8-16.3,16-34.3l-12.2-7.5l13.8,3.9C191.2,291.7,193.9,285.1,196.2,279.2z"/>
			<path fill="#E0A465" d="M196.2,279.2c-4.3-2.6-8.4-4.8-12.4-6.7c-12.3,23.2-47.1,42.8-97.7,37.5c-26.6-2.8-42.6-0.5-52.2,2.8
				c0.8,1.7,1.7,3.4,2.5,5.3c11.5-2.1,30.4-4.5,44.5-1.5c-12.5-2.1-30,2.4-42.3,6.4c1.8,4,3.6,8.3,5.4,12.9
				c64.4-25.3,126.8,0,126.8,0s8-16.3,16-34.3l-12.2-7.5l13.8,3.9C191.2,291.7,193.9,285.1,196.2,279.2z"/>
			<path fill="#C68342" d="M174.3,328.6c1-2.1,1.5-3.2,3-6.2c-3.2-0.7-6.5-1.3-9.8-1.7c-5.6-0.8-10.7-2.8-16.1-4.2
				c-10-2.5-20.3-4.9-30.6-5.3c-3.1-0.1-6.1,0.4-9.2,0.4c-0.1,0-0.9-0.2-1-0.1c-0.1,0.2,0.4,0.1,0.6,0.1c1.2,0.2,2.4,0.4,3.7,0.5
				c2.2,0.3,4.5,0.4,6.7,0.6c6.4,0.7,12.7,1.8,18.9,3.4c8.9,2.3,16.8,6.8,25.3,9.9C166.5,326.2,170.5,327.4,174.3,328.6z"/>
			<path fill="#C68342" d="M56.5,322.5c-5.8,1-11.4,1.7-17.1,2.2c0.3,0.7,0.6,1.4,0.9,2.2c5.6-0.6,12.2-0.9,14.1-1.1
				c26.2-3.1,52.9-9.1,79.1-1.8c4,1.1,9,2.2,12.3,4.7c0.1,0.1,0.2,0.2,0.4,0.3c3.8,0.8,7.2,1.6,10.2,2.4c-2.8-2-5.6-3.9-8.7-5.6
				c-11.5-6.3-25-8.7-39-8.9C90.9,316.5,72.3,319.7,56.5,322.5z"/>
			<path fill="#C68342" d="M146.7,271.5c-3.8-0.5-7.6-0.7-11.4-1.3c-4.8-0.8-9.6-2.3-14.5-2.6c-1.4-0.1-2.9-0.2-4.3-0.2
				c-4.3-0.1-8.7,0.2-12.9,0.5c-11.1,0.7-22.5,2.1-33.3,4.6c-16.9,3.9-33.7,9.2-48.8,17.7c0.2,0.3,0.4,0.6,0.6,1
				c0.5-0.3,1-0.5,1.6-0.8c6.2-2.8,12.6-5.9,18.9-8.4c3.9-1.5,8-2.2,12-3.4c3.1-0.9,6-2.3,9.1-3c5.3-1.2,10.8-1.5,16.2-2
				c6.1-0.5,12.3-1.7,18.4-2.2c6.6-0.5,13.1,0.1,19.7,0.4c8.8,0.3,17.4,0.8,26.2,0.6c2.5-0.1,5-0.1,7.5,0.2c1,0.1,3.2,1.3,2.9,0.4
				C154.2,271.6,148.1,271.7,146.7,271.5z"/>
			<path fill="#C68342" d="M182.1,312c-2-1-4.1-2-6.1-2.9c-7.1-3.3-14.7-5.2-22.4-6.6c-10.2-1.8-20.3-2.5-30.5-2.5
				c-22.3,0.1-44.6,3.5-66.9,5.3c-8.3,0.7-16.8,0.6-25,2.1c0.8,1.6,1.7,3.3,2.6,5.2c8.7-1.5,17.3-2.9,26-4.2
				c32.1-4.6,55.9-7.1,88.1-2.3c7.1,1.1,22.9,4,32.9,8.7C181.3,313.8,181.7,312.9,182.1,312z"/>
			<path fill="#C68342" d="M193.4,286.2c0.4-0.9,0.7-1.7,1-2.6c-8.1-1.6-19.4-2.4-23.1-2.7c-6.2-0.5-12.5-0.7-18.8-0.7
				c-10.5,0-21.1,0.7-31.4,2.2c-9.2,1.3-18.3,3-27.4,4.3c-15.3,2.1-31.1,2.2-46.2,5.2c-7.1,1.4-14.6,3.2-21.4,5.8
				c0.1,0.2,0.2,0.4,0.3,0.6c13.4-5.8,35.6-5.7,49.1-6.9c7.9-0.7,15.9-1.1,23.8-2.1c10.9-1.3,21.7-3.6,32.6-4.4
				c6.2-0.4,12.4-0.1,18.6-0.1c10.5,0,21.2-0.1,31.7,0.8C185.8,286,189.6,285.9,193.4,286.2z"/>
			<path fill="#A66425" d="M117.7,286.7c1.4-0.2,2.7-0.4,4.1-0.6c15.9-2.3,25.5-3,34.9-2.8c5.3,0.1,8.3,0,8.3-0.2
				c0-0.2-3.1-0.4-8.2-0.8c-9.1-0.7-19.6-0.2-35.2,2.1c-1.4,0.2-2.8,0.4-4.1,0.6c-13.3,2-18.3,2.9-27.6,4c-7,0.8-11.3,1-11.3,1.2
				c0,0.2,4.3,0.4,11.4-0.1C98.2,289.6,105.7,288.5,117.7,286.7z"/>
			<polygon fill="#A66425" points="126,270.4 126,270.4 126,270.4 			"/>
			<path fill="#A66425" d="M97.4,270.6L97.4,270.6c8.3-1,14.7-1.1,20.2-0.8c5.2,0.3,8.3,0.8,8.4,0.6c0-0.2-3.1-1.2-8.3-1.8
				c-5.5-0.6-12.2-0.6-20.5,0.3l-0.1,0c-7.7,0.9-15.2,2.5-20,3.7c-5.1,1.2-8.2,2.1-8.1,2.3c0,0.2,3.2-0.2,8.4-1.1
				C82.1,273,90,271.5,97.4,270.6z"/>
			<path fill="#A66425" d="M127.6,301.5c8.5,0.5,16.1,1.3,22.1,2.1c3.6,0.5,6.6,0.5,8.5,0.7c2,0.3,3.1,0.6,3.1,0.5
				c0.1-0.2-4.5-1.3-11.5-2.5c-5.9-1-13.6-2-22.2-2.5c-9.6-0.5-17.7-0.3-24.1,0.3c-6.1,0.5-9.9,1.3-9.9,1.5c0,0.2,3.8-0.1,9.9-0.3
				C110.1,301,117.9,301,127.6,301.5z"/>
			<path fill="#A66425" d="M147.6,317.6c2.5,1,5.7,1.8,9.7,2.3l0,0c3.5,0.4,7.7,0.5,9.8,0.5c2.5,0.1,4.1,0.1,4.1-0.2
				c0-0.2-1.5-0.7-4-1c-2.5-0.4-6-0.6-9.8-1l0,0c-4-0.4-6.9-1-9.5-1.7c-2.4-0.7-3.8-1.2-3.9-1C144,315.7,145.3,316.6,147.6,317.6z"
				/>
			<polygon fill="#A66425" points="144.1,315.5 144.1,315.5 144.1,315.5 			"/>
			<path fill="#A66425" d="M78.1,321.4c4.1-0.4,9.8-1.2,16.1-1.9c0,0,0.1,0,0.1,0c6.7-0.7,11.5-0.9,16-0.8c4.1,0.1,6.6,0.4,6.7,0.1
				c0-0.2-2.5-0.9-6.6-1.3c-4.4-0.4-9.7-0.4-16.3,0.4l-0.1,0c-5.7,0.6-12.5,1.8-16,2.4c-4.1,0.7-6.6,1.1-6.6,1.4v0
				C71.4,321.8,74,321.8,78.1,321.4z"/>
		</g>
		<g id="g118">
			<path fill="#A66425" d="M174.2,404.4c0.5-7.6-2.4-17.9-11.7-17.8c-9.3,0-34.4,10.4-41.4,7.5c-7-2.9-10.6-8.1-16.4-10.9
				c-5.8-2.8-15.5-3.1-25.2,1.2c-9.8,4.4-14.6,15.4-42.2,14.4c0,0-4.1,10-3.9,19.1c0.1,2.3,1.3,5.8,1.9,7.6
				c5.4,1.7,11.6,2.4,11.6,2.4l-11.4,13.6l1.8,7.4c0,0,17.2-2.9,20.1,2.9c2.9,5.8,4.9,7.6,17.8,9.1c12.9,1.4,30.9-0.9,34.5-5.8
				c3.7-4.8,3.7-7.8,9.8-10.8c6.1-3,4.9-7.2,6.3-11.7c1.4-4.6,4.1-2,6.1-8c2-6,0.2-10.9,0.2-10.9s1.8-1.9,12.1-2.3
				C154.5,410.9,173.7,412,174.2,404.4z"/>
			<path fill="#E6B075" d="M172.1,397c0.5-7.6-3.4-11.5-12.7-11.5c-9.3,0-33.5,4-40.5,1.1c-7-2.9-10.6-8.1-16.4-10.9
				c-5.8-2.8-15.5-3.1-25.2,1.2c-9.8,4.4-14.6,15.4-42.2,14.4c0,0-5,17.7-2,26.7c5.4,1.7,11.6,2.4,11.6,2.4l-11.6,3.4l2.1,17.6
				c0,0,17.2-2.9,20.1,2.9c2.9,5.8,4.9,7.6,17.8,9.1c12.9,1.4,30.9-0.9,34.5-5.8c3.7-4.8,3.7-7.8,9.8-10.8c6.1-3,4.9-7.2,6.3-11.7
				c1.4-4.6,4.1-2,6.1-8c2-6,0.2-10.9,0.2-10.9s1.8-1.9,12.1-2.3C152.5,403.5,171.6,404.6,172.1,397z"/>
			<path fill="#E0A465" d="M172.1,397c0.2-3-0.3-5.4-1.5-7.2c-5.7,1.7-14.9,2.9-30.4,5.6c-33.7,5.9-22.7,25.5-55.4,39
				c-20.5,8.5-39.2,4.2-50.3-0.1l0.9,7.1c0,0,17.2-2.9,20.1,2.9c2.9,5.8,4.9,7.6,17.8,9.1c12.9,1.4,30.9-0.9,34.5-5.8
				c3.7-4.8,3.7-7.8,9.8-10.8c6.1-3,4.9-7.2,6.3-11.7c1.4-4.6,4.1-2,6.1-8c2-6,0.2-10.9,0.2-10.9s1.8-1.9,12.1-2.3
				C152.5,403.5,171.6,404.6,172.1,397z"/>
			<path fill="#C68342" d="M32.2,410.6c4-1.2,8.3-1.7,11.7-1.9c9.5-0.7,19-3.3,28.5-4.5c5.1-0.7,10.2-0.3,15.2-1.5
				c18.9-4.5,37.3-11,56.5-14c6.5-1,13.1-1.8,19.7-2.6c-1.3-0.2-2.6-0.3-4.2-0.3c-5.1,0-14.8,1.2-23.6,1.8c-8.3,1.8-16.4,3.9-24.9,6
				c-16.4,4-32.9,6.8-49.6,9.3c-8.7,1.3-17.3,2.8-25.9,4.8c-1.1,0.2-2.2,0.5-3.3,0.8C32.2,409,32.2,409.8,32.2,410.6z"/>
			<path fill="#C68342" d="M99.6,374.7c-1.7-0.5-3.6-0.8-5.7-0.9c-5.6,2.5-11.9,4-17.8,5.4c-1.3,0.3-2.6,0.6-4,0.8
				c-3.6,2.5-7.3,5.6-12.9,7.9c8.3-1.8,16.4-3.4,24.5-6.1C89.2,380.1,94.5,377.5,99.6,374.7z"/>
			<path fill="#C68342" d="M43.1,391.4c0.3,0,0.6,0,0.9,0c1.3,0,2.6-0.2,3.9-0.5C46.4,391.1,44.8,391.3,43.1,391.4z"/>
			<path fill="#C68342" d="M33,401.9c2,0,3.8,0,4.8-0.1c15.9-1.9,32.5-3.2,47.9-8c9.3-2.9,18.1-7.4,27.3-10.6
				c-0.6-0.4-1.2-0.9-1.8-1.3c-3.7,1.1-7.4,2.2-11.1,3.5c-7.6,2.6-15.3,4.5-23.2,6.2c-14.4,3.2-28.7,6.3-43.4,7.2
				C33.3,399.7,33.1,400.8,33,401.9z"/>
			<path fill="#C68342" d="M120.3,435.2c0.9-0.8,1.4-1.6,1.8-2.5c-3.6-0.9-7.2-1.5-10.9-1.6c-1.3,0-2.6,0-3.9,0
				c-18.3,0.4-35,6.5-51.2,14.6c1.2,2.3,2.5,3.9,4.7,5.1c15.4-11.4,32.3-15,51.6-15.7C115,435,117.7,435,120.3,435.2z"/>
			<path fill="#C68342" d="M123.9,425.3c0-0.1,0.1-0.2,0.1-0.3c-3.7-0.6-7.4-1.1-11.1-1.3c-12-0.7-24-0.2-35.9-0.3
				c-5.6,0-11.1-0.2-16.6-0.1c-5.5,0.1-11,0.4-16.6,1.2c-3.4,0.5-6.8,1.2-10.2,2L34,431c5.4-2.1,10.5-3.7,13-4.2
				c6-1.2,12.3-1.1,18.4-1.8c2.1-0.3,4.2-0.4,6.3-0.5c0.9,0,3.5-0.4,2.7,0c-4.5,2-10.1,2.4-14.7,4.5c-7.2,3.1-13.5,7.8-20.9,10.5
				c-0.4,0.1-2.4,0.7-3.6,1.1l0.1,1.1c0,0,6.2-1,11.8-0.6c5.1-2.9,10.4-5.6,15.8-7.8c19-7.6,40.4-9.2,60.5-6.3
				C123.6,426.3,123.7,425.8,123.9,425.3z"/>
			<path fill="#C68342" d="M164.7,397.1c2.5-0.1,5-0.4,7.5-0.6c0-0.8,0-1.6-0.1-2.4c-3.1,0.3-5.9,0.6-7.3,0.6
				c-11.2,0.6-22.9,1.1-33.8,3.7c-14.7,3.4-28.8,9.4-43.5,12.5c-12.7,2.7-25.6,3.9-38.5,4.9c-5.4,0.4-10.9-0.4-16.3,0
				c0.1,0.8,0.3,1.6,0.6,2.3c1,0.3,1.9,0.5,2.9,0.8c0.2,0,0.4-0.1,0.6-0.1c4.9-0.3,9.7-1.1,14.6-1.2c13.4-0.1,27.7,1,40.9-2.4
				c13.1-3.4,25.3-9.8,38.5-13.3C141.8,399,153.1,397.8,164.7,397.1z"/>
			<path fill="#C68342" d="M73.2,453.5c3.7,0.4,7.8,0.5,11.9,0.3c2.1-1.5,4.6-3,7.8-4.6c4.5-2.2,10.5-3.7,16.4-3.8
				c0.7-1.2,1.4-2.2,2-3.2c-0.6,0-1.3,0-1.9,0c-12.5,0.2-27.6,4.1-38.8,10.9C71.5,453.3,72.3,453.4,73.2,453.5z"/>
			<path fill="#A66425" d="M96.7,411.5c-8.2,2.7-19.9,3.9-19.9,3.9c14.4,3.5,42.5-12.3,42.5-12.3S104.8,408.8,96.7,411.5z"/>
			<path fill="#A66425" d="M53.5,399c4.2-0.2,9.1-0.8,15.2-2.2c5.5-1.2,11.4-2.9,14.9-4c3.8-1.1,6.1-1.9,6-2.1
				c-0.1-0.2-2.5,0.1-6.3,1c-3.9,0.8-9.1,2.2-15,3.5c-6.2,1.4-10.7,2.1-14.9,2.6c-3.8,0.5-6.3,0.6-6.3,0.8
				C47.1,398.9,49.6,399.2,53.5,399z"/>
			<path fill="#A66425" d="M80.1,438c1.4-0.3,2.8-0.7,4.3-1c4.2-0.8,8.3-1.4,11.5-2.1c5.3-1,8.7-1.8,8.7-2c0-0.3-3.6,0-8.9,0.7
				c-3,0.4-7.6,1-11.6,1.8c-1.5,0.3-3,0.6-4.4,1c-4.7,1.3-8.2,2.9-10.8,4.6c-2.5,1.6-3.7,2.9-3.5,3.1s1.5-0.8,4.1-2.1
				C72.1,440.6,75.5,439.2,80.1,438z"/>
			<path fill="#A66425" d="M90.7,447.2c3.4-1.3,6.2-1.8,6.2-2.2c0-0.6-3.2-0.7-6.8,0.6c-3.6,1.4-6.1,3.3-5.9,3.7
				C84.4,449.7,87.3,448.5,90.7,447.2z"/>
			<path fill="#A66425" d="M67.6,429.9c4.5-1.7,8-2.6,11.1-3.2c2.9-0.5,4.8-0.7,4.8-0.9c0-0.2-1.9-0.5-4.9-0.3
				c-3.2,0.3-7,1.1-11.5,2.7c-4.3,1.6-8.3,3.6-10.9,4.9c-2.7,1.4-4.3,2.4-4.2,2.6c0.1,0.2,1.9-0.4,4.7-1.5
				C59.4,433.2,63.3,431.4,67.6,429.9z"/>
		</g>
		<g id="g117">
			<path fill="#A66425" d="M167.8,466.2c0.1,2.8,1.9,6.2,1.9,6.8c0.2,3.3,150.9,2.1,150.9,2.1l5.3-52.5l-2.1-6.9l-24.4-0.2l9.2-23.8
				c0,0-0.1-6-2.2-7c-5.2-2.5-19.3-1.7-50.9-4.1c-44.6-3.4-71.4,5.8-71.4,5.8l8.3,28.1l-24.5,11.4
				C167.9,425.8,167.3,453.7,167.8,466.2z"/>
			<path fill="#E6B075" d="M167.7,466.1c0.2,3.3,150.9,2.1,150.9,2.1l5.3-52.5l-26.5-7.2l9.2-23.8c0,0-8.5-7.7-53.1-11.1
				c-44.6-3.4-70,12-70,12l6.9,21.9l-24.5,11.4C165.9,418.9,167.5,462.7,167.7,466.1z"/>
			<path fill="#E0A465" d="M318.5,468.2l3.3-32.6c-14.7,9.5-37.5,19-72.3,23.7c-51.1,6.9-73-2.4-82.5-10.9
				c0.3,7.6,0.6,16.4,0.7,17.6C167.8,469.4,318.5,468.2,318.5,468.2z"/>
			<path fill="#D59859" d="M320.8,446c-4.9-1.2-10.5-2-17.1-2.2c-1.5-0.1-3-0.1-4.5-0.1c-10.3-0.1-19.9,1-32.9,2.2
				c-8.4,0.8-17.3,1.7-26.4,2.9c-11,1.4-21.5,3.1-31.4,4.9c-13,2.4-24.7,4.7-34.7,6.6c-2.2,0.4-4.4,0.8-6.4,1.1
				c0,0.8,0.1,3.4,0.1,3.8c2.2-0.2,4.5-0.5,6.9-0.8c11.4-1.5,20.6-3.2,34.9-5.5c9.9-1.6,20.2-3.1,31.2-4.6
				c9.1-1.2,17.8-2.2,26.2-3.1c15.3-1.6,24.7-3.1,36.8-3.2c6.5,0,11.9,0.4,16.8,1.2L320.8,446z"/>
			<path fill="#D59859" d="M266.2,460.3c-1.9,0.2-3.8,0.4-5.8,0.6c-16.7,1.7-33.2,4.7-46.3,7.3c9.8,0.1,20.4,0.2,30.9,0.2
				c5.3-0.7,10.7-1.4,16-2c1.9-0.2,3.8-0.4,5.7-0.6c20.6-1.9,37.4-1.7,52.1-0.4l0.4-4.2c-8.8-1.2-18.5-2-29.4-2
				C282.4,459.3,274.6,459.6,266.2,460.3z"/>
			<path fill="#D59859" d="M212.6,414.5c-0.9,0.1-1.9,0.2-2.8,0.4c-2.4,0.4-4.7,0.9-6.9,1.3c-10.3,2-18.3,3.6-26.6,5.1
				c-3.7,0.7-7,1.4-10.2,2.1c0,0.7,0.1,2.6,0.1,3.7c2.8-0.5,6-1,10.7-1.6c8.2-1.1,16.9-2.5,26.9-4.2c2.2-0.4,4.6-0.8,6.8-1.1
				c0.8-0.1,1.6-0.2,2.5-0.3c5.1-0.4,10-1.2,15.2-2.1c2.7-0.4,5.7-0.8,8.6-1.4c1.2-0.2,2.4-0.5,3.6-0.8c0.3-0.1,0.6-0.2,0.9-0.2
				c0.5-0.1,1.1-0.4,1.8-0.7c0.3,0.2,1.1-0.5,2-2.2c0.2-1.6-0.1-2.7-0.8-3.2c-0.6-0.6-1.1-0.9-1.5-1.1c-1.1-0.5-2.1-0.8-2.9-1
				c-1.4-0.4-2.8-0.7-4.3-0.9c-2.5-0.3-4.9-0.4-7.3-0.4c-2.4,0-4.7,0.1-6.9,0.2c-12.2,0.3-22.9,1.1-32.7,2.3l-12.2,5.7
				c2.5-0.3,5-0.6,8-0.8c11-1,22.9-1.6,37.1-1.7c3.6,0,7.4-0.2,11,0.1c-1.7,0.3-3.4,0.6-5.1,0.8C222.1,413.2,217.4,414,212.6,414.5z
				 M240.6,409.5c0,0,0,0.1-0.1,0.2c0,0-0.1,0-0.1,0C240.6,409.6,240.6,409.5,240.6,409.5z"/>
			<path fill="#D59859" d="M322.2,432c-3.6-0.4-7.4-0.7-11.6-0.7c-1.8,0-3.6,0-5.4,0c-12.7,0.1-25.8,1.6-41.2,3.9
				c-5.6,0.8-11.3,1.7-17.1,2.7c-34.5,5.5-52.6,8.4-76.8,10.9c-1.1,0.1-2,0.2-3,0.3c0.1,1.6,0.1,2.3,0.1,3.8c1.1,0,2.1-0.1,3.2-0.1
				c22.3-1.1,45-4.2,77.4-9.3c7.1-1.1,10-1.6,17.1-2.7c17.7-2.8,31.6-4.6,45.8-4.8c4.1,0,7.8,0.1,11.2,0.3L322.2,432z"/>
			<path fill="#D59859" d="M282.4,381c-5.3-0.6-10.9-2.6-17.2-3.9c-2.5-0.5-5.1-1-7.7-1.5c-5.4-1-10.6-1.8-15.5-2.5
				c-0.2,0-0.3,0-0.5,0c-11.3-0.1-21.1,1.1-29.2,2.7c12.5,0.4,26.2,1.9,44.2,5.3c2.6,0.5,5.1,1,7.6,1.5c5.9,1.2,11.8,3.1,17.9,3.7
				c9.3,0.7,17.5,0.3,24.4-0.7l0.3-0.7c0,0-1.5-1.3-6.1-3C295,381.9,289,381.7,282.4,381z"/>
			<path fill="#D59859" d="M265.9,412.5C265.9,412.5,265.9,412.5,265.9,412.5c0,0-0.1,0.1-0.3,0.3c-0.3,0.3-0.9,0.6-1.5,0.9
				c0,0-0.1,0-0.1,0c-1.6,0.7-3.4,1.2-5.3,1.7c-2,0.5-4.1,0.8-6.1,1.1c-1.4,0.2-2.8,0.4-4.3,0.7c-25.9,5.1-50.3,8.3-66.8,10.4
				c-6.1,0.8-11.1,1.8-15.2,2.7c0,0.9,0.1,1.4,0.1,2.5c4.2-0.4,9.4-1.1,15.4-1.5c16.8-1.1,41-3.6,67.5-8.6c1.2-0.2,2.6-0.4,4.1-0.6
				c2.1-0.3,4.3-0.7,6.5-1.2c2.1-0.5,4.2-1,6.4-2c0,0,0.1,0,0.1-0.1c0.9-0.4,1.8-0.9,2.7-1.7c0.8-0.6,1.5-1.5,2-2.8
				c0.4-1.4,0.4-2.8-0.1-4.1c-0.5-1.3-1.3-2.4-2.1-3.1c-2-1.9-4.3-3.1-6.3-4c-2.2-1-4.5-1.8-6.7-2.5c-1.4-0.4-2.9-0.8-4.2-1.1
				c-6.8-1.7-13.6-2.4-20.1-2.4c-8.3-0.1-16.2,0.8-22.9,2c-7.6,1.3-14.1,2.8-19.8,4.2l1.1,3.5c6.1-1.2,13-2.5,19.3-3.3
				c11.7-1.5,26.6-2.4,41,1.4c1.3,0.4,2.7,0.7,4,1.1c2.1,0.6,4.1,1.4,6.1,2.3c1.9,0.9,3.6,1.7,4.7,2.9c0.4,0.4,0.7,0.8,0.8,1.1
				C266,412.1,266,412.3,265.9,412.5C266,412.5,266,412.5,265.9,412.5z"/>
			<path fill="#D59859" d="M186,393.7l0.7,2.3c4.2-1.8,10.4-4,18.4-5.3c7.9-1.3,16.6-1.5,27-0.8c6.5,0.4,13.1,1.2,20.3,2.2
				c2.6,0.4,5.1,0.7,7.6,1.1c9.9,1.5,18,2.7,26.7,3.4c5.1,0.4,10.4,0.3,15.2-0.1l1.6-4.2c-5.3,0.1-11.1,0-16.3-0.6
				c-9-1.1-15.9-2.4-26.4-4c-2.5-0.4-5.1-0.8-7.7-1.1c-7.2-1-14-1.7-20.7-2c-2.7-0.1-5.2-0.2-7.7-0.2c-7.5,0-14.2,0.7-20.3,2.1
				C196.2,388.4,190.1,391.2,186,393.7z"/>
			<path fill="#D59859" d="M265.9,412.5C265.9,412.5,265.9,412.5,265.9,412.5C266,412.5,266,412.5,265.9,412.5z"/>
			<path fill="#D59859" d="M291.7,414.2c-8.2,2-17,4.7-26.5,6.9c-9.6,2.3-20.1,4.7-30.8,6.9c-27.8,5.8-49,8.6-67.8,10
				c0.1,2,0.1,2.1,0.2,4.1c18.9-0.5,41.3-2.9,68.8-8.6c10.8-2.2,21.3-4.7,30.9-7.2c9.7-2.5,18.5-5.4,26.4-7.6
				c9.6-2.7,16.3-4.4,23-5.1l-9.1-2.5C302.3,411.7,297.4,412.8,291.7,414.2z"/>
			<path fill="#A66425" d="M258.9,390.5c8.3,1.2,15.8,2.7,20.9,3.5c1.5,0.2,3.1,0.2,4.1,0.2c2.3,0,3.5,0.1,3.5-0.1
				c0.1-0.2-1.2-0.8-3.4-1.1c-0.9-0.1-2.6-0.3-3.8-0.6c-4.9-1.3-12.7-3.1-20.9-4.3c-8.1-1.2-14.9-1.6-20.4-1.4
				c-5.2,0.1-8.4,0.7-8.4,1.1c0,0.4,3.2,0.4,8.4,0.8C244.5,388.6,250.6,389.2,258.9,390.5z"/>
			<path fill="#A66425" d="M265.4,415.3c-1.3,1.6-3.2,2.1-3.1,2.5c0.1,0.3,1.9,0.8,4.3-1.1c1.1-1,1.9-2.3,2.5-3.9
				c0.6-1.6,0.7-3.7-0.3-5.6c-0.2-0.3-0.4-0.6-0.6-0.9c-1-1.2-2.2-2.1-3.4-2.7c-1.8-1-3.7-1.7-5.1-2.2c-2.8-0.9-4.5-1.3-4.7-0.9h0
				c-0.2,0.3,1.4,1.4,3.9,2.7c1.2,0.6,3.1,1.5,4.6,2.5c1,0.6,2,1.4,2.6,2.2c0.2,0.2,0.3,0.4,0.4,0.6c0.6,1,0.6,2.4,0.3,3.5
				C266.5,413.5,266.1,414.5,265.4,415.3z"/>
			<path fill="#A66425" d="M216.9,446.7L216.9,446.7c7.1-1.3,15.6-3.1,22.7-4.4c5.8-1,9.4-1.6,9.4-1.9c0-0.4-3.7-0.5-9.7,0.1
				c-6.9,0.7-13.1,1.9-22.9,3.7l0,0c-9.7,1.8-16,2.7-22.8,3.2c-5.8,0.4-9.5,0.4-9.5,0.7c0,0.4,3.6,1.1,9.6,1.1
				C200.2,449.2,207.5,448.4,216.9,446.7z"/>
			<path fill="#A66425" d="M310.5,445.6c0,0.1,0.1,0.2,0.3,0c0,0,0-0.1,0-0.1c0,0,0-0.1,0-0.1c-0.2-0.2-0.6-0.3-1-0.6
				c-0.9-0.3-2-0.5-3.7-0.7c-1.2-0.2-2.7-0.4-4.3-0.5c-0.8-0.1-1.6-0.2-2.5-0.2c-3.6-0.2-7.6-0.1-12,0.2c-5.3,0.4-10.5,1.1-14.3,1.7
				c-5.7,0.9-9.2,1.7-9.2,2.1l0,0c0,0.4,3.8,0.4,9.5,0c4.9-0.4,9.4-0.8,14.3-1.1c4.5-0.3,8.2-0.5,11.8-0.6c0.8,0,1.7,0,2.4,0
				c1.5,0,3.1,0,4.3,0c1,0,3.5,0,3.7,0c0.4-0.1,0.6-0.2,0.8-0.2c0.1,0,0.1,0,0.1,0c0,0,0,0,0,0C310.7,445.5,310.5,445.5,310.5,445.6
				z"/>
			
				<path fill="none" stroke="#A66425" stroke-width="2.1484" stroke-linecap="round" stroke-linejoin="round" stroke-miterlimit="10" d="
				M192.8,412.7l-21,9.8c0.2,5.5,1.1,30.7,1.4,38.7c0.5,0,0.7,0.1,1.4,0.1c4,0.3,9.8,0.5,16.9,0.7c14.1,0.4,32.9,0.5,51.7,0.6
				c35.1,0.1,65.5-0.1,70.2-0.2l4.3-42.5l-21.8-5.9c-3.1-0.8-4.9-4-4-7c0.1-0.2,0.1-0.4,0.2-0.6l7.3-18.9c-1.2-0.5-2-1-4.2-1.6
				c-7.2-2.2-20-4.9-42-6.6c-5.4-0.4-10.5-0.5-15.2-0.5c-24.5,0.5-40.5,6.5-47.4,9.7l5.4,17.2C196.7,408.6,195.4,411.5,192.8,412.7z
				"/>
		</g>
		<g id="g135">
			<path fill="#A66425" d="M480.9,406.3c0,0-0.8-7.1-3.1-7.3c-6.7-0.6-21.6,5.2-31.7,5.3c-6.6-23.8-22.1-28.1-47.1-25
				c-25,3.1-26.7,23.8-26.7,23.8l-33.7,4.4l-3.1,62.4l2.5,7.7l143.2-1L480.9,406.3z"/>
			<path fill="#E6B075" d="M443.3,396.9c-6.6-23.8-22.1-28.1-47.1-25c-25,3.1-26.7,23.8-26.7,23.8l-33.7,4.4l-0.6,70.1l143.2-1
				l-0.2-70.3C478.1,398.9,456.9,396.8,443.3,396.9z"/>
			<path fill="#E0A465" d="M472.3,398.4c-7,18.2-23.3,41.9-61.2,51.8c-41.1,10.8-64.3,7.2-75.8,3.1l-0.1,16.9l143.2-1l-0.2-70.3
				C478.1,398.9,475.6,398.7,472.3,398.4z"/>
			<path fill="#C68342" d="M419.9,379.9c3.2-1.3,6.2-2.7,9.1-4.3c-1.4-0.9-2.9-1.6-4.5-2.2c-2.4,0.9-4.8,1.7-7.1,2.5
				c-13.1,4.5-26.6,5.1-40.1,4.3c-1.6,1.5-2.8,3.1-3.8,4.7C389.2,386,405.6,385.5,419.9,379.9z"/>
			<path fill="#C68342" d="M338.3,406.4c-0.9,0-1.7-0.1-2.6-0.1l0,4.2c4.2,0.9,8.3,1.2,12.6,1.3c10.4,0.3,21-1.3,31.4-2
				c14.1-1,28.8-1.9,42.7-4.7c12.7-2.5,25.6-7.2,38.7-7.6c-6-0.4-12.5-0.7-17.8-0.7c0,0,0,0,0,0c-5,0.8-10,1.7-15,2.5
				c-23.9,3.7-47.2,7.7-71.4,7.7C350.7,407.1,344.5,406.7,338.3,406.4z"/>
			<path fill="#C68342" d="M335.6,424.9c7.7-0.2,15.7,0.1,23.3-0.9c15.7-2.1,31.1-8.1,46.9-10c20.9-2.5,41.4,2.4,61.8,6.1
				c3.1,0.6,7,1.3,10.6,2.3l0-3.4c-3.2-1.1-6.5-2-9.7-2.7c-13.4-3-26.8-4.2-40.1-4.4c-22.1-0.3-44.2,2.5-66.6,5.6
				c-7.3,1-15.2,2.2-22.6,1.9c-1.2,0-2.4-0.1-3.6-0.2L335.6,424.9z"/>
			<path fill="#C68342" d="M369.5,395.6l-12.1,1.6c0.3,0,0.5,0,0.8,0c11.2,0.3,21.9-0.6,32.8-2.5c8.7-1.5,17.6-1.7,26.3-3.3
				c7.4-1.4,14.4-3.1,21.9-3.5c0.2,0,0.4,0,0.6,0c-0.3-0.6-0.6-1.2-0.9-1.8c-7.2,1-14.4,1.9-21.6,2.8c-16,2-31.2,4.3-47,2.9
				C369.7,394.1,369.5,395.6,369.5,395.6z"/>
			<path fill="#C68342" d="M335.2,470.2l0.7,0c-0.2-0.1-0.5-0.1-0.7-0.2L335.2,470.2z"/>
			<path fill="#C68342" d="M449.2,461.6c-18.4,0-38.9,3.7-56.2,7.3c-1.5,0.3-3,0.6-4.4,0.9l24.6-0.2c0.9-0.3,1.8-0.6,2.7-0.9
				c8.1-2.5,17-2.9,25.4-4c8.5-1.1,16.4-0.9,24.9,0c4.1,0.4,8.1,0.1,12.2,0.4l0-2.6c-7.1-0.4-14.3-0.3-21.4-0.8
				C454.4,461.6,451.8,461.6,449.2,461.6z"/>
			<path fill="#C68342" d="M335.4,442.4c12.5-3.7,25.6-4.2,38.6-5.3c13.6-1.2,27.1-3.6,40.8-3.6c14.1,0,28,2.3,42,3.1
				c5.3,0.3,15.8,0.2,21.3,4.2l0-4.8c-8.1-2.7-18.1-3.9-25-4.6c-9.7-1.1-19.4-1.6-29.1-1.7c-16.2-0.2-32.3,0.8-48.4,2.2
				c-13.4,1.2-26.8,3.1-40.3,3.8L335.4,442.4z"/>
			<path fill="#C68342" d="M335.3,459.8c4.9,0.6,10.9,0.1,13.2-0.1c12.2-0.8,24.3-2.4,36.6-2.9c12.2-0.5,24.3-0.1,36.5-0.7
				c15.3-0.7,30.5-2.6,45.7-4.6c0.8-0.1,5.8-0.7,11.1-1.8l0-2.5c-5,1.2-14.1,2.1-15.3,2.2c-17.4,1.7-34.6,4-52.2,4.7
				c-6.9,0.3-13.8-0.3-20.7-0.3c-11.4-0.1-22.8,0.8-34.1,1.3c-5.6,0.3-11.2,1.2-16.8,0.7c-1.3-0.1-2.6-0.3-3.7-0.5L335.3,459.8z"/>
			<path fill="#A66425" d="M384.1,408.1c14.7-1.3,29.7-3,44.2-6.2c3.4-0.7,6.8-2.3,10-2.9L384.1,408.1z"/>
			<path fill="#A66425" d="M416.1,429.4c-22,0.4-44,2.9-65.5,7.4l82.7-7C427.5,430.1,421.8,429.3,416.1,429.4z"/>
			<path fill="#A66425" d="M356.9,457.6l37.3-2.2C381.7,455,369.2,455.1,356.9,457.6z"/>
			<path fill="#A66425" d="M434.5,455.8c8.6-0.6,17-2.4,25.4-4.2l-65.6,3.8C407.7,455.8,421.1,456.8,434.5,455.8z"/>
			<path fill="#A66425" d="M340.8,409.1c6.3,0.6,12.8,0.9,19.2,0.4L340.8,409.1z"/>
			<path fill="#A66425" d="M374,393.9c12.8,0.8,26.3-0.7,38.9-3.1L374,393.9z"/>
			<path fill="#A66425" d="M420.8,376l-33.9,7.8C398.7,383.8,409.6,379.6,420.8,376z"/>
			<path fill="#A66425" d="M415.9,467.7l39.1-3.7C442.2,462,428.5,464.7,415.9,467.7z"/>
		</g>
	</g>
</g>
</svg>
