<?xml version="1.0" encoding="utf-8"?>
<!-- Generator: Adobe Illustrator 26.4.1, SVG Export Plug-In . SVG Version: 6.00 Build 0)  -->
<svg version="1.1" id="Layer_1" xmlns="http://www.w3.org/2000/svg" xmlns:xlink="http://www.w3.org/1999/xlink" x="0px" y="0px"
	 width="500px" height="500px" viewBox="0 0 500 500" enable-background="new 0 0 500 500" xml:space="preserve">
<g id="g44">
	<g>
		<path fill="#A66425" d="M59,217.6c-9.2,13.3,1,64.5,6.7,87.8c5.7,23.3,33,8.7,44.2,16.4c11.1,7.7-0.3,28.2,19.6,41.5
			c19.9,13.3,207.1,18.3,226.7,14.9c19.6-3.4,16.2-25.2,37.4-38.2c21.1-13,41.8-9.7,47.2-29.3c5.4-19.6,4.9-51.1-4.3-67.9
			c-9.2-16.9,12.4-33-2-56c-10.3-16.5-93.4-7.9-107.9-15.4c-14.5-7.4-13.2-21.9-33.1-32.8c-19.9-10.9-128-13-162.8-10.1
			c-34.8,2.9-24.7,20.2-23.2,38.7v0c2.1,9-4.5,22.3-8.3,31.9C95.5,208.7,68.2,204.3,59,217.6z"/>
	</g>
	<g>
		<path fill="#C68342" d="M60.7,213.3c-9.2,13.3,3.2,53.9,8.9,77.2c5.7,23.3,29.7,11.2,40.9,18.9c11.1,7.7-0.3,28.2,19.6,41.5
			c19.9,13.3,207.1,18.3,226.7,14.9c19.6-3.4,16.2-25.2,37.4-38.2c21.1-13,41.8-9.7,47.2-29.3c5.4-19.6,4.9-51.1-4.3-67.9
			c-9.2-16.9,7.2-30.6-3.5-46.9c-10.6-16.3-91.9-17-106.3-24.5c-14.5-7.4-13.2-21.9-33.1-32.8c-19.9-10.9-122.1-2.4-156.9,0.4
			c-34.8,2.9-30.7,9.7-29.1,28.2c2.1,9-4.5,22.3-8.3,31.9C95.9,196.3,69.9,200,60.7,213.3z"/>
	</g>
	<g>
		<path fill="#E6B075" d="M296.6,233.2c0,0.6,19.8-1.2,33.9-5.1c20.3-5.7,39.3-9.4,59.4-16.2c7.7-2.6,28.6-10.2,47.1-18.8
			c-0.4-3.1-1.4-6.3-3.5-9.6c-2.4-3.6-8.4-6.5-16.3-8.8c-0.8,0.7-1.6,1.3-2.4,2c-20.1,17.7-42.9,23.5-69.1,29.9
			C336.8,208.7,296.6,233.2,296.6,233.2z"/>
	</g>
	<g>
		<path fill="#E6B075" d="M99.8,186.7c-2.7,6.8-16.6,10.7-27.7,17.1c6.5,1.6,13.5,1.4,18.6,4.1c74.4,38.8,129.6,32.7,192.7,19.1
			c24.6-5.3,47-23.7,70-33.8c13.5-5.9,27-13.9,37.9-24c-19.7-3-41.5-4.9-54.5-7.5v0c-18.8,8.2-39.4,11.6-59.2,16.6
			c-12.5,3.2-24.5,8.3-37.4,10.2c-13.5,2-26.9,1.3-40.5,1.4c-36.6,0.4-65.8-0.5-98.6-6.6C100.7,184.5,100.2,185.7,99.8,186.7z"/>
	</g>
	<g>
		<path fill="#E6B075" d="M137.1,126.6c-26.6,2.2-30.4,6.7-30.1,17c35.6-2,79.9-13.5,105.5-21.9C182.8,122.9,153,125.3,137.1,126.6z
			"/>
	</g>
	<g>
		<path fill="#E6B075" d="M147.6,181.3c56.7-0.9,106.1,4.7,156.3-32.9c2.7-2,6.6-1.8,9.9-2.8c-4.3-6.4-8.8-13.4-19.7-19.4
			c-1.4-0.8-3.3-1.4-5.5-2c-9.9,3.1-19.9,6-29.8,8.5c-33.4,8.7-68.5,15.6-102.8,20c-15.5,2-31.8,2.5-48,1.7c0,0.1,0,0.2,0,0.3
			c1.2,5.2-0.5,11.9-2.9,18.4C118.6,174,134.1,181.5,147.6,181.3z"/>
	</g>
	<g>
		<path fill="#E6B075" d="M356.6,365.8c5.6-1,9.3-3.5,12.2-6.8c-15.1,0.5-35.4,3.4-53.7,7.8C336,367,351.7,366.7,356.6,365.8z"/>
	</g>
	<g>
		<path fill="#E6B075" d="M170.7,342.5c-15,0-30.3,2.1-45.4,4.5c1.3,1.3,2.8,2.6,4.7,3.9c2.9,2,9.9,3.7,19.1,5.3
			c37.8-6.4,76.9-5.8,114.1-14.9c5.3-1.3,25.2-2.7,28.6-8c4.4-6.7-17.3-7.9-28.8-8v0c-3.8,0-6.6,0-6.8,0
			c-42.6,2.2-96.4-2.6-137.3,7.3c-0.4,0.1-0.6,0.2-1,0.3c0.7,3.3,1.8,6.6,3.9,9.7c22.5-1.5,49.2-4.3,53.9-4.4
			c1.2,0,23.7-0.5,22.9,1.9C197.3,343.7,173.8,342.5,170.7,342.5z"/>
	</g>
	<g>
		<path fill="#E6B075" d="M67.7,283.1c7.1,0.3,14.4-1.3,21.3-2.9c72.2-16.3,130.7-2.5,201.9-4.9c30.5-1.1,61.7-9.4,91-17.1
			c19.6-5.2,39.8-10.9,59.3-17.3c-1.1-3.9-2.5-7.5-4.2-10.6c-2.4-4.5-3.1-8.7-2.9-12.9c-14.5,5.1-28.9,5.9-43.7,10
			c-63,17.1-126.6,28.5-191.9,21.3c-14.2-1.6-26.5-5.1-40.3-8.2c-24.7-5.5-50.2-7.6-75.2-11.7c-3-0.5-14-2.8-25.3-5.5
			C56,239.1,62.8,264.3,67.7,283.1z"/>
	</g>
	<g>
		<path fill="#E6B075" d="M443.7,254.3c-3.8,1.7-7.4,3.4-10.5,4.7c-34.5,14-81.4,24.7-118.7,24.7c-1.4,0,2.7,0.2,4.1,0.4
			c5.8,0.6,11.3,1.9,16.9,3.1c15.3,3.2,30.9,5.1,46.5,5.3c21.2,0.2,41.9-6.2,62.1-11.8C444.9,272,444.8,262.9,443.7,254.3z"/>
	</g>
	<g>
		<path fill="#E6B075" d="M374.8,350.1c4.2-7.4,8.7-16,19.2-22.5c15.4-9.5,30.5-10.3,39.7-17.7c-7.4,0.3-14.9,0.2-22.3-0.1
			c-41.5-1.4-81.9-8.8-122.9-14.3c-46.5-6.2-93.9-7.6-140.8-8.2v0c-25.2-0.3-50.1,4-74.2,10.9c-0.1,0-0.3,0.2-0.4,0.2
			c8.9,12.2,27.8,4.3,37.3,10.9c4.8,3.3,5.4,9.1,6.1,15.6c50.1-12.9,115.1-15.7,159.2-11.1c5.5,0.6,52.3,4.8,52,12.6
			c-0.4,10-13.6,11.8-20.7,13.4c-36.7,8.3-75.1,16.7-113.1,21.6c25.6,2.1,55,3.6,82,4.4c17.9-4.6,35.8-9.1,53.7-12.4
			c13.8-2.6,28.6-2.9,42.6-3.4C373.1,350,373.9,350.1,374.8,350.1z"/>
	</g>
	<g>
		<path fill="#E0A465" d="M236.7,302.7c-59.7,1.3-100-4.4-127.5-12.4c-12,1.9-23.9,4.6-35.7,8c-0.1,0-0.3,0.2-0.4,0.2
			c8.9,12.2,27.8,4.3,37.3,10.9c4.8,3.3,5.4,9.1,6.1,15.6c50.1-12.9,115.1-15.7,159.2-11.1c5.5,0.6,52.3,4.8,52,12.6
			c-0.4,10-13.6,11.8-20.7,13.4c-36.7,8.3-75.1,16.7-113.1,21.6c25.6,2.1,55,3.6,82,4.4c17.9-4.6,35.8-9.1,53.7-12.4
			c13.8-2.6,28.6-2.9,42.6-3.4c0.9,0,1.7,0,2.6,0c4.2-7.4,8.7-16,19.2-22.5c15.4-9.5,30.5-10.3,39.7-17.7
			c-7.4,0.3-14.9,0.2-22.3-0.1c-41-1.4-80.9-8.7-121.4-14.1C273.7,299.8,256,302.3,236.7,302.7z"/>
	</g>
	<g>
		<path fill="#E0A465" d="M360.5,263.8c7.2-1.8,14.3-3.7,21.4-5.5c19.6-5.2,39.8-10.9,59.3-17.3c-1.1-3.9-2.5-7.5-4.2-10.6
			c-2.4-4.5-3.1-8.7-2.9-12.9c-10.7,3.8-21.7,6.6-32.7,9.4C390,239.8,376.5,252.5,360.5,263.8z"/>
	</g>
	<g>
		<path fill="#E0A465" d="M433.4,183.4c-0.3-0.4-0.6-0.8-1-1.2c-3.1,5.6-6.6,11.4-10.5,17.4c5-2.1,10.1-4.3,15.1-6.6
			C436.6,189.9,435.6,186.7,433.4,183.4z"/>
	</g>
	<g>
		<path fill="#E0A465" d="M323.1,284.6c4.2,0.7,8.3,1.6,12.5,2.5c15.3,3.2,30.9,5.1,46.5,5.3c21.2,0.2,41.9-6.2,62.1-11.8
			c0.7-8.6,0.7-17.7-0.4-26.3c-3.8,1.7-7.4,3.4-10.5,4.7c-31,12.6-72.1,22.5-107.3,24.3C325,283.7,324.1,284.2,323.1,284.6z"/>
	</g>
	<g>
		<path fill="#E0A465" d="M67.7,283.1c5.7,0.3,11.4-0.7,16.9-1.9c-9-4.2-15.6-8.6-20.7-12.7C65.2,273.6,66.5,278.6,67.7,283.1z"/>
	</g>
	<g>
		<path fill="#E0A465" d="M356.6,365.8c5.6-1,9.3-3.5,12.2-6.8c-15.1,0.5-35.4,3.4-53.7,7.8C336,367,351.7,366.7,356.6,365.8z"/>
	</g>
	<g>
		<path fill="#E0A465" d="M170.7,342.5c-15,0-30.3,2.1-45.4,4.5c1.3,1.3,2.8,2.6,4.7,3.9c2.9,2,9.9,3.7,19.1,5.3
			c37.8-6.4,76.9-5.8,114.1-14.9c5.3-1.3,25.2-2.7,28.6-8c4.4-6.7-17.3-7.9-28.8-8c-3.8,0-6.6,0-6.8,0c-42.6,2.2-96.4-2.6-137.3,7.3
			c-0.4,0.1-0.6,0.2-1,0.3c0.7,3.3,1.8,6.6,3.9,9.7c22.5-1.5,49.2-4.3,53.9-4.4c1.2,0,23.7-0.5,22.9,1.9
			C197.3,343.7,173.8,342.5,170.7,342.5z"/>
	</g>
	<g>
		<polygon fill="#C68342" points="133.9,203 133.9,203 133.9,203 		"/>
	</g>
	<g>
		<path fill="#C68342" d="M165,215.9c48.4,12.6,130-11,168.5-38.2c-32.1,22-96.4,34.2-134.5,35.8c-12,0.5-23.3-3.1-35.1-4.5
			c-10.1-1.2-21.2-0.3-30-6C134.8,210.5,159.6,214.5,165,215.9z"/>
	</g>
	<g>
		<path fill="#C68342" d="M240.5,159.3c14.2-4.8,27.6-12.4,41.2-18.5c-14.1,3-28.4,9.7-42.3,14.2c-14.5,4.7-29.7,6.2-44.8,8
			c-11.6,1.4-23.5,4.6-35,1.5C170.5,178.7,227.5,163.6,240.5,159.3z"/>
	</g>
	<g>
		<path fill="#C68342" d="M92.8,261.3c11.7,2.8,22.9,1,34.7,0.5c24-1,48.5,1.5,72.4,2c-41.1-9.2-85.4-16.4-127.7-12.7l0,0
			C71.8,257.1,88.8,260.3,92.8,261.3z"/>
	</g>
	<g>
		<path fill="#C68342" d="M423.1,233.5c-38.7,2.5-76,20-114.7,23.1c4.1,2.1,9.6,0.8,14.1,1C357.6,258.7,390.9,245.8,423.1,233.5z"/>
	</g>
	<g>
		<polygon fill="#A66425" points="207.3,243.4 207.3,243.4 207.3,243.4 		"/>
	</g>
	<g>
		<path fill="#A66425" d="M225.9,245.6c12,0.2,28-1.3,46.5-6.9c6.6-2,13.3-4.4,20.2-7.2c14.4-5.8,28.8-13,39.7-18.6
			c11.3-5.7,21.3-9.8,27.9-13.5c6.6-3.7,9.9-6.6,9.6-7c-0.2-0.3-3.9,1.8-10.7,4.9c-6.7,3.1-16.8,6.6-28.6,12.1
			c-10.8,5.1-25.9,12.3-39.7,17.9c-6.8,2.8-13.3,5.2-19.8,7.2c-18.1,5.7-33.4,7.7-45.2,8.3c-11.5,0.6-18.4,0-18.5,0.5
			C207.3,243.9,214.1,245.5,225.9,245.6z"/>
	</g>
	<g>
		<polygon fill="#A66425" points="196.1,281.1 196.1,281.1 196.1,281.1 		"/>
	</g>
	<g>
		<path fill="#A66425" d="M292.4,287.1c24.7,2.1,44.3,5.1,61.6,8.8c9.8,2.1,17.5,6,23.2,7.7c5.7,1.7,9,1.9,9.1,1.6
			c0.1-0.3-3.1-1.1-8.4-3.4c-2.5-1.1-15.6-7.3-23-9.2c-17.2-4.4-37.4-7.9-62.1-10c-25.6-2.2-51.9-2.4-68.4-2.4
			c-17.5,0-28.3,0.3-28.3,1c0,0.6,10.8,1.4,28.3,2.2C239.6,284.1,268.2,285.1,292.4,287.1z"/>
	</g>
	<g>
		<path fill="#A66425" d="M309.9,333.1c-5.5,3.5-12.7,5.5-17.9,7.1c-14.6,4.4-22,9.1-21.9,9.7c0.1,0.3,2.4,0.4,6.5-0.8
			c4-1.2,9.5-4,16.3-5.6c5.4-1.3,12.8-3.1,19.2-6.8c1.5-0.8,3.1-2,4.4-3.8c0.9-1.2,1.4-2.9,1-4.8c-0.6-1.8-1.7-3.1-2.8-3.9
			c-1.5-1.2-3.2-2.1-4.8-2.8c-3-1.3-6.1-2.3-9.4-3.2c-1.7-0.4-3.4-0.8-5-1.2c-13.8-2.9-27-3.8-37.5-4c-6.7-0.1-12,0.1-16.7,0.7
			c-2.6,0.3-4.6,0.7-6.3,1.1c-3,0.8-4.4,1.7-4.3,1.9v0c0.1,0.3,1.6-0.1,4.6-0.3c1.8-0.1,3.6-0.2,6.2-0.3c4.7-0.1,9.6,0.1,16.3,0.5
			c10.3,0.7,23.3,1.9,36.7,4.8c1.6,0.4,3.2,0.7,4.8,1.1c3.1,0.8,6,1.7,8.7,2.9c1.5,0.7,2.8,1.3,3.9,2.2c0.7,0.7,1.3,1.2,1.3,1.6
			c0.2,0.2,0,0.7-0.3,1.2C312.4,331.4,311.2,332.2,309.9,333.1z"/>
	</g>
</g>
</svg>
