<?xml version="1.0" encoding="utf-8"?>
<!-- Generator: Adobe Illustrator 26.4.1, SVG Export Plug-In . SVG Version: 6.00 Build 0)  -->
<svg version="1.1" id="Layer_1" xmlns="http://www.w3.org/2000/svg" xmlns:xlink="http://www.w3.org/1999/xlink" x="0px" y="0px"
	 width="500px" height="500px" viewBox="0 0 500 500" enable-background="new 0 0 500 500" xml:space="preserve">
<g id="g28">
	<g>
		<path fill="#A66425" d="M88.4,362.9c24.4,11.6,287.6,3.7,303.3,1.3c15.7-2.4,27.9-5.2,32.4-19.1c4.5-13.9,3.8-54.6,1.9-59.7
			c-1.9-5-7.4-10.4-7.4-10.4s5.2,3.9,6.9-8.2c1.7-12.2-2.1-101.8-2.4-112.7c-0.3-10.9-2.9-22.6-12.8-21.5
			c-9.9,1.1-336.4,38.8-336.4,38.8s1,21.7,2.2,36.8c1.2,15.2-4.6,66.7-2.6,77.8C75.5,297.3,64,351.3,88.4,362.9z"/>
	</g>
	<g>
		<path fill="#E6B075" d="M405.9,131.1c-15.2,0-54.7,6-72.1,6.2c0,0-95.7,2.6-123.8-1.4c-28.1-4-123.5-7.4-131.1-2.5
			c-7.7,5-5.6,57.4-5.6,57.4s16.4-1.9,28.6-1.2c12.2,0.7,32.5,2.3,32.5,2.3s-33.4,2.3-41.7,3.1c-8.3,0.8-17.3,2.7-17.3,2.7
			s0.6,32,0.1,47.7c-0.5,15.8-1.9,34.7-1.9,34.7s10.1,5.9,30.4,5.5c20.3-0.4,74.6,3.5,74.6,3.5s-47,3.1-58,3.2
			c-11,0.1-45.4-1.2-45.4-1.2s-2.5,32.4-0.2,45.3c2.3,12.8,7.8,16.8,21,18.4c13.2,1.6,171.1,4.5,202.2,2.6
			c31.1-1.9,93,5.9,110.4-9.5c17.4-15.4,13.1-59.2,10.3-65.7c-2.9-6.6-58.6-5.1-58.6-5.1s37.3-3.7,44.2-4.3c7-0.6,13.5-5.4,13.5-5.4
			s-2.9-95.8-2.1-112.3C416.9,138.3,421.1,131.1,405.9,131.1z"/>
	</g>
	<g>
		<path fill="#E0A465" d="M418,267.2c0,0-0.5-18.2-0.9-32.2c-21.3,9.2-53.9,23.4-162.3,70.4c-85.3,37-146.9,25.4-180.7,11.9
			c-0.1,7.3,0.1,14.4,1,19c2.3,12.8,7.8,16.8,21,18.4c13.2,1.6,171.1,4.5,202.2,2.6c31.1-1.9,93,5.9,110.4-9.5s13.1-59.2,10.3-65.7
			c-2.9-6.6-58.6-5.1-58.6-5.1s37.3-3.7,44.2-4.3C411.5,272,418,267.2,418,267.2z"/>
	</g>
	<g>
		<path fill="#C68342" d="M261.2,357.9c-4.7-15.3-19.2-43.3-63.6-51.7c-15.5-2.9-31.2-4-46.2-3.8c-33.5,0.3-62.5,6.3-77.2,10
			c-0.2,6-0.2,12.3,0.2,17.5c13.4-4.5,40.2-12.6,67.3-15c38.3-3.5,80.6,9,99.8,25.2c8,6.8,8.9,12.9,7.3,17.8
			C253.2,357.9,257.1,357.9,261.2,357.9z"/>
	</g>
	<g>
		<path fill="#C68342" d="M418.8,329c-8.6,2.3-21.9,4-41.8,1.9c-40-4.3-77.7-10.5-93.7-19.4c-16-8.9-31-12.6-31-12.6
			s26.6,23.5,46,28c16.2,3.8,92,9.3,117.4,11C416.9,335.2,418,332.2,418.8,329z"/>
	</g>
	<g>
		<path fill="#C68342" d="M417.3,240.1c-0.1-4.2-0.2-5.7-0.3-10.9c-22.2,0.7-57.7,1.6-82.1,1c-33.8-0.9-109.7,19.7-163.7,33.7
			c-32.8,8.5-71.4,5.5-96.7,1.9c-0.4,6.4-0.6,9.7-0.7,11.5c26.5,1.4,71.7,0.7,88-2.8c21.3-4.6,52.7-5.1,68.3-2.6
			c15.6,2.4,51,7.4,81.9,23.6c30.9,16.2,47.1,8.5,83.1,9.6c11.3,0.3,19.8,1,26.4,1.8c0.1-3.6-0.1-7.1-0.3-10.3
			c-23.3-0.1-56.4-0.6-74.7-2.9c-29.4-3.7-38-20-73.3-26.8c-35.3-6.7-71.1-2.1-71.1-2.1s75-19.6,108-24.1
			C334.1,237.6,388.9,239,417.3,240.1z"/>
	</g>
	<g>
		<path fill="#C68342" d="M280.1,357.8c4.6-0.1,8.6-0.1,12-0.3c3.7-2.6,9.7-4.5,19.7-4.2c10.1,0.3,21.2,2,31.6,4.2
			c16,0.3,32.3,0.1,45.1-2c-13.6-3.3-33.3-7.2-56.4-8.4c-2.7-0.1-5.3-0.2-7.8-0.2C300,346.9,286.6,353.3,280.1,357.8z"/>
	</g>
	<g>
		<path fill="#C68342" d="M318,176.7c18.9-4,69.2-5.8,97.8-6.5c0-4,0-7.3,0-10.1C380.9,162.9,329.6,168.3,318,176.7z"/>
	</g>
	<g>
		<path fill="#C68342" d="M121.6,332.6c-18.7,1.5-32.4,8.6-41.6,15.6c3.3,3.7,8.2,5.5,15.6,6.4c1.3-1.2,2.7-2.4,3.9-3.4
			c8.4-6.7,23.7-10.6,60.7-7c20.7,2,28.8,7.8,32.1,13.1c6.3,0.1,12.6,0.2,18.8,0.2c-15.7-14.4-50.6-25.8-82.1-25.3
			C126.5,332.3,124,332.4,121.6,332.6z"/>
	</g>
	<g>
		<path fill="#C68342" d="M73.1,181.7c14,0.3,36.9,1.3,58.4,4.8c32.9,5.4,37.6,17.9,102,14c-19.7,7.2-70.5,24.5-108.1,27.4
			c-20.5,1.6-37.9,0.8-49.7-0.3c0,4.2,0,7.8-0.1,11.5c18.3-1.2,49-3.2,69.5-5.3c27.9-2.9,86.6-27.1,119.1-32.2
			c32.5-5.1,117.7-9.5,136.8-10c4.7-0.1,10-0.1,15.2,0.1c0-2.6-0.1-5.4-0.2-7.8c-21,1-56.9,2.8-89.8,5.7
			c-44.7,3.9-132.4,8.8-182.4-7.7c-25-8.2-47.2-10.7-63.1-11.1c-2.8-0.1-5.2,0-7.6,0C73,174.8,73,178.6,73.1,181.7z"/>
	</g>
	<g>
		<path fill="#C68342" d="M136.7,149.4c-24.9-8.2-47.3-5.7-62.3-1.8c-0.4,3.5-0.7,7.4-0.9,11.3c26.1-5.9,66.5-1.9,85,8.5
			c22,12.4,69.3,8.8,105.3,3.4c36-5.4,68.7-16.1,98.6-19c19.7-1.9,41.1-1.6,53.9-1.1c0.3-3.3,0.6-6.1,0.7-8.6
			c-24,0.8-84.4,3.7-116.9,14.5C259.4,170.3,181.1,164.1,136.7,149.4z"/>
	</g>
	<g>
		<path fill="#C68342" d="M367.2,257.4c-12.5-0.6-24.9-2.9-37.4-3.6c-2.3-0.1-20.4-1.3-33.7-1c-8,0.1-14.2,0.8-14.2,2.4
			c0,2,4,0.2,6,0.3c7.6,0.2,14.1,3.3,21.5,4.4c6.6,1,13.4,0.3,20,1.6c28.2,5.4,55,5.6,83.6,3.7c1.1-0.1,2.9,0,4.9,0.1
			c0-0.5-0.3-9.3-0.3-12.3C401,256,384.2,258.3,367.2,257.4z"/>
	</g>
	<g>
		<path fill="#C68342" d="M347.3,205.3c-15.4,0.1-30.7,1-45.8,3.5c-10.1,1.7-19.9,5.7-29.8,7.5c-1.7,0.3,3.4-0.1,5.1-0.2
			c4.8-0.3,9.3-0.3,14.1-0.1c13.4,0.6,26.7-1.3,40-1.3c27.5,0,55,0.5,82.6,1.4c0.9,0,2,0.2,3.3,0.3c-0.1-3.8-0.1-7.2-0.2-11
			C393.6,206.4,370.4,205.1,347.3,205.3z"/>
	</g>
	<g>
		<path fill="#C68342" d="M75.3,250.3c-0.1,3.2-0.3,6.2-0.4,9.2c1.5-0.2,2.9-0.4,3.8-0.4c41,0.8,78.7-6.4,118-18
			c13.3-3.9,26.5-6.4,39.5-11.3c4.6-1.7,10-2.7,14.8-3.8c0.3-0.1,3.8-2.7,4.2-3c-3.6,2-35.4,4.5-39.2,5.4
			C169.7,239,123,259.9,75.3,250.3z"/>
	</g>
	<g>
		<path fill="#C68342" d="M253.2,138c-12.3,3.8-26.2,6.8-38.1,6.8c-18.4,0-28-5.5-36.8-11.7c-9.5-0.6-20-1-30.4-1.4
			c5.1,1.6,10.1,3.3,14.9,5.6c5.6,2.6,10.2,6.8,16.1,8.7c30.3,9.9,50.1,6.4,80.6-1.2c8.4-2.1,17.2-3.3,25.2-6.7
			C274.2,138.2,263.7,138.1,253.2,138z"/>
	</g>
	<g>
		<path fill="#A66425" d="M256.6,268.2c10.4,3.1,20.3,7.8,32.1,14.2c0,0,0.2,0.1,0.2,0.1c12.7,6.9,21.4,11.9,32.4,16.8
			c19.7,8.7,34.7,8.8,34.8,8c0.1-0.8-14.2-2.4-33.1-11.6c-9.5-4.6-20.2-10.9-31.9-17.2c0,0-0.2-0.1-0.2-0.1
			c-11.9-6.4-22.4-11.2-33.2-14c-21.6-5.6-36.8-0.3-36.7,0.5C221.2,265.7,236.2,262.1,256.6,268.2z"/>
	</g>
	<g>
		<path fill="#A66425" d="M242.8,202L242.8,202c19.9,0.9,35.3,0.2,48.5-2c12.2-2.1,19.5-4.8,19.3-5.4c-0.2-0.6-7.6,1.1-19.7,2.3
			c-13.5,1.3-27.7,1.6-47.8,0.7l-0.1,0c-18.7-0.9-35.7-2.2-48.1-2.4c-12.4-0.3-20,0.3-20,0.9c0,0.6,7.6,1.2,19.9,2.3
			C203.8,199,227.1,201.3,242.8,202z"/>
	</g>
	<g>
		<path fill="#A66425" d="M245.1,334c5.9,6.3,9.2,13.5,12.4,18c3.2,4.5,5.6,6.5,6,6.3c0.3-0.3-1.4-2.8-3.9-7.5
			c-1.6-3.1-6.4-13.4-11.4-19.4c-5.5-6.4-13-11.9-22.3-15.8c-5.1-2.1-10.2-3.6-15.1-4.6c-24.2-5-42.4-0.9-42.3,0.1h0
			c0.1,1,18.2-1.2,41.4,4.1c4.6,1.1,9.5,2.5,14.3,4.5C232.8,323.5,239.8,328.3,245.1,334z"/>
	</g>
</g>
</svg>
