<?xml version="1.0" encoding="utf-8"?>
<!-- Generator: Adobe Illustrator 26.4.1, SVG Export Plug-In . SVG Version: 6.00 Build 0)  -->
<svg version="1.1" id="Layer_1" xmlns="http://www.w3.org/2000/svg" xmlns:xlink="http://www.w3.org/1999/xlink" x="0px" y="0px"
	 width="500px" height="500px" viewBox="0 0 500 500" enable-background="new 0 0 500 500" xml:space="preserve">
<g id="g117">
	<g>
		<path fill="#A66425" d="M39.1,363.3c0.3,7.5,5,16.6,5.1,18.2c0.5,9,407.4,5.7,407.4,5.7l14.3-141.8l-5.6-18.8l-65.9-0.6l25-64.2
			c0,0-0.2-16.2-6-18.9c-14-6.6-52.2-4.5-137.3-11.1c-120.3-9.3-192.7,15.7-192.7,15.7l22.3,75.9l-66.1,30.8
			C39.4,254.3,37.8,329.6,39.1,363.3z"/>
	</g>
	<g>
		<path fill="#E6B075" d="M38.9,363.1c0.5,9,407.4,5.7,407.4,5.7L460.6,227L389,207.7l25-64.2c0,0-23-20.7-143.4-30
			c-120.3-9.3-189,32.5-189,32.5l18.6,59.1l-66.1,30.8C34.1,235.8,38.4,354.1,38.9,363.1z"/>
	</g>
	<g>
		<path fill="#E0A465" d="M446.3,368.8l8.9-87.9c-39.8,25.8-101.3,51.4-195.3,64.1C121.9,363.6,62.5,338.6,37,315.5
			c0.8,20.5,1.7,44.4,1.8,47.6C39.3,372.1,446.3,368.8,446.3,368.8z"/>
	</g>
	<g>
		<path fill="#D59859" d="M452.3,308.8c-13.3-3.3-28.3-5.4-46.1-6.1c-4.1-0.2-8.1-0.2-12.1-0.3c-27.8-0.1-53.8,2.8-88.8,6
			c-22.8,2.1-46.6,4.6-71.2,7.8c-29.8,3.9-58.1,8.3-84.8,13.1c-35.2,6.3-66.8,12.8-93.6,17.8c-6.1,1.1-11.8,2.1-17.3,3.1
			c0.1,2.1,0.3,9.3,0.4,10.3c6-0.7,12.2-1.4,18.7-2.3c30.7-4.1,55.7-8.5,94.3-14.7c26.6-4.3,54.6-8.4,84.3-12.3
			c24.5-3.2,48.1-5.9,70.7-8.3c41.3-4.3,66.7-8.3,99.3-8.5c17.7-0.1,32.2,1.1,45.4,3.4L452.3,308.8z"/>
	</g>
	<g>
		<path fill="#D59859" d="M305,347.6c-5.2,0.4-10.4,0.9-15.6,1.5c-45.2,4.7-89.6,12.7-125.2,19.7c26.6,0.3,55,0.4,83.5,0.5
			c14.4-1.9,28.9-3.8,43.2-5.3c5.2-0.5,10.3-1,15.4-1.5c55.5-5,101.1-4.5,140.6-1.1l1.1-11.4c-23.8-3.3-50.1-5.3-79.5-5.4
			C348.8,344.8,327.6,345.6,305,347.6z"/>
	</g>
	<g>
		<path fill="#D59859" d="M160.1,223.9c-2.5,0.3-5,0.6-7.6,1c-6.4,1.1-12.8,2.4-18.7,3.6c-27.7,5.5-49.3,9.7-71.9,13.9
			c-10,1.8-19,3.7-27.4,5.6c0.1,1.8,0.3,7,0.4,10c7.7-1.3,16.3-2.7,28.8-4.3c22-2.9,45.6-6.7,72.7-11.4c6-1.1,12.3-2.2,18.4-3.1
			c2.2-0.3,4.4-0.6,6.7-0.8c13.8-1.2,26.9-3.4,40.9-5.5c7.4-1.1,15.3-2.3,23.1-3.8c3.1-0.6,6.4-1.3,9.8-2.2c0.8-0.2,1.6-0.4,2.4-0.7
			c1.4-0.4,3.1-1,4.9-1.9c0.9,0.5,2.9-1.4,5.4-6c0.5-4.4-0.4-7.4-2.2-8.7c-1.7-1.6-3.1-2.5-4-2.9c-2.9-1.4-5.6-2.2-7.8-2.7
			c-3.8-1-7.7-1.8-11.6-2.4c-6.7-0.9-13.4-1.1-19.8-1.1c-6.5,0-12.7,0.3-18.5,0.5c-32.9,0.8-61.9,2.9-88.3,6.1l-33.1,15.4
			c6.7-0.8,13.6-1.6,21.5-2.3c29.6-2.7,61.9-4.3,100.1-4.6c9.8-0.1,20-0.5,29.6,0.2c-4.6,0.8-9.2,1.5-13.8,2.2
			C185.8,220.3,173.2,222.6,160.1,223.9z M235.9,210.4c0,0,0,0.1-0.1,0.4c0,0-0.1,0.1-0.2,0.1C235.8,210.6,235.9,210.4,235.9,210.4z
			"/>
	</g>
	<g>
		<path fill="#D59859" d="M456.1,271c-9.7-1-20-1.8-31.3-2c-4.9-0.1-9.7-0.1-14.6-0.1c-34.3,0.3-69.5,4.3-111.3,10.6
			c-15.2,2.3-30.4,4.7-46.2,7.2c-93.1,14.8-142.1,22.8-207.3,29.4c-3,0.3-5.3,0.5-8.2,0.8c0.2,4.4,0.2,6.3,0.4,10.2
			c2.9-0.1,5.6-0.2,8.6-0.4c60.2-3.1,121.5-11.2,208.9-25.1c19.1-3,27-4.3,46.2-7.4c47.8-7.6,85.3-12.5,123.6-13
			c11-0.1,20.9,0.1,30.3,0.7L456.1,271z"/>
	</g>
	<g>
		<path fill="#D59859" d="M348.6,133.4c-14.2-1.5-29.3-7-46.6-10.5c-6.8-1.4-13.7-2.8-20.8-4.1c-14.7-2.7-28.6-4.9-41.8-6.6
			c-0.4,0-0.9,0-1.3,0c-30.5-0.1-56.9,2.9-78.9,7.3c33.7,1,70.9,5.2,119.3,14.2c7,1.3,13.8,2.6,20.6,4c15.9,3.2,31.9,8.5,48.2,9.9
			c25,2,47.3,0.7,65.9-1.9l0.8-2c0,0-4-3.4-16.5-8.1C382.8,135.8,366.4,135.4,348.6,133.4z"/>
	</g>
	<g>
		<path fill="#D59859" d="M304.2,218.4C304.2,218.4,304.2,218.4,304.2,218.4c-0.1,0.1-0.4,0.3-0.7,0.7c-0.9,0.8-2.3,1.6-4,2.4
			c-0.1,0-0.2,0.1-0.2,0.1c-4.3,2-9.3,3.3-14.4,4.5c-5.4,1.2-11,2.2-16.5,3.1c-3.7,0.6-7.5,1-11.7,1.8
			c-70.1,13.8-135.8,22.3-180.3,28c-16.5,2.1-30,5-41,7.2c0.1,2.5,0.1,3.9,0.2,6.7c11.4-1.1,25.5-3,41.7-4.1
			c45.3-3.1,110.8-9.6,182.2-23.1c3.4-0.6,7.1-1,11.1-1.6c5.8-0.9,11.7-1.9,17.6-3.2c5.6-1.2,11.5-2.8,17.3-5.4
			c0.1-0.1,0.2-0.1,0.3-0.2c2.4-1.1,4.9-2.5,7.4-4.5c2.1-1.6,4-4.1,5.4-7.6c1.2-3.7,1.1-7.6-0.2-11.2c-1.5-3.6-3.5-6.4-5.7-8.4
			c-5.4-5.1-11.5-8.4-17.1-10.8c-6.1-2.7-12.2-4.8-18.2-6.6c-3.9-1.2-7.7-2.2-11.5-3.1c-18.4-4.5-36.7-6.4-54.2-6.6
			c-22.5-0.3-43.7,2.2-61.8,5.4c-20.4,3.5-38.1,7.4-53.3,11.2l3,9.4c16.5-3.3,35.1-6.7,52.2-9c31.6-4.1,71.9-6.5,110.6,3.7
			c3.6,0.9,7.2,1.9,10.8,3c5.6,1.7,11.1,3.7,16.4,6.1c5,2.4,9.7,4.7,12.7,7.9c1.1,1.2,2,2.2,2.1,2.9
			C304.3,217.4,304.3,218,304.2,218.4C304.3,218.4,304.3,218.4,304.2,218.4z"/>
	</g>
	<g>
		<path fill="#D59859" d="M88.5,167.7l2,6.3c11.4-4.8,28.1-10.8,49.7-14.2c21.5-3.4,44.7-4,72.8-2.1c17.7,1.2,35.5,3.3,54.8,6
			c6.9,1,13.8,2,20.6,2.9c26.8,3.9,48.6,7.3,72.1,9.3c13.9,1.1,28.1,0.7,41-0.2l4.4-11.3c-14.3,0.3-30.1,0-44-1.7
			c-24.2-3-43-6.4-71.3-10.8c-6.8-1-13.7-2.1-20.7-3c-19.5-2.7-37.9-4.7-56-5.5c-7.2-0.4-14.2-0.5-20.9-0.5
			c-20.2,0.1-38.2,2-54.9,5.7C116,153.3,99.4,161,88.5,167.7z"/>
	</g>
	<g>
		<path fill="#D59859" d="M304.2,218.4C304.2,218.4,304.2,218.4,304.2,218.4C304.3,218.4,304.3,218.4,304.2,218.4z"/>
	</g>
	<g>
		<path fill="#D59859" d="M373.8,223c-22.1,5.4-46,12.6-71.6,18.6c-26,6.1-54.2,12.6-83.1,18.6c-75,15.6-132.3,23.2-183.1,26.9
			c0.2,5.4,0.2,5.6,0.4,11.2c51-1.2,111.5-7.9,185.7-23.3c29.2-6.1,57.5-12.8,83.5-19.4c26.2-6.7,49.9-14.5,71.4-20.6
			c25.9-7.3,43.9-11.8,62-13.7l-24.6-6.6C402.3,216.4,389.2,219.2,373.8,223z"/>
	</g>
	<g>
		<path fill="#A66425" d="M285.1,158.9c22.4,3.4,42.5,7.2,56.6,9.4c4,0.6,8.3,0.5,10.9,0.5c6.2,0,9.3,0.2,9.5-0.4
			c0.2-0.6-3.4-2.1-9.3-3c-2.5-0.4-7-0.9-10.2-1.7c-13.2-3.5-34.4-8.4-56.5-11.7c-22-3.3-40.2-4.3-55-3.9c-14.1,0.4-22.8,2-22.7,2.9
			c0.1,1,8.8,1.2,22.6,2C246.3,154,262.7,155.6,285.1,158.9z"/>
	</g>
	<g>
		<path fill="#A66425" d="M302.9,226c-3.5,4.4-8.5,5.7-8.3,6.6c0.3,0.9,5.1,2.1,11.7-3c3.1-2.6,5.2-6.2,6.8-10.5
			c1.7-4.4,1.9-10-0.9-15.1c-0.5-0.9-1.1-1.7-1.7-2.5c-2.7-3.3-6-5.7-9.1-7.4c-4.9-2.8-10-4.6-13.8-5.8c-7.5-2.4-12.2-3.4-12.6-2.5
			h0c-0.5,0.9,3.8,3.9,10.6,7.4c3.4,1.7,8.3,4.1,12.3,6.7c2.6,1.7,5.3,3.7,7.1,5.9c0.4,0.5,0.8,1.1,1.1,1.6c1.7,2.7,1.8,6.4,0.9,9.4
			C305.6,221.2,304.8,223.9,302.9,226z"/>
	</g>
	<g>
		<path fill="#A66425" d="M171.8,310.7L171.8,310.7c19.3-3.5,42-8.4,61.3-11.9c15.7-2.8,25.4-4.2,25.4-5.2c-0.1-1-10.1-1.3-26.1,0.3
			c-18.6,1.9-35.3,5.1-61.8,9.9l0,0c-26.3,4.8-43.3,7.3-61.5,8.7c-15.8,1.2-25.7,1-25.7,2c-0.1,1,9.8,2.9,25.9,3
			C126.8,317.4,146.4,315.3,171.8,310.7z"/>
	</g>
	<g>
		<path fill="#A66425" d="M424.6,307.8c0,0.2,0.3,0.5,0.7,0c0-0.1,0.1-0.1,0.1-0.2c0-0.1,0-0.2,0-0.4c-0.6-0.4-1.6-0.9-2.6-1.6
			c-2.5-0.8-5.5-1.4-10-2c-3.4-0.5-7.2-1-11.6-1.4c-2-0.2-4.4-0.5-6.8-0.6c-9.8-0.5-20.5-0.3-32.5,0.6c-14.3,1-28.3,2.9-38.6,4.5
			c-15.5,2.4-25,4.6-24.9,5.7l0,0c0.1,1.1,10.4,1,25.5-0.1c13.2-1,25.3-2.1,38.5-3.1c12.1-0.9,22.1-1.4,31.9-1.5
			c2.1,0,4.5,0,6.6,0.1c4.2,0.1,8.4,0.1,11.6,0.1c2.7,0,9.3,0,10,0c1.1-0.4,1.6-0.6,2.2-0.5c0.2-0.1,0.3-0.1,0.4-0.1
			c0.1,0,0.1,0,0.1,0C425,307.5,424.5,307.6,424.6,307.8z"/>
	</g>
	<g>
		<path fill="#A66425" d="M291,356.8c-15.6,0-31.7,0-48.2-0.1c-59-0.2-106-0.7-139.7-1.5c-19.9-0.5-35.2-1.1-45.7-1.8
			c-1-0.1-1.7-0.1-2.3-0.2c-0.4,0-0.9-0.1-1.4-0.1c-1.5-0.1-2.6-1.3-2.7-2.8c-0.8-20.4-3.2-83.9-3.9-104.6c0-1.2,0.6-2.2,1.7-2.7
			l56.8-26.4c5.7-2.7,8.6-9.2,6.7-15.2l-14.6-46.5c-0.4-1.4,0.2-2.9,1.5-3.5c20-9.3,63.4-25.2,129-26.4c13.5-0.3,27.5,0.2,41.5,1.2
			c61,4.7,95.7,12.4,114.1,18c4.9,1.5,7.4,2.6,9.8,3.7c0.6,0.3,1.2,0.6,1.9,0.8c1.4,0.6,2.1,2.3,1.6,3.7l-19.8,50.9
			c-0.2,0.4-0.3,0.8-0.4,1.3c-0.9,3.3-0.4,6.7,1.2,9.6c1.7,2.9,4.4,5,7.7,5.9l58.8,15.9c1.4,0.4,2.3,1.7,2.1,3.1l-11.6,114.7
			c-0.1,1.5-1.4,2.6-2.9,2.6l-0.9,0C402.8,356.5,351.4,356.8,291,356.8z M56.7,347.5c0.3,0,0.7,0.1,1.1,0.1
			c10.3,0.7,25.6,1.3,45.4,1.8c33.7,0.8,80.7,1.4,139.6,1.5c79.4,0.2,150.5-0.2,186.8-0.5l11.1-109.7l-56.4-15.2
			c-4.7-1.3-8.7-4.3-11.2-8.6c-2.5-4.3-3.1-9.2-1.8-14c0.2-0.6,0.4-1.2,0.6-1.9l18.8-48.3c-2.2-1-4.4-1.9-8.6-3.2
			c-18.1-5.5-52.4-13.1-112.9-17.8c-13.8-1.1-27.5-1.5-40.9-1.2c-62.1,1.2-103.9,15.6-124.4,24.8l13.9,44.1
			c2.8,8.8-1.4,18.3-9.8,22.2l0,0l-55,25.6C53.7,268.8,55.8,325.5,56.7,347.5z M106.8,219.1L106.8,219.1L106.8,219.1z"/>
	</g>
</g>
</svg>
