<?xml version="1.0" encoding="utf-8"?>
<!-- Generator: Adobe Illustrator 26.4.1, SVG Export Plug-In . SVG Version: 6.00 Build 0)  -->
<svg version="1.1" id="Layer_1" xmlns="http://www.w3.org/2000/svg" xmlns:xlink="http://www.w3.org/1999/xlink" x="0px" y="0px"
	 width="500px" height="500px" viewBox="0 0 500 500" enable-background="new 0 0 500 500" xml:space="preserve">
<g id="g37">
	<g>
		<path fill="#A66425" d="M170,371.1c77.4,36.2,164.7,17.2,226.2-47.5c61.5-64.7,53.2-167-78.5-191c-56.3-14.4-131.5-10.4-175.3,12
			C98.4,167,59,198.3,69,251.2C79,304.1,92.6,335,170,371.1z"/>
	</g>
	<g>
		<path fill="#E6B075" d="M169.4,357.7c77.4,36.2,164.7,17.2,226.2-47.5c61.5-64.7,53.2-167-78.5-191
			c-56.3-14.4-131.5-10.4-175.3,12c-43.9,22.4-83.3,53.7-73.3,106.6C78.5,290.6,92,321.5,169.4,357.7z"/>
	</g>
	<g>
		<path fill="#E0A465" d="M395.6,310.2c39.6-41.7,50.2-99,17.5-140.9c-17.2,34.3-55.1,84.6-138.4,127.3
			c-69,35.4-127.9,32.2-170.2,19.7c14.3,14.1,34.7,27.4,64.9,41.4C246.8,393.8,334.1,374.9,395.6,310.2z"/>
	</g>
	<g>
		<path fill="#C68342" d="M67.4,230.4c12.1-1.2,24.2-1.4,36.1-4.3c34.4-8.5,67.4-27.8,102.6-32.4c32.2-4.2,64.4,8.3,93.9,19.3
			c40,14.9,81,10,122.3,15c4.7,0.6,7.9,0.8,10.2,0.9c0.1-3.7,0-7.4-0.3-11.1c-23.8-5.1-53-0.3-73.9-2c-25.8-2.1-50-13.3-74.6-20.2
			c-20.8-5.9-39.1-8.5-56.3-8.8c-2.4-0.1-4.7-0.1-7,0c-34.9,0.5-66,9.8-106.2,19c-12.5,2.9-25.2,6.4-37.9,8c-2.7,0.3-7,3.8-9.3,4.2
			C66.8,221.9,67,226.1,67.4,230.4z"/>
	</g>
	<g>
		<path fill="#C68342" d="M74.1,189.8c22.2-0.6,64.6-4.5,76-8.2c3.1-1,67.2-4.1,65.7-10.3c-0.7-3-53.3-5.1-58.2-5.1
			c-8.1-0.1-18.8,2.3-21.9,2.5c-5.2,0.4-25.5-0.3-46.3-0.9C83.2,174.5,78,181.8,74.1,189.8z"/>
	</g>
	<g>
		<path fill="#C68342" d="M257.2,171.1c-8,0-13.5,0.6-12.9,2.6c2.3,7.4,65.8,13.6,70.7,13.4c39.2-1.1,76.3,6.9,114.3,14.4
			c-2-7.4-4.9-14.6-8.9-21.5c-34.2-3.5-69.3-3.6-103.6-5.1c-0.5,0-2.7-0.1-5.6-0.2C305.1,174.6,274.9,171.2,257.2,171.1z"/>
	</g>
	<g>
		<path fill="#C68342" d="M115.7,146.2c-4,2.6-7.8,5.3-11.4,8.2c10.3-0.3,21.9-0.7,24.3-0.7c42.4,0.5,84.4,5.3,126.5,8.4
			c16,1.2,31.5,0.5,47.5,2.5c36.8,4.5,74.4,1.6,111.2,5.5c-2.4-3.1-4.9-6.2-7.8-9.1c-92.7-4.8-186.2-11.6-279.1-13.9
			C125.1,147,120.4,146.6,115.7,146.2z"/>
	</g>
	<g>
		<path fill="#C68342" d="M342,125.1c-4.7-1.4-9.7-2.7-14.8-3.8c-13.2,6.5-31.1,11.9-52.7,10.7c-38.5-2.1-67.8-4.9-84-16.3
			c-8.8,1.6-17.3,3.8-25.2,6.3c11.3,5.7,32.2,11.8,70.7,15.7C282.8,142.2,318.4,134.1,342,125.1z"/>
	</g>
	<g>
		<path fill="#C68342" d="M395.6,310.2c0.6-0.6,1.1-1.2,1.6-1.8c-10.7-2.7-20.8-5.2-23.7-5.2c-48.2,0-94.9,20.6-143,21
			c-25.1,0.2-49-12.6-72.9-18.4c-19.1-4.6-40.8-9-61-8.4c-2.4,0.1-4.9,0.2-7.3,0.5c1.9,3,4.1,5.9,6.4,8.7
			c12.6-1.2,29.7-0.3,48.7,8.3c39.1,17.5,89.4,26.5,138.4,15.3c37.7-8.6,84.7-11.2,104.6-11.9C390.2,315.6,392.9,313,395.6,310.2z"
			/>
	</g>
	<g>
		<path fill="#C68342" d="M198.9,253.9c28.4,5.6,57.1,0.9,85.6,2.7c3.5,0.2,20.8,3.5,22.2-2.2c1.1-4.6-18.7-8.2-21.5-9
			c-13.3-3.8-27-5.9-40.7-6.7c-4.4-0.3-8.9-0.4-13.3-0.4c-13.3,0-26.7,1.1-39.8,3c-0.5,0.3-7.5,2.6-7.6,3.5
			C183.3,250.2,196.1,253.3,198.9,253.9z"/>
	</g>
	<g>
		<path fill="#C68342" d="M414.1,286.2c-59.9-17.9-126.3,6.8-188.6,1.3c-13.7-1.2-27.3-5.1-40.9-7.3c-19.4-3.1-39-5-58.7-5.3
			c-3,0-5.9-0.1-8.9,0c-8.9,0.1-17.7,0.5-26.5,1.3c-2.4,0.2-6.8,0.5-11.5,1.2c1,2.6,2.1,5.1,3.2,7.5c1.8-0.8,3.5-1.5,5.1-1.8
			c16.7-2.9,34.3-1.5,51-0.6c11.6,0.6,22,5.5,33.3,7.4c25,4.3,52.6,7.5,78.1,8c41.5,0.9,79.4-11.7,122.1-10
			c12.3,0.5,24.2,3.5,34.6,9.1C409.4,293.5,411.8,289.9,414.1,286.2z"/>
	</g>
	<g>
		<path fill="#C68342" d="M430.7,244.3c-5.4-0.8-10.9-1.7-13.2-1.5c-61.6,4.4-106-18.5-165-23.7c-8.2-0.7-16.8-1.1-25.4-1
			c-26,0.1-53.3,3.6-77.5,9.6c-16.6,4.2-32.6,11.9-49.2,15.6c-10.2,2.2-20.1,3.7-30.1,4c0.9,4.4,2,8.7,3.1,12.8
			c32.7-5.3,62.6-21.7,95.3-26.6c42.4-6.3,84.9-7.4,127.2,0.9c18.6,3.6,36.5,10.3,55.3,13.9c24.4,4.7,52.1,2.5,76.1,9.6
			C428.8,253.3,429.9,248.8,430.7,244.3z"/>
	</g>
	<g>
		<path fill="#C68342" d="M196.9,338.4c-33.5-8.2-62.1-11.2-81.2-12.4c3.8,3,7.9,6,12.3,8.9c52.6,10.5,103.7,18,157.7,16.8
			c21.7-0.5,43.1-4.8,64.9-5c3-1.8,5.9-3.7,8.8-5.7c-10.2-0.8-23-1.6-37.2-1.9C289.7,338.4,256.8,353.1,196.9,338.4z"/>
	</g>
	<g>
		<path fill="#A66425" d="M158.2,204.5c16.9-4.5,29.3-6.9,40.9-8.5c10.6-1.5,17.3-1.8,17.3-2.5c0-0.6-6.8-1.4-17.6-0.7
			c-11.5,0.7-25.1,2.9-41.8,7.3c-15.4,4.1-31,9.4-40.6,12.9c-10.2,3.7-16.5,6.2-16.3,6.8c0.2,0.6,6.8-0.8,17.3-3.7
			C127.9,213.2,142.3,208.7,158.2,204.5z"/>
	</g>
	<g>
		<path fill="#A66425" d="M257.7,227.4c39,3.1,69.7,12.4,70.1,11.3c0.4-1.3-29.8-12.6-69.7-15.8c-39.9-3.1-71.6,3.1-71.4,4.3h0
			C186.8,228.4,218.7,224.3,257.7,227.4z"/>
	</g>
	<g>
		<path fill="#A66425" d="M188.3,286.9c13.2,2.8,32.6,6.3,53.4,8l0.6,0c22.2,1.8,39.1,1.4,53.8-1.3c13.5-2.5,21.3-6.2,21.1-6.8
			c-0.2-0.6-8.2,2-21.6,3.7c-14.9,1.8-30.6,1.7-53,0c0,0-0.6,0-0.6,0c-20.2-1.7-40.2-4.7-53.2-6.6c-13.6-2-22.1-3.2-22.2-2.5l0,0
			C166.6,281.8,174.8,284.1,188.3,286.9z"/>
	</g>
</g>
</svg>
