<?xml version="1.0" encoding="iso-8859-1"?>
<!-- Generator: Adobe Illustrator 25.2.0, SVG Export Plug-In . SVG Version: 6.00 Build 0)  -->
<svg version="1.1" xmlns="http://www.w3.org/2000/svg" xmlns:xlink="http://www.w3.org/1999/xlink" x="0px" y="0px"
	 viewBox="0 0 492 492" style="enable-background:new 0 0 492 492;" xml:space="preserve">
<g id="Master_Layer_2">
</g>
<g id="Layer_1">
	<g>
		<g>
			<g>
				<path style="fill-rule:evenodd;clip-rule:evenodd;fill:#212121;" d="M190.312,431.06c-15.855,0-31.324-4.247-44.735-12.281
					c-19.045-11.41-32.73-29.582-38.535-51.169c-5.779-21.491-3.164-44.135,7.361-63.761l70.832-132.07
					c1.003-1.87,2.954-3.038,5.076-3.038s4.073,1.167,5.076,3.038l70.832,132.07c10.525,19.625,13.14,42.27,7.361,63.761
					c-5.805,21.587-19.489,39.76-38.534,51.169C221.635,426.813,206.167,431.06,190.312,431.06L190.312,431.06z M190.311,186.688
					l-65.756,122.605c-18.997,35.421-7.162,79.172,26.942,99.603c11.622,6.963,25.044,10.644,38.814,10.644l0,0
					c13.77,0,27.192-3.681,38.814-10.644c34.104-20.432,45.938-64.183,26.941-99.603L190.311,186.688z"/>
			</g>
			<g>
				<g>
					<path style="fill-rule:evenodd;clip-rule:evenodd;fill:#212121;" d="M161.948,391.098c-1.158,0-2.327-0.348-3.342-1.073
						c-12.324-8.797-21.297-21.772-25.266-36.534c-0.826-3.072,0.995-6.232,4.067-7.058c3.073-0.827,6.232,0.995,7.058,4.067
						c3.278,12.191,10.677,22.898,20.834,30.149c2.589,1.848,3.19,5.445,1.341,8.035
						C165.517,390.258,163.746,391.098,161.948,391.098z"/>
				</g>
				<g>
					<path style="fill-rule:evenodd;clip-rule:evenodd;fill:#212121;" d="M197.511,402.395c-5.99,0-11.911-0.776-17.6-2.306
						c-3.072-0.826-4.892-3.986-4.066-7.058c0.826-3.072,3.986-4.893,7.058-4.066c4.714,1.268,9.628,1.91,14.607,1.91
						c3.181,0,5.76,2.579,5.76,5.76S200.692,402.395,197.511,402.395z"/>
				</g>
			</g>
			<g>
				<path style="fill-rule:evenodd;clip-rule:evenodd;fill:#212121;" d="M321.01,266.173c-12.396,0-24.492-3.321-34.98-9.605
					c-14.899-8.926-25.604-23.14-30.144-40.025c-4.518-16.805-2.474-34.51,5.756-49.856l54.291-101.229
					c1.003-1.87,2.954-3.038,5.076-3.038c2.122,0,4.073,1.167,5.076,3.038l54.292,101.229c8.23,15.346,10.274,33.052,5.756,49.856
					c-4.54,16.885-15.245,31.099-30.144,40.025C345.501,262.852,333.406,266.173,321.01,266.173L321.01,266.173z M321.01,80.367
					l-49.215,91.765c-14.221,26.515-5.367,59.263,20.156,74.554c8.699,5.212,18.748,7.967,29.059,7.967
					c10.311,0,20.36-2.755,29.059-7.967c25.523-15.291,34.377-48.039,20.156-74.554L321.01,80.367z"/>
			</g>
			<g>
				<path style="fill-rule:evenodd;clip-rule:evenodd;fill:#212121;" d="M337.061,237.386c-1.958,0-3.867-0.999-4.947-2.801
					c-1.635-2.729-0.748-6.266,1.981-7.901c12.133-7.27,18.97-21.171,17.418-35.417c-0.345-3.163,1.94-6.006,5.102-6.35
					c3.161-0.345,6.005,1.94,6.35,5.102c0.986,9.05-0.574,18.158-4.512,26.34c-4.053,8.421-10.428,15.409-18.438,20.207
					C339.089,237.121,338.068,237.386,337.061,237.386z"/>
			</g>
			<g>
				<path style="fill-rule:evenodd;clip-rule:evenodd;fill:#212121;" d="M337.134,395.201c-6.331,0-12.512-1.698-17.875-4.911
					c-7.628-4.57-13.108-11.845-15.431-20.484c-2.309-8.587-1.264-17.635,2.941-25.476l25.288-47.152
					c1.003-1.87,2.954-3.037,5.076-3.037c2.122,0,4.073,1.167,5.076,3.038l25.289,47.152c4.205,7.841,5.25,16.888,2.941,25.476
					c-2.323,8.639-7.803,15.914-15.431,20.484C349.646,393.502,343.465,395.201,337.134,395.201L337.134,395.201z M337.134,312.087
					l-20.212,37.687c-5.846,10.901-2.219,24.356,8.258,30.633c3.574,2.142,7.708,3.273,11.954,3.273
					c4.246,0,8.38-1.132,11.954-3.273c10.477-6.277,14.105-19.732,8.258-30.633L337.134,312.087z"/>
			</g>
		</g>
	</g>
</g>
</svg>
