<?xml version="1.0" encoding="iso-8859-1"?>
<!-- Generator: Adobe Illustrator 25.2.0, SVG Export Plug-In . SVG Version: 6.00 Build 0)  -->
<svg version="1.1" xmlns="http://www.w3.org/2000/svg" xmlns:xlink="http://www.w3.org/1999/xlink" x="0px" y="0px"
	 viewBox="0 0 492 492" style="enable-background:new 0 0 492 492;" xml:space="preserve">
<g id="Master_Layer_2">
</g>
<g id="Layer_1">
	<g>
		<g>
			<g>
				<g>
					<g>
						<path style="fill-rule:evenodd;clip-rule:evenodd;fill:#212121;" d="M240.482,390.254c-19.372,0-38.167-3.795-55.864-11.281
							c-17.09-7.228-32.438-17.575-45.616-30.754c-13.178-13.179-23.525-28.525-30.754-45.616
							c-7.485-17.697-11.28-36.492-11.28-55.864c0-19.372,3.795-38.167,11.28-55.864c7.229-17.09,17.575-32.438,30.754-45.616
							c13.179-13.178,28.525-23.525,45.616-30.754c17.697-7.485,36.492-11.28,55.864-11.28c19.372,0,38.167,3.795,55.864,11.28
							c17.09,7.229,32.438,17.575,45.616,30.754c13.178,13.178,23.525,28.525,30.754,45.616c7.485,17.697,11.28,36.492,11.28,55.864
							c0,16.498-2.778,32.679-8.256,48.09c-1.065,2.997-4.358,4.565-7.357,3.498c-2.997-1.065-4.564-4.359-3.498-7.357
							c5.037-14.169,7.591-29.051,7.591-44.232c0-72.781-59.212-131.993-131.993-131.993c-72.782,0-131.994,59.212-131.994,131.993
							c0,72.782,59.212,131.994,131.994,131.994c17.214,0,33.953-3.262,49.753-9.695c2.946-1.2,6.307,0.216,7.507,3.163
							c1.2,2.946-0.216,6.307-3.163,7.507C277.393,386.705,259.192,390.254,240.482,390.254z"/>
					</g>
					<g>
						<path style="fill-rule:evenodd;clip-rule:evenodd;fill:#212121;" d="M240.482,425.281c-24.1,0-47.483-4.721-69.498-14.033
							c-21.261-8.993-40.355-21.865-56.75-38.261c-16.395-16.395-29.268-35.489-38.261-56.75
							C66.661,294.223,61.94,270.84,61.94,246.74s4.721-47.483,14.033-69.498c8.993-21.261,21.865-40.355,38.261-56.75
							c16.395-16.395,35.489-29.268,56.75-38.261c22.015-9.312,45.398-14.033,69.498-14.033c24.1,0,47.483,4.721,69.498,14.033
							c21.261,8.993,40.355,21.865,56.75,38.261c16.395,16.395,29.268,35.489,38.261,56.75
							c9.312,22.015,14.033,45.398,14.033,69.498c0,15.148-1.901,30.198-5.651,44.73c-3.64,14.109-9.027,27.763-16.013,40.58
							c-1.522,2.793-5.021,3.824-7.814,2.301c-2.793-1.522-3.824-5.02-2.302-7.814c13.254-24.32,20.259-51.914,20.259-79.798
							c0-92.096-74.926-167.021-167.021-167.021c-92.095,0-167.021,74.925-167.021,167.021s74.926,167.021,167.021,167.021
							c37.558,0,73.03-12.173,102.58-35.202c2.509-1.955,6.128-1.507,8.084,1.003c1.955,2.509,1.507,6.129-1.003,8.084
							c-15.344,11.958-32.395,21.265-50.68,27.662C280.548,421.926,260.703,425.281,240.482,425.281z"/>
					</g>
				</g>
				<g>
					<path style="fill-rule:evenodd;clip-rule:evenodd;fill:#212121;" d="M424.82,388.862h-137.69c-2.078,0-3.995-1.12-5.017-2.93
						c-1.021-1.81-0.988-4.03,0.087-5.809l68.845-113.921c1.043-1.726,2.913-2.781,4.93-2.781c2.016,0,3.887,1.055,4.93,2.781
						l68.845,113.921c1.075,1.779,1.108,3.999,0.087,5.809C428.815,387.743,426.898,388.862,424.82,388.862L424.82,388.862z
						 M297.341,377.342h117.267l-58.634-97.025L297.341,377.342z"/>
				</g>
				<g>
					<g>
						<path style="fill-rule:evenodd;clip-rule:evenodd;fill:#212121;" d="M355.975,353.939c-3.181,0-5.76-2.579-5.76-5.76v-37.926
							c0-3.181,2.579-5.76,5.76-5.76c3.181,0,5.76,2.579,5.76,5.76v37.926C361.735,351.361,359.156,353.939,355.975,353.939z"/>
					</g>
					<g>
						<path style="fill-rule:evenodd;clip-rule:evenodd;fill:#212121;" d="M355.975,372.009c-3.181,0-5.76-2.579-5.76-5.76v-3.479
							c0-3.181,2.579-5.76,5.76-5.76c3.181,0,5.76,2.579,5.76,5.76v3.479C361.735,369.431,359.156,372.009,355.975,372.009z"/>
					</g>
				</g>
			</g>
			<g>
				<g>
					<path style="fill-rule:evenodd;clip-rule:evenodd;fill:#212121;" d="M206.57,201.28c-0.689,0-1.39-0.124-2.072-0.387
						c-2.968-1.145-4.446-4.479-3.301-7.447c1.389-3.601,3.382-6.905,5.923-9.821c1.487-1.706,3.147-3.26,4.935-4.62
						c2.532-1.926,6.146-1.434,8.071,1.098c1.926,2.532,1.434,6.146-1.098,8.071c-1.167,0.887-2.251,1.903-3.225,3.02
						c-1.657,1.9-2.955,4.053-3.859,6.397C211.063,199.878,208.882,201.28,206.57,201.28z"/>
				</g>
				<g>
					<path style="fill-rule:evenodd;clip-rule:evenodd;fill:#212121;" d="M214.037,276.757c-0.908,0-1.829-0.215-2.687-0.669
						c-3.083-1.63-5.866-3.745-8.269-6.285c-5.608-5.933-8.696-13.695-8.696-21.86c0-16.746,13.004-30.512,29.443-31.732
						c1.465-5.925,4.618-11.325,9.157-15.57c5.913-5.53,13.63-8.575,21.729-8.575c1.545,0,3.101,0.113,4.625,0.335
						c7.012,1.022,13.416,4.355,18.269,9.385c5.088-3.28,11.019-5.041,17.2-5.041c15.228,0,27.992,10.751,31.1,25.061
						c0.355-0.016,0.712-0.024,1.068-0.024c12.6,0,22.851,10.251,22.851,22.853c0,12.572-10.227,22.823-22.797,22.851
						c-0.004,0-0.009,0-0.013,0c-3.175,0-5.753-2.57-5.76-5.747c-0.007-3.181,2.566-5.766,5.747-5.773
						c6.232-0.014,11.303-5.097,11.303-11.331c0-6.249-5.083-11.333-11.331-11.333c-1.397,0-2.757,0.251-4.043,0.745
						c-1.871,0.719-3.98,0.414-5.571-0.805c-1.483-1.137-2.316-2.916-2.252-4.767c-0.052-11.154-9.139-20.209-20.302-20.209
						c-5.305,0-10.32,2.032-14.123,5.721c-1.241,1.204-2.956,1.786-4.675,1.588c-1.717-0.199-3.255-1.159-4.187-2.615
						c-3.186-4.974-8.342-8.312-14.146-9.158c-0.975-0.142-1.973-0.214-2.964-0.214c-10.602,0-19.495,8.27-20.246,18.829
						c-0.11,1.55-0.843,2.991-2.031,3.993c-1.188,1.003-2.73,1.483-4.278,1.33c-0.639-0.063-1.297-0.095-1.955-0.095
						c-11.194,0-20.3,9.107-20.3,20.3c0,5.209,1.97,10.162,5.546,13.945c1.536,1.624,3.314,2.975,5.283,4.016
						c2.812,1.487,3.887,4.972,2.4,7.785C218.101,275.641,216.103,276.757,214.037,276.757L214.037,276.757z M315.139,228.069
						c0,0.003-0.001,0.006-0.001,0.01C315.138,228.075,315.138,228.072,315.139,228.069z"/>
				</g>
				<g>
					<path style="fill-rule:evenodd;clip-rule:evenodd;fill:#212121;" d="M194.648,274.859c-6.146,0-12.113-1.757-17.255-5.081
						c-3.679-2.379-6.808-5.47-9.216-9.077c-1.554,0.231-3.129,0.348-4.712,0.348c-17.547,0-31.822-14.275-31.822-31.82
						c0-7.699,2.786-15.13,7.846-20.923c4.057-4.646,9.35-7.991,15.202-9.669c3.083-13.127,14.041-23.984,28.438-27.71
						c11.556-2.99,23.71-0.851,32.774,5.556c5.284-2.961,11.334-4.44,17.442-4.214c7.18,0.266,13.929,2.781,19.516,7.272
						c5.473,4.4,9.347,10.29,11.203,17.032c0.516,1.875,0.051,3.884-1.236,5.341c-1.287,1.458-3.223,2.167-5.148,1.887
						c-0.976-0.142-1.973-0.214-2.965-0.214c-10.602,0-19.494,8.27-20.246,18.829c-0.11,1.551-0.843,2.991-2.031,3.993
						c-1.188,1.003-2.732,1.482-4.278,1.33c-0.639-0.063-1.297-0.095-1.955-0.095c-11.194,0-20.3,9.107-20.3,20.3
						c0,5.209,1.97,10.162,5.546,13.945c1.223,1.293,1.779,3.079,1.507,4.838c-0.272,1.759-1.342,3.293-2.898,4.156
						C205.368,273.483,200.039,274.859,194.648,274.859L194.648,274.859z M171.076,248.397c2.179,0,4.236,1.243,5.208,3.301
						c3.339,7.071,10.548,11.64,18.364,11.64c1.187,0,2.37-0.104,3.531-0.309c-2.477-4.592-3.795-9.754-3.795-15.088
						c0-16.746,13.004-30.512,29.443-31.732c1.465-5.925,4.618-11.325,9.157-15.57c4.626-4.326,10.356-7.132,16.51-8.148
						c-3.818-5.168-9.839-8.463-16.578-8.713c-4.992-0.185-9.923,1.375-13.884,4.393c-2.23,1.699-5.359,1.546-7.412-0.363
						c-6.414-5.962-16.226-8.158-25.607-5.731c-11.269,2.917-19.535,11.734-20.57,21.939c-0.267,2.632-2.292,4.744-4.91,5.12
						c-9.903,1.425-17.372,10.062-17.372,20.09c0,11.194,9.107,20.3,20.302,20.3c2.023,0,4.019-0.296,5.93-0.879
						C169.952,248.478,170.518,248.397,171.076,248.397z"/>
				</g>
				<g>
					<path style="fill-rule:evenodd;clip-rule:evenodd;fill:#212121;" d="M308.892,271.701h-44.96
						c-7.692,0-13.949-6.257-13.949-13.949s6.257-13.949,13.949-13.949c3.553,0,6.938,1.337,9.532,3.765
						c2.322,2.174,2.443,5.819,0.268,8.141c-2.174,2.322-5.819,2.443-8.141,0.268c-0.319-0.298-0.866-0.655-1.659-0.655
						c-1.339,0-2.429,1.09-2.429,2.429c0,1.339,1.09,2.429,2.429,2.429l44.961,0.001c3.181,0,5.76,2.579,5.76,5.76
						C314.652,269.123,312.073,271.701,308.892,271.701z"/>
				</g>
				<g>
					<path style="fill-rule:evenodd;clip-rule:evenodd;fill:#212121;" d="M305.371,293.133h-65.247
						c-7.691,0-13.949-6.257-13.949-13.949s6.257-13.949,13.949-13.949c3.554,0,6.939,1.337,9.532,3.765
						c2.322,2.174,2.442,5.819,0.268,8.141c-2.174,2.322-5.82,2.443-8.141,0.268c-0.319-0.298-0.865-0.655-1.659-0.655
						c-1.339,0-2.429,1.09-2.429,2.429c0,1.339,1.09,2.429,2.429,2.429l65.247,0c3.181,0,5.76,2.579,5.76,5.76
						C311.13,290.554,308.552,293.133,305.371,293.133z"/>
				</g>
				<g>
					<path style="fill-rule:evenodd;clip-rule:evenodd;fill:#212121;" d="M194.088,298.08h-40.24
						c-7.691,0-13.949-6.257-13.949-13.949c0-7.692,6.257-13.949,13.949-13.949c3.554,0,6.939,1.337,9.532,3.765
						c2.322,2.174,2.442,5.819,0.268,8.141c-2.174,2.322-5.819,2.443-8.141,0.268c-0.319-0.299-0.865-0.655-1.658-0.655
						c-1.339,0-2.429,1.09-2.429,2.429c0,1.339,1.09,2.429,2.429,2.429l40.24,0c3.181,0,5.76,2.579,5.76,5.76
						S197.27,298.08,194.088,298.08z"/>
				</g>
				<g>
					<path style="fill-rule:evenodd;clip-rule:evenodd;fill:#212121;" d="M216.503,298.08h-6.365c-3.181,0-5.76-2.579-5.76-5.76
						s2.579-5.76,5.76-5.76h6.365c3.181,0,5.76,2.579,5.76,5.76S219.684,298.08,216.503,298.08z"/>
				</g>
				<g>
					<path style="fill-rule:evenodd;clip-rule:evenodd;fill:#212121;" d="M274.128,328.882c-3.554,0-6.939-1.337-9.532-3.765
						c-2.322-2.174-2.442-5.819-0.268-8.141c2.174-2.322,5.819-2.443,8.141-0.268c0.319,0.298,0.865,0.655,1.659,0.655
						c1.339,0,2.429-1.09,2.429-2.429c0-1.339-1.09-2.429-2.429-2.429l-46.047-0.001c-3.181,0-5.76-2.579-5.76-5.76
						s2.579-5.76,5.76-5.76h46.047c7.691,0,13.949,6.257,13.949,13.949C288.077,322.625,281.82,328.882,274.128,328.882z"/>
				</g>
			</g>
		</g>
	</g>
</g>
</svg>
