<?xml version="1.0" encoding="iso-8859-1"?>
<!-- Generator: Adobe Illustrator 25.2.0, SVG Export Plug-In . SVG Version: 6.00 Build 0)  -->
<svg version="1.1" xmlns="http://www.w3.org/2000/svg" xmlns:xlink="http://www.w3.org/1999/xlink" x="0px" y="0px"
	 viewBox="0 0 492 492" style="enable-background:new 0 0 492 492;" xml:space="preserve">
<g id="Master_Layer_2">
</g>
<g id="Layer_1">
	<g>
		<g>
			<g>
				<g>
					<g>
						<g>
							<g>
								<g>
									<path style="fill-rule:evenodd;clip-rule:evenodd;fill:#212121;" d="M216.668,249.835c-3.192,0-5.76-2.568-5.76-5.76
										v-78.72c0-3.192,2.568-5.76,5.76-5.76c3.192,0,5.76,2.568,5.76,5.76v78.72
										C222.428,247.267,219.836,249.835,216.668,249.835z"/>
								</g>
								<g>
									<path style="fill-rule:evenodd;clip-rule:evenodd;fill:#212121;" d="M274.532,250.651c-3.192,0-5.76-2.568-5.76-5.76
										v-78.24c0-3.192,2.568-5.76,5.76-5.76c3.192,0,5.76,2.568,5.76,5.76v78.24C280.292,248.059,277.7,250.651,274.532,250.651z
										"/>
								</g>
							</g>
							<g>
								<path style="fill-rule:evenodd;clip-rule:evenodd;fill:#212121;" d="M259.844,174.931c-9.816,0-19.08-3-26.4-8.544
									c-6.288,3.24-13.512,4.872-20.736,4.872c-6.312,0-12.6-1.248-18.216-3.792c-5.592,1.632-11.064,1.944-16.272,0.96
									c-5.448-1.032-10.56-3.576-14.76-7.32c-4.632-4.104-8.112-9.528-10.104-15.696c-1.968-6.144-2.304-12.6-0.936-18.624
									c1.224-5.496,3.888-10.536,7.68-14.544c3.6-3.816,8.16-6.744,13.584-8.688c5.952-10.992,17.28-18.936,30.816-21.504
									c12.864-2.448,25.656,0.384,35.136,7.608c9.864-5.256,21.84-6.312,33.528-2.808c6.24,1.872,12.072,4.992,16.872,9.048
									c3.504,2.976,6.408,6.336,8.688,10.056c8.256-3.168,17.784-2.472,26.112,2.136c10.224,5.64,16.416,16.032,16.152,27.12
									c0.192,6.384-1.68,12.504-5.376,17.688c-3.408,4.752-8.16,8.496-13.8,10.848c-4.176,1.752-8.496,2.592-12.72,2.592
									c-5.88,0-11.568-1.656-16.368-4.848c-7.008,7.344-16.848,12.048-27.816,13.176
									C263.156,174.835,261.5,174.931,259.844,174.931L259.844,174.931z M234.044,153.595c1.44,0,2.88,0.528,3.984,1.584
									c6.408,6.12,15.768,9.048,25.632,8.04c9.864-1.008,18.432-5.808,23.472-13.128c0.984-1.44,2.568-2.328,4.296-2.472
									s3.432,0.528,4.632,1.776c6.312,6.648,15.096,6.288,21.24,3.72c6.072-2.544,12.432-8.52,12.12-17.688c0-0.12,0-0.24,0-0.36
									c0.216-6.936-3.6-13.248-10.2-16.896c-6.552-3.624-14.16-3.504-19.872,0.336c-1.44,0.96-3.24,1.224-4.896,0.72
									c-1.656-0.504-3-1.728-3.648-3.336c-3.384-8.352-11.232-15.072-21-18c-9.888-2.952-19.92-1.656-27.528,3.6
									c-2.256,1.56-5.304,1.296-7.272-0.6c-6.96-6.744-17.592-9.552-28.392-7.512c-10.824,2.04-19.656,8.52-23.64,17.304
									c-0.696,1.536-2.016,2.688-3.624,3.144c-10.8,3.144-14.496,10.152-15.696,15.48c-1.848,8.256,1.128,17.568,7.44,23.184
									c4.08,3.624,11.208,7.152,21.936,3.36c1.536-0.552,3.216-0.408,4.632,0.36c9.912,5.304,23.88,4.608,33.192-1.632
									C231.812,153.907,232.94,153.595,234.044,153.595z"/>
							</g>
							<g>
								<path style="fill-rule:evenodd;clip-rule:evenodd;fill:#212121;" d="M236.876,208.003c-3.192,0-5.76-2.568-5.76-5.76
									v-17.424c0-3.192,2.568-5.76,5.76-5.76c3.192,0,5.76,2.568,5.76,5.76v17.424
									C242.636,205.435,240.068,208.003,236.876,208.003z"/>
							</g>
							<g>
								<path style="fill-rule:evenodd;clip-rule:evenodd;fill:#212121;" d="M257.42,150.739c-1.68,0-3.24-0.12-4.632-0.288
									c-3.744-0.456-6.024-4.344-4.632-7.872l0,0c0.96-2.424,3.432-3.912,6.024-3.6c4.872,0.552,13.272,0.144,21.576-6.72
									c2.448-2.016,6.096-1.68,8.112,0.792c2.016,2.448,1.68,6.096-0.792,8.112C273.764,148.819,264.428,150.739,257.42,150.739z"
									/>
							</g>
							<g>
								<g>
									<path style="fill-rule:evenodd;clip-rule:evenodd;fill:#212121;" d="M179.996,206.419c-2.424,0-4.656-1.536-5.472-3.936
										c-1.248-3.792-3.864-6.672-7.704-8.592c-2.928-1.44-5.472-1.776-5.496-1.776c-3.168-0.336-5.448-3.168-5.112-6.336
										c0.336-3.168,3.192-5.448,6.336-5.112c0.72,0.072,17.544,2.064,22.92,18.192c1.008,3.024-0.624,6.288-3.648,7.272
										C181.196,206.323,180.596,206.419,179.996,206.419z"/>
								</g>
								<g>
									<path style="fill-rule:evenodd;clip-rule:evenodd;fill:#212121;" d="M313.628,205.795c-0.6,0-1.224-0.096-1.824-0.288
										c-3.024-1.008-4.656-4.272-3.648-7.272c3.168-9.528,10.344-14.112,15.816-16.296c3.528-1.392,7.392,0.984,7.8,4.752l0,0
										c0.264,2.568-1.152,5.016-3.552,5.976c-3.192,1.296-7.392,3.936-9.144,9.192
										C318.284,204.259,316.028,205.795,313.628,205.795z"/>
								</g>
							</g>
						</g>
						<g>
							<path style="fill-rule:evenodd;clip-rule:evenodd;fill:#212121;" d="M211.34,378.883c-1.104,0-2.232-0.312-3.216-0.984
								c-2.64-1.776-3.336-5.352-1.536-7.992l14.64-21.648l-15.24-32.112c-0.984-2.064-0.648-4.488,0.84-6.216l21.984-25.584
								c2.064-2.424,5.712-2.688,8.112-0.624c2.424,2.064,2.688,5.712,0.624,8.112l-19.536,22.752l15.048,31.704
								c0.864,1.848,0.72,4.008-0.432,5.688l-16.488,24.36C215.012,377.995,213.188,378.883,211.34,378.883z"/>
						</g>
						<g>
							<path style="fill-rule:evenodd;clip-rule:evenodd;fill:#212121;" d="M296.324,359.635c-1.008,0-2.04-0.264-2.976-0.84
								l-29.016-17.568c-1.728-1.032-2.784-2.904-2.784-4.92v-22.608c0-3.192,2.568-5.76,5.76-5.76s5.76,2.568,5.76,5.76v19.392
								l26.232,15.864c2.712,1.656,3.6,5.184,1.944,7.92C300.164,358.651,298.268,359.635,296.324,359.635z"/>
						</g>
						<g>
							<path style="fill-rule:evenodd;clip-rule:evenodd;fill:#212121;" d="M400.916,410.419c-1.368,0-2.736-0.48-3.84-1.464
								c-13.008-11.688-27.072-27.96-41.784-48.384c-11.688-16.2-23.832-35.064-36.096-56.064
								c-15.504-26.52-27.312-49.872-32.448-60.24l-20.16,12.072c-2.16,1.296-4.896,1.032-6.768-0.624l-13.536-11.928
								l-13.536,11.928c-1.872,1.656-4.608,1.92-6.768,0.624l-20.16-12.072c-5.112,10.368-16.944,33.72-32.448,60.24
								c-12.264,21-24.408,39.84-36.096,56.064c-14.712,20.4-28.776,36.672-41.784,48.384c-2.376,2.136-6,1.92-8.136-0.432
								c-2.136-2.352-1.92-6,0.432-8.136c22.344-20.064,48.48-55.2,75.6-101.592c20.616-35.256,34.656-64.848,34.8-65.136
								c0.696-1.464,1.968-2.568,3.528-3.048c1.56-0.48,3.24-0.264,4.632,0.576l21.96,13.128l14.184-12.504
								c2.184-1.92,5.448-1.92,7.632,0l14.184,12.504l21.96-13.128c1.392-0.84,3.072-1.032,4.632-0.576
								c1.56,0.48,2.832,1.584,3.528,3.048c0.144,0.288,14.184,29.88,34.8,65.136c27.12,46.392,53.256,81.528,75.6,101.592
								c2.376,2.136,2.568,5.76,0.432,8.136C404.06,409.795,402.476,410.419,400.916,410.419z"/>
						</g>
					</g>
				</g>
				<g>
					<g>
						<path style="fill-rule:evenodd;clip-rule:evenodd;fill:#212121;" d="M170.084,234.619c-1.56,0-3.12-0.624-4.248-1.872
							c-12.648-13.848-26.112-13.536-32.88-12.192c-2.664,0.528-5.328-0.84-6.408-3.312l0,0c-1.488-3.36,0.528-7.248,4.128-7.968
							c2.688-0.528,6.072-0.936,9.912-0.816c8.76,0.264,21.72,3.336,33.744,16.512c2.136,2.352,1.968,6-0.36,8.136
							C172.868,234.115,171.476,234.619,170.084,234.619z"/>
					</g>
					<g>
						<path style="fill-rule:evenodd;clip-rule:evenodd;fill:#212121;" d="M322.436,234.619c-1.392,0-2.784-0.504-3.888-1.512
							c-2.352-2.136-2.52-5.784-0.36-8.136c12.024-13.176,24.984-16.248,33.744-16.512c3.864-0.12,7.224,0.288,9.912,0.816
							c3.6,0.72,5.616,4.608,4.128,7.968l0,0c-1.104,2.472-3.768,3.84-6.408,3.312c-6.768-1.344-20.232-1.68-32.88,12.192
							C325.556,233.971,323.996,234.619,322.436,234.619z"/>
					</g>
				</g>
			</g>
			<g>
				<path style="fill-rule:evenodd;clip-rule:evenodd;fill:#212121;" d="M205.724,412.291c-3.696,0-7.368-0.816-10.68-2.424
					c-1.632-0.792-3.168-1.752-4.608-2.904c-0.024-0.024-0.072-0.048-0.096-0.072c-4.728-3.672-11.256-3.672-15.96,0
					c-0.024,0.024-0.048,0.024-0.072,0.048c-0.024,0-0.048,0.024-0.048,0.048c0,0-0.024,0-0.024,0.024
					c-2.784,2.208-6.336,3.432-10.008,3.432l-96.528,0c-3.192,0-5.76-2.568-5.76-5.76c0-3.192,2.568-5.76,5.76-5.76h96.528
					c1.032,0,2.016-0.312,2.784-0.888c0.024-0.024,0.048-0.048,0.096-0.072c4.32-3.432,9.744-5.328,15.264-5.328
					s10.944,1.896,15.264,5.328c0.024,0.024,0.072,0.048,0.096,0.072c0.72,0.576,1.512,1.056,2.328,1.464
					c2.496,1.2,5.376,1.584,8.112,1.056c5.64-1.104,10.8-1.632,15.72-1.632H424.82c3.192,0,5.76,2.568,5.76,5.76
					c0,3.192-2.568,5.76-5.76,5.76H223.868c-4.176,0-8.616,0.456-13.536,1.416C208.82,412.147,207.26,412.291,205.724,412.291z"/>
			</g>
		</g>
	</g>
</g>
</svg>
