<?xml version="1.0" encoding="utf-8"?>
<!-- Generator: Adobe Illustrator 26.4.1, SVG Export Plug-In . SVG Version: 6.00 Build 0)  -->
<svg version="1.1" id="Layer_1" xmlns="http://www.w3.org/2000/svg" xmlns:xlink="http://www.w3.org/1999/xlink" x="0px" y="0px"
	 width="500px" height="500px" viewBox="0 0 500 500" enable-background="new 0 0 500 500" xml:space="preserve">
<g id="g48">
	<g>
		<polygon fill="#A66425" points="66.8,112.8 61.3,392.6 438.7,387 426.5,107.4 		"/>
	</g>
	<g>
		<polygon fill="#E6B075" points="426.5,107.4 66.8,112.8 68.4,372.6 432.4,369.1 		"/>
	</g>
	<g>
		<path fill="#E0A465" d="M428.3,185c-36.5,35.7-108.4,91.5-229.6,109.7c-68.8,10.4-108.3,10.7-130.7,7l0.4,70.9l364-3.6L428.3,185z
			"/>
	</g>
	<g>
		<path fill="#C68342" d="M97.7,372.3l111.1-1.1c-17-3.6-33.8-5.3-50.7-5.3C138.5,366,118.5,368.4,97.7,372.3z"/>
	</g>
	<g>
		<path fill="#C68342" d="M328.5,370.1l35.1-0.3c-16-8.5-48.2-19.6-50.9-20.4c-48.3-14.7-99.4-23.7-150.3-23
			c-17,0.2-33.9,1.5-50.7,4c-14.1,2.1-29.7,2.6-43.6,6.8l0.1,8c10.4-3,21.6-4.6,28-5.5c10.4-1.5,20.6-4.7,31.2-5.6
			c59-5.1,149.2,3.2,200.3,35.5C327.9,369.7,328.3,369.9,328.5,370.1z"/>
	</g>
	<g>
		<path fill="#C68342" d="M431.5,330.4l-0.2-7.7c-20,4-38.6,8.3-36.9,32.7c0.4,5.3,4.3,9.8,9.9,13.9l22.4-0.2
			c-13-1.1-23.9-3.6-24.3-13.1C402,341.4,417.7,332.9,431.5,330.4z"/>
	</g>
	<g>
		<path fill="#C68342" d="M275.5,283.1c36.8-5.9,73.6-11.4,110.4-17.2c13.6-2.1,29.3-6,44.1-5.8l-0.2-9.1c-2.9,0.1-5.5,0.2-7.1,0.2
			c-32.9-0.4-65.8,5.9-98.1,11.7c-27.1,4.9-54,8.3-80.6,15.8c-7.2,2-34.1,8.6-32.3,20.8c2.1,14.6,34,15.8,42.8,16.2
			c52.6,2.2,103.2-2.6,155.1-11.4c4.7-0.8,12.8-1.7,21.4-2.8l-0.2-6.9c-5.5,0.8-10.8,1.4-14.6,2c-45,7.6-91.6,7.2-137.2,8
			c-8.6,0.1-43.5,6-48.4-4.7C225.9,289.8,271.1,283.8,275.5,283.1z"/>
	</g>
	<g>
		<path fill="#C68342" d="M413.8,227.9c-5-0.2-10-0.2-14.9-0.2c-74.4-0.1-145.9,15.7-215.9,41.4c-26.8,9.9-86.3,36.1-115,37.4
			l0.1,14.5c0.5-0.1,1.3-0.3,1.6-0.4c26.4-12,53.8-19.3,81.1-28.7c75.3-25.7,148.6-53.6,229.4-51.3c6.2,0.2,28.3-0.4,49.3,0.4
			l-0.3-12.6C424,228.2,418.7,228.1,413.8,227.9z"/>
	</g>
	<g>
		<path fill="#C68342" d="M370,156.1c-44.2,5.2-88.5,9.1-132.7,14.2c-53.5,6.2-116.6,16.7-170.1,2l0.1,9.2c0.3,0,0.6-0.1,0.8-0.1
			c27.9-2.4,48.4,8.7,71.8,8.7c37.1,0,72.9-2.6,109.6-9.1c10.9-1.9,20.8-6.8,31.4-9.4c17.2-4.4,35.9-5.8,53.5-8.6
			c30.3-4.8,62.5-7.6,93.3-8.1l-0.1-6.4C404.2,151,378.7,155,370,156.1z"/>
	</g>
	<g>
		<path fill="#C68342" d="M421.2,186.2c-5.6,0-11.2,0-16.8,0.2c-96.1,3.1-187.3,44.1-283.7,47.1c-18.4,0.6-35.5-3.9-53.2-7.7
			l0.1,10.5c10.7,3.4,21.7,6.2,33.1,6.1c20.3-0.3,39.9-6.3,59.8-9.6c0.8-0.1,13.2-3.6,13.6-3.1c2.3,2.6-6.6,2.2-9.8,3.4
			c-7.8,3.1-15.7,6.2-23,10.2c-12.7,7-25.1,14.7-39.3,18.3c-11.2,2.8-22.9,3-34.1,6.3l0.1,9.4c37.8-6,72.8-25.1,108.4-38
			c34.9-12.7,70.9-18.3,106.7-27.3c56.2-14.2,92.6-19.4,145.5-17.6l-0.2-8.1C425.9,186.4,423.6,186.3,421.2,186.2z"/>
	</g>
	<g>
		<path fill="#C68342" d="M299.3,112.1c-19.2,6.7-39.5,10.6-59,16.6c-15.4,4.8-30.6,10.7-46.6,13.7c-45.9,8.7-78.6,4.7-120.8-16.2
			c-2.1-1-4.1-2.1-6.1-3.2l0.1,11.5c0.8,0.4,2.6,1.3,3.1,1.6c16.8,8.4,34.7,13.5,52.8,17.8c40.8,9.7,92.1-1.3,130.7-14.7
			c8.7-3,62.3-14.7,78.7-30.3l-27.6,0.4C302.3,110.6,300.4,111.7,299.3,112.1z"/>
	</g>
	<g>
		<path fill="#A66425" d="M394.2,132.5l-298.7,3.1l-19.1-12.4l16.2,20l-1,199.8l-14.9,22.8l23.8-18.5l303.3-5.7l21.9,19.3
			l-17.3-31.2l-5.9-197l19.9-20.5L394.2,132.5z M100.6,337.9l-1-191.3l291.8-7.2l7.9,193.5L100.6,337.9z"/>
	</g>
	<g>
		<path fill="#A66425" d="M172.5,186.6c11.9,0.9,25.6,0.3,43.2-2.3c0,0,0.1,0,0.1,0c16.6-2.4,31.4-5.3,42.2-7.1
			c10.8-1.7,17.5-2.5,17.4-3.2c0-0.6-6.9-0.9-17.8,0c-13.6,1.1-23.4,3-42.5,5.7c0,0-0.1,0-0.1,0c-17.9,2.6-30.2,3.6-42.4,3.6
			c-10.8,0-17.6-0.9-17.7-0.3l0,0C154.8,183.8,161.4,185.8,172.5,186.6z"/>
	</g>
	<g>
		<path fill="#A66425" d="M252.9,216.7c27.1-6.6,52-11.8,69.9-16c17.9-4.2,28.9-7.1,28.8-7.7c-0.1-0.6-11.3,1.2-29.4,4.6
			c-16.8,3.1-44.4,8.4-70.3,14.7c-28.3,6.9-50.5,13.8-68.6,20.8c-17.1,6.6-27.3,11.8-27,12.4c0.3,0.6,10.8-3.6,28.1-9.4
			C203.2,229.8,224.1,223.6,252.9,216.7z"/>
	</g>
	<g>
		<path fill="#A66425" d="M344,238c0-1.3-22.4-2.2-49.6,1.2c-27.2,3.4-48.3,11-48,12.2c0.4,1.2,21.6-4.4,48.5-7.7
			C321.9,240.4,344,239.3,344,238z"/>
	</g>
	<g>
		<path fill="#A66425" d="M348,262.8c-0.1-1.2-18.5-0.9-40.7,2.8c-22.2,3.7-39.5,10.1-39.2,11.3c0.4,1.2,17.9-3.1,39.9-6.8
			C330,266.4,348.1,264,348,262.8z"/>
	</g>
</g>
</svg>
